<?xml version="1.0" encoding="UTF-8" standalone="no"?>
<!-- Created with Inkscape (http://www.inkscape.org/) -->

<svg
   width="82.44471mm"
   height="33.023335mm"
   viewBox="0 0 82.44471 33.023335"
   version="1.1"
   id="svg1026"
   inkscape:version="1.1.1 (1:1.1+202109281946+c3084ef5ed)"
   sodipodi:docname="diputacion.svg"
   xmlns:inkscape="http://www.inkscape.org/namespaces/inkscape"
   xmlns:sodipodi="http://sodipodi.sourceforge.net/DTD/sodipodi-0.dtd"
   xmlns="http://www.w3.org/2000/svg"
   xmlns:svg="http://www.w3.org/2000/svg">
  <sodipodi:namedview
     id="namedview1028"
     pagecolor="#ffffff"
     bordercolor="#666666"
     borderopacity="1.0"
     inkscape:pageshadow="2"
     inkscape:pageopacity="0.0"
     inkscape:pagecheckerboard="0"
     inkscape:document-units="mm"
     showgrid="false"
     lock-margins="true"
     fit-margin-top="5"
     fit-margin-left="5"
     fit-margin-right="5"
     fit-margin-bottom="5"
     inkscape:zoom="0.733172"
     inkscape:cx="-20.459047"
     inkscape:cy="197.77078"
     inkscape:window-width="1920"
     inkscape:window-height="995"
     inkscape:window-x="0"
     inkscape:window-y="48"
     inkscape:window-maximized="1"
     inkscape:current-layer="layer1" />
  <defs
     id="defs1023" />
  <g
     inkscape:label="Layer 1"
     inkscape:groupmode="layer"
     id="layer1"
     transform="translate(-110.34508,-96.44216)">
    <g
       id="g130"
       transform="matrix(0.35277777,0,0,-0.35277777,184.55253,113.18447)">
      <path
         d="m 0,0 h -3.326 v 12.681 h 3.062 v -1.374 c 0.787,0.5 1.511,0.898 2.169,1.183 0.661,0.288 1.363,0.43 2.114,0.43 1.373,0 2.405,-0.373 3.098,-1.117 C 7.81,11.055 8.159,10.014 8.159,8.681 V 0 H 4.833 V 8.234 C 4.833,9.059 4.694,9.64 4.422,9.978 4.145,10.315 3.71,10.482 3.116,10.482 2.473,10.482 1.878,10.348 1.342,10.083 0.805,9.819 0.358,9.502 0,9.137 Z m -11.485,17.85 h 4.135 l -3.912,-3.56 h -2.74 z M -17.811,6.336 c 0,1.333 0.241,2.496 0.729,3.487 0.483,0.992 1.184,1.756 2.105,2.293 0.921,0.536 1.999,0.804 3.228,0.804 0.961,0 1.806,-0.15 2.539,-0.451 0.734,-0.305 1.373,-0.748 1.914,-1.337 0.541,-0.585 0.943,-1.284 1.211,-2.093 0.264,-0.813 0.398,-1.711 0.398,-2.703 0,-0.988 -0.134,-1.885 -0.406,-2.698 C -6.362,2.825 -6.764,2.13 -7.292,1.553 -7.819,0.975 -8.459,0.533 -9.214,0.224 -9.97,-0.085 -10.815,-0.24 -11.749,-0.24 c -1.229,0 -2.307,0.269 -3.228,0.805 -0.921,0.537 -1.622,1.301 -2.105,2.292 -0.488,0.992 -0.729,2.15 -0.729,3.479 m 8.798,0 c 0,1.41 -0.223,2.451 -0.675,3.13 -0.447,0.678 -1.136,1.016 -2.061,1.016 -0.925,0 -1.614,-0.338 -2.061,-1.016 -0.451,-0.679 -0.675,-1.72 -0.675,-3.13 0,-1.402 0.224,-2.442 0.675,-3.121 0.447,-0.679 1.136,-1.016 2.061,-1.016 0.925,0 1.614,0.337 2.061,1.016 0.452,0.679 0.675,1.719 0.675,3.121 m -11.498,8.681 h -3.327 v 2.833 h 3.327 z m 0,-15.017 h -3.327 v 12.681 h 3.327 z m -6.604,9.531 -2.763,-0.979 c -0.312,0.637 -0.661,1.117 -1.046,1.442 -0.384,0.325 -0.947,0.488 -1.689,0.488 -0.926,0 -1.615,-0.338 -2.062,-1.016 -0.451,-0.679 -0.675,-1.72 -0.675,-3.13 0,-1.41 0.228,-2.454 0.689,-3.125 0.456,-0.675 1.176,-1.012 2.155,-1.012 0.67,0 1.238,0.183 1.699,0.549 0.465,0.365 0.88,0.857 1.247,1.475 l 2.526,-1.288 c -0.662,-1.122 -1.436,-1.931 -2.316,-2.427 -0.885,-0.5 -1.971,-0.748 -3.263,-0.748 -1.23,0 -2.308,0.269 -3.229,0.805 -0.921,0.537 -1.622,1.301 -2.105,2.292 -0.487,0.992 -0.729,2.15 -0.729,3.479 0,1.333 0.242,2.496 0.729,3.487 0.483,0.992 1.184,1.756 2.105,2.293 0.921,0.536 1.999,0.804 3.229,0.804 1.336,0 2.489,-0.3 3.459,-0.902 0.966,-0.597 1.65,-1.431 2.039,-2.487 m -17.14,-6.186 v 2.727 c -1.051,-0.191 -1.874,-0.365 -2.472,-0.524 -0.6,-0.159 -1.114,-0.407 -1.547,-0.744 -0.434,-0.337 -0.648,-0.776 -0.648,-1.317 0,-0.451 0.147,-0.813 0.446,-1.081 C -48.181,2.134 -47.791,2 -47.309,2 c 0.47,0 0.984,0.138 1.538,0.41 0.555,0.272 1.06,0.585 1.516,0.935 M -40.652,0 h -3.25 l -0.224,1.093 c -0.469,-0.284 -0.925,-0.528 -1.367,-0.727 -0.443,-0.195 -0.908,-0.346 -1.405,-0.451 -0.491,-0.102 -1.014,-0.155 -1.564,-0.155 -1.207,0 -2.137,0.329 -2.799,0.984 -0.657,0.654 -0.988,1.447 -0.988,2.373 0,0.955 0.286,1.768 0.863,2.439 0.577,0.671 1.458,1.211 2.638,1.63 1.176,0.418 2.678,0.719 4.493,0.91 v 1.073 c 0,0.484 -0.184,0.858 -0.55,1.118 -0.367,0.264 -0.863,0.394 -1.48,0.394 -0.711,0 -1.296,-0.134 -1.766,-0.406 -0.465,-0.269 -0.903,-0.655 -1.305,-1.155 l -2.146,1.488 c 0.277,0.447 0.702,0.845 1.269,1.199 0.568,0.353 1.199,0.626 1.896,0.821 0.693,0.195 1.377,0.292 2.047,0.292 1.28,-0.024 2.303,-0.199 3.081,-0.524 0.778,-0.325 1.35,-0.857 1.721,-1.601 0.371,-0.744 0.559,-1.74 0.559,-2.995 V 1.833 c 0,-0.76 0.094,-1.373 0.277,-1.833 m -20.686,12.681 h 1.927 v 4.19 h 3.326 v -4.19 h 2.736 v -2.439 h -2.736 V 3.081 c 0,-0.333 0.094,-0.565 0.282,-0.691 0.187,-0.126 0.496,-0.191 0.925,-0.191 0.175,0 0.684,0.085 1.529,0.252 v -2.499 c -1.22,-0.127 -2.096,-0.192 -2.629,-0.192 -1.18,0 -2.047,0.252 -2.601,0.756 -0.555,0.504 -0.832,1.224 -0.832,2.162 v 7.564 h -1.927 z m -5.369,0 h 3.326 V 0 h -3.062 v 1.374 c -0.787,-0.5 -1.516,-0.898 -2.182,-1.183 -0.671,-0.289 -1.372,-0.431 -2.114,-0.431 -1.364,0 -2.392,0.378 -3.085,1.13 -0.694,0.756 -1.042,1.792 -1.042,3.109 v 8.682 h 3.326 V 4.446 c 0,-0.825 0.139,-1.406 0.411,-1.743 0.278,-0.337 0.711,-0.504 1.306,-0.504 0.652,0 1.247,0.134 1.779,0.398 0.532,0.264 0.979,0.581 1.337,0.947 z M -86.458,9.352 V 3.268 c 0.853,-0.711 1.716,-1.069 2.579,-1.069 0.993,0 1.762,0.354 2.298,1.065 0.537,0.707 0.805,1.731 0.805,3.072 0,0.911 -0.121,1.671 -0.362,2.28 -0.237,0.61 -0.595,1.073 -1.064,1.39 -0.474,0.317 -1.033,0.476 -1.677,0.476 -0.429,0 -0.791,-0.053 -1.086,-0.159 -0.3,-0.109 -0.559,-0.248 -0.778,-0.418 -0.224,-0.171 -0.46,-0.354 -0.715,-0.553 m -3.327,-13.985 v 17.314 h 3.197 V 11.51 c 1.073,0.939 2.258,1.41 3.559,1.41 1.198,0 2.217,-0.296 3.058,-0.894 0.844,-0.593 1.475,-1.414 1.891,-2.463 0.42,-1.048 0.63,-2.235 0.63,-3.564 0,-1.053 -0.219,-2.065 -0.662,-3.028 -0.442,-0.967 -1.086,-1.743 -1.931,-2.329 -0.845,-0.589 -1.842,-0.882 -2.986,-0.882 -0.577,0 -1.198,0.134 -1.865,0.407 -0.666,0.272 -1.171,0.605 -1.511,1.004 h -0.053 v -5.804 z m -3.773,19.65 h -3.326 v 2.833 h 3.326 z m 0,-15.017 h -3.326 v 12.681 h 3.326 z m -17.498,14.778 V 2.833 h 2.477 c 1.336,0 2.392,0.264 3.161,0.797 0.773,0.532 1.314,1.239 1.614,2.113 0.299,0.878 0.451,1.898 0.451,3.056 0,1.167 -0.152,2.191 -0.451,3.069 -0.3,0.874 -0.841,1.581 -1.614,2.113 -0.769,0.532 -1.825,0.797 -3.161,0.797 z M -114.762,0 v 17.611 h 6.411 c 1.748,0 3.272,-0.309 4.573,-0.931 1.306,-0.618 2.316,-1.581 3.036,-2.886 0.72,-1.304 1.086,-2.971 1.095,-4.995 -0.009,-2.016 -0.375,-3.678 -1.095,-4.983 -0.72,-1.304 -1.73,-2.267 -3.036,-2.885 C -105.079,0.309 -106.603,0 -108.351,0 Z"
         style="fill:#1d1d1b;fill-opacity:1;fill-rule:evenodd;stroke:none"
         id="path132" />
    </g>
    <g
       id="g134"
       transform="matrix(0.35277777,0,0,-0.35277777,187.16044,120.86547)">
      <path
         d="M 0,0 V 4.054 C -1.954,3.672 -3.454,3.275 -4.507,2.866 -5.556,2.452 -6.248,2.031 -6.58,1.602 -6.912,1.168 -7.078,0.66 -7.078,0.068 c 0,-0.668 0.228,-1.189 0.678,-1.558 0.454,-0.374 1.04,-0.561 1.766,-0.561 0.726,0 1.513,0.187 2.356,0.561 C -1.434,-1.121 -0.673,-0.624 0,0 M 1.784,-2.957 H 0.271 l -0.219,1.499 c -0.59,-0.418 -1.123,-0.752 -1.599,-0.994 -0.482,-0.247 -0.984,-0.429 -1.518,-0.552 -0.538,-0.123 -1.15,-0.187 -1.84,-0.187 -0.717,0 -1.355,0.127 -1.919,0.385 -0.564,0.255 -1.01,0.628 -1.338,1.117 -0.328,0.489 -0.494,1.069 -0.494,1.737 0,0.83 0.183,1.518 0.555,2.059 0.372,0.544 0.914,0.985 1.626,1.327 0.713,0.342 1.565,0.64 2.549,0.887 0.988,0.25 2.321,0.54 4.004,0.873 v 0.863 c 0,0.855 -0.235,1.478 -0.703,1.88 -0.472,0.401 -1.272,0.6 -2.409,0.6 -1.604,0 -2.925,-0.743 -3.965,-2.234 l -1.054,0.569 c 0.581,0.969 1.285,1.681 2.12,2.13 0.831,0.449 1.815,0.675 2.951,0.675 1.032,0 1.889,-0.134 2.562,-0.401 C 0.253,9.01 0.756,8.589 1.084,8.012 1.412,7.436 1.578,6.701 1.578,5.799 v -6.486 c 0,-0.767 0.07,-1.523 0.206,-2.27 M -19.94,6.323 V 0.211 c 0.582,-0.724 1.185,-1.28 1.81,-1.673 0.629,-0.394 1.39,-0.589 2.286,-0.589 0.673,0 1.264,0.128 1.762,0.386 0.499,0.254 0.914,0.616 1.242,1.077 0.328,0.461 0.573,1.001 0.734,1.625 0.162,0.62 0.245,1.292 0.245,2.016 0,1.084 -0.157,2.042 -0.467,2.869 -0.311,0.827 -0.783,1.47 -1.417,1.927 -0.629,0.457 -1.412,0.688 -2.339,0.688 -0.481,0 -0.983,-0.119 -1.508,-0.362 -0.525,-0.238 -1.001,-0.536 -1.425,-0.89 -0.429,-0.354 -0.735,-0.675 -0.923,-0.962 m -1.578,-9.28 v 17.221 h 1.578 V 7.826 c 0.717,0.675 1.386,1.152 2.007,1.434 0.616,0.279 1.372,0.417 2.273,0.417 1.023,0 1.945,-0.274 2.772,-0.826 0.821,-0.553 1.464,-1.311 1.919,-2.281 0.459,-0.974 0.686,-2.055 0.686,-3.252 0,-1.39 -0.209,-2.571 -0.633,-3.544 -0.425,-0.974 -1.045,-1.713 -1.863,-2.214 -0.822,-0.501 -1.814,-0.751 -2.986,-0.751 -0.949,0 -1.792,0.151 -2.531,0.453 -0.739,0.302 -1.355,0.771 -1.849,1.399 l -0.271,-1.618 z M -30.48,9.677 c 1.36,0 2.452,-0.29 3.287,-0.873 0.831,-0.581 1.43,-1.36 1.789,-2.33 0.358,-0.969 0.537,-2.051 0.537,-3.235 0,-1.188 -0.179,-2.265 -0.537,-3.235 -0.359,-0.966 -0.958,-1.741 -1.789,-2.321 -0.835,-0.584 -1.927,-0.874 -3.287,-0.874 -1.972,0 -3.401,0.6 -4.289,1.804 -0.883,1.205 -1.324,2.746 -1.324,4.626 0,0.867 0.096,1.689 0.288,2.461 0.193,0.774 0.512,1.462 0.953,2.062 0.446,0.6 1.023,1.073 1.74,1.411 0.713,0.338 1.592,0.504 2.632,0.504 m 0,-1.14 c -0.922,0 -1.683,-0.206 -2.287,-0.616 -0.603,-0.413 -1.044,-1.017 -1.324,-1.812 -0.284,-0.795 -0.424,-1.753 -0.424,-2.87 0,-1.709 0.332,-3.02 0.992,-3.926 0.66,-0.911 1.674,-1.364 3.043,-1.364 1.368,0 2.383,0.453 3.043,1.364 0.66,0.906 0.992,2.217 0.992,3.926 0,1.117 -0.14,2.075 -0.424,2.87 -0.28,0.795 -0.721,1.399 -1.325,1.812 -0.603,0.41 -1.364,0.616 -2.286,0.616 M -41.034,0.211 v 6.112 c -0.188,0.287 -0.494,0.608 -0.918,0.954 -0.419,0.35 -0.896,0.648 -1.425,0.894 -0.529,0.243 -1.036,0.366 -1.513,0.366 -1.381,0 -2.43,-0.497 -3.143,-1.49 -0.713,-0.994 -1.071,-2.325 -1.071,-3.994 0,-1.499 0.336,-2.727 1.01,-3.677 0.677,-0.95 1.666,-1.427 2.973,-1.427 0.896,0 1.666,0.199 2.299,0.593 0.638,0.397 1.233,0.953 1.788,1.669 m 1.578,14.053 V -2.957 h -1.101 l -0.258,1.618 c -0.494,-0.628 -1.111,-1.097 -1.841,-1.399 -0.73,-0.302 -1.578,-0.453 -2.544,-0.453 -1.766,0 -3.121,0.56 -4.066,1.677 -0.944,1.117 -1.416,2.73 -1.416,4.832 0,0.903 0.131,1.745 0.398,2.528 0.262,0.783 0.633,1.459 1.106,2.027 0.476,0.565 1.04,1.01 1.7,1.328 0.656,0.318 1.382,0.476 2.177,0.476 0.897,0 1.658,-0.138 2.282,-0.417 0.621,-0.282 1.286,-0.759 1.985,-1.434 v 6.438 z M -56.737,-2.957 h -1.578 v 12.4 h 1.578 V 7.07 h 0.052 c 0.376,0.771 0.914,1.4 1.614,1.884 0.699,0.481 1.473,0.723 2.317,0.723 h 0.704 V 8.294 h -0.704 c -0.573,0 -1.172,-0.194 -1.806,-0.58 -0.629,-0.389 -1.154,-0.906 -1.561,-1.553 -0.41,-0.648 -0.616,-1.352 -0.616,-2.115 z m -9.054,17.07 h 2.011 l -3.589,-3.283 h -1.342 z m -1.128,-4.436 c 1.36,0 2.453,-0.29 3.288,-0.873 0.83,-0.581 1.429,-1.36 1.788,-2.33 0.358,-0.969 0.538,-2.051 0.538,-3.235 0,-1.188 -0.18,-2.265 -0.538,-3.235 -0.359,-0.966 -0.958,-1.741 -1.788,-2.321 -0.835,-0.584 -1.928,-0.874 -3.288,-0.874 -1.971,0 -3.401,0.6 -4.288,1.804 -0.884,1.205 -1.325,2.746 -1.325,4.626 0,0.867 0.096,1.689 0.288,2.461 0.193,0.774 0.512,1.462 0.953,2.062 0.446,0.6 1.023,1.073 1.74,1.411 0.713,0.338 1.592,0.504 2.632,0.504 m 0,-1.14 c -0.922,0 -1.683,-0.206 -2.287,-0.616 -0.603,-0.413 -1.044,-1.017 -1.324,-1.812 -0.284,-0.795 -0.424,-1.753 -0.424,-2.87 0,-1.709 0.333,-3.02 0.992,-3.926 0.661,-0.911 1.675,-1.364 3.043,-1.364 1.369,0 2.383,0.453 3.043,1.364 0.66,0.906 0.993,2.217 0.993,3.926 0,1.117 -0.141,2.075 -0.425,2.87 -0.28,0.795 -0.721,1.399 -1.325,1.812 -0.603,0.41 -1.363,0.616 -2.286,0.616 m -7.966,0.978 -1.599,-0.318 c -0.42,1.299 -1.014,2.293 -1.788,2.981 -0.774,0.687 -1.719,1.029 -2.838,1.029 -1.185,0 -2.19,-0.326 -3.008,-0.982 -0.821,-0.655 -1.425,-1.55 -1.814,-2.686 -0.389,-1.137 -0.581,-2.433 -0.581,-3.892 0,-1.076 0.109,-2.066 0.328,-2.972 0.214,-0.902 0.559,-1.701 1.023,-2.401 0.463,-0.695 1.049,-1.232 1.749,-1.609 0.699,-0.378 1.53,-0.565 2.496,-0.565 1.39,0 2.444,0.374 3.156,1.117 0.713,0.743 1.25,1.773 1.609,3.08 l 1.626,-0.266 c -0.231,-1.041 -0.603,-1.955 -1.123,-2.746 -0.516,-0.787 -1.207,-1.399 -2.082,-1.829 -0.869,-0.433 -1.94,-0.647 -3.213,-0.647 -1.136,0 -2.155,0.206 -3.06,0.624 -0.905,0.413 -1.679,1.021 -2.312,1.816 -0.639,0.795 -1.115,1.729 -1.443,2.794 -0.324,1.069 -0.486,2.269 -0.486,3.604 0,1.336 0.162,2.54 0.486,3.617 0.328,1.073 0.804,2.007 1.443,2.802 0.633,0.791 1.407,1.395 2.312,1.808 0.905,0.418 1.924,0.624 3.06,0.624 1.605,0 2.908,-0.449 3.9,-1.351 0.997,-0.898 1.714,-2.11 2.159,-3.632 m -32.494,-5.171 h 7.917 c -0.162,1.327 -0.569,2.357 -1.212,3.088 -0.646,0.727 -1.551,1.097 -2.723,1.105 -0.861,0 -1.591,-0.223 -2.19,-0.672 -0.599,-0.445 -1.041,-0.989 -1.334,-1.629 -0.288,-0.64 -0.441,-1.272 -0.458,-1.892 m 9.49,-1.141 h -9.49 c 0,-1.526 0.367,-2.782 1.097,-3.771 0.73,-0.99 1.823,-1.483 3.283,-1.483 0.599,0 1.106,0.076 1.53,0.223 0.424,0.147 0.822,0.401 1.198,0.763 0.376,0.362 0.795,0.87 1.255,1.526 l 1.28,-0.62 c -0.376,-0.576 -0.747,-1.053 -1.119,-1.431 -0.371,-0.373 -0.76,-0.679 -1.167,-0.914 -0.407,-0.234 -0.87,-0.405 -1.39,-0.516 -0.52,-0.116 -1.097,-0.171 -1.731,-0.171 -1.819,0 -3.24,0.54 -4.272,1.617 -1.027,1.081 -1.543,2.683 -1.543,4.813 0,1.248 0.228,2.365 0.678,3.351 0.454,0.989 1.106,1.748 1.963,2.285 0.852,0.537 1.844,0.802 2.972,0.802 1.203,0 2.213,-0.265 3.03,-0.802 0.813,-0.533 1.421,-1.288 1.823,-2.262 0.402,-0.969 0.603,-2.106 0.603,-3.41 m -16.009,-2.992 v 6.112 c -0.188,0.287 -0.494,0.608 -0.918,0.954 -0.42,0.35 -0.896,0.648 -1.426,0.894 -0.528,0.243 -1.035,0.366 -1.512,0.366 -1.381,0 -2.431,-0.497 -3.143,-1.49 -0.713,-0.994 -1.072,-2.325 -1.072,-3.994 0,-1.499 0.337,-2.727 1.01,-3.677 0.678,-0.95 1.666,-1.427 2.973,-1.427 0.896,0 1.666,0.199 2.3,0.593 0.638,0.397 1.233,0.953 1.788,1.669 m 1.578,14.053 V -2.957 h -1.102 l -0.257,1.618 c -0.495,-0.628 -1.111,-1.097 -1.841,-1.399 -0.73,-0.302 -1.578,-0.453 -2.544,-0.453 -1.767,0 -3.122,0.56 -4.066,1.677 -0.944,1.117 -1.416,2.73 -1.416,4.832 0,0.903 0.131,1.745 0.397,2.528 0.263,0.783 0.634,1.459 1.106,2.027 0.477,0.565 1.04,1.01 1.701,1.328 0.656,0.318 1.382,0.476 2.177,0.476 0.896,0 1.657,-0.138 2.282,-0.417 0.621,-0.282 1.285,-0.759 1.985,-1.434 v 6.438 z"
         style="fill:#1d1d1b;fill-opacity:1;fill-rule:evenodd;stroke:none"
         id="path136" />
    </g>
    <g
       id="g138"
       transform="matrix(0.35277777,0,0,-0.35277777,130.24183,101.44216)">
      <path
         d="M 0,0 H -42.227 V -65.263 H 0 c -17.519,1.056 -34.387,15.389 -32.503,35.959 C -29.809,-12.468 -17.508,0 0,0"
         style="fill:#e23511;fill-opacity:1;fill-rule:evenodd;stroke:none"
         id="path140" />
    </g>
    <g
       id="g142"
       transform="matrix(0.35277777,0,0,-0.35277777,123.78684,111.41875)">
      <path
         d="m 0,0 c 0.232,-2.154 0.337,-3.618 0.639,-6.27 l 1.413,1.278 C 0.994,-0.973 2.564,5.561 -4.353,6.654 V 18.043 C -2.237,17.852 0,16.457 0,14.076 V 4.478 L 3.583,4.351 c 1.018,2.379 3.155,3.856 5.503,4.863 2.042,-1.022 3.589,0.013 4.478,1.791 -0.402,0.571 -1.245,1.169 -2.047,1.151 v 4.119 c 0.419,1.154 1.213,1.499 1.919,1.639 h 7.037 v 2.433 L 26.36,15.1 v -1.663 c 2.729,4.211 4.619,4.958 7.518,5.298 5.616,-0.164 6.539,-7.007 2.782,-9.474 -3.183,-1.673 -7.928,0.412 -6.973,5.198 -3.388,-3.391 -2.945,-8.346 1.213,-10.426 2.539,-1.242 8.146,-1.529 10.728,-6.14 1.128,-2.973 0.789,-6.32 -2.6,-10.05 -0.16,-1.58 -0.716,-2.508 -1.79,-3.583 4.024,-3.841 6.27,-7.502 6.27,-13.436 H 28.793 c -0.48,4.342 -3.435,7.133 -7.295,7.294 1.524,-2.007 2.25,-2.924 2.432,-7.294 H 10.492 c 2.795,3.962 -1.322,9.758 -5.167,9.597 0.584,2.958 1.688,4.333 4.017,5.886 -1.775,1.42 -3.049,2.69 -4.479,4.479 L -4.384,-18.38 -4.353,5.119 C -1.548,4.419 0,2.908 0,0 m 18.59,16.123 c 0.45,0 0.958,-0.526 0.958,-0.977 0,-0.45 -0.496,-0.997 -0.962,-0.997 -0.466,0 -0.928,0.559 -0.928,1.01 0,0.45 0.481,0.964 0.932,0.964 M 29.559,-12.03 c 0.745,5.217 6.158,6.336 8.958,2.177 2.404,3.205 2.486,5.824 0.574,8.379 -3.01,3.557 -8.971,1.438 -12.731,7.361 0,-5.507 -2.089,-7.967 -6.142,-11.006 0.784,-4.705 4.702,-6.911 9.341,-6.911"
         style="fill:#c8a100;fill-opacity:1;fill-rule:evenodd;stroke:none"
         id="path144" />
    </g>
  </g>
</svg>
