<?xml version="1.0" encoding="UTF-8" standalone="no"?>
<svg
   xmlns:dc="http://purl.org/dc/elements/1.1/"
   xmlns:cc="http://creativecommons.org/ns#"
   xmlns:rdf="http://www.w3.org/1999/02/22-rdf-syntax-ns#"
   xmlns:svg="http://www.w3.org/2000/svg"
   xmlns="http://www.w3.org/2000/svg"
   xmlns:sodipodi="http://sodipodi.sourceforge.net/DTD/sodipodi-0.dtd"
   xmlns:inkscape="http://www.inkscape.org/namespaces/inkscape"
   inkscape:version="1.0.1 (3bc2e813f5, 2020-09-07)"
   sodipodi:docname="logo-completo-5-tintas.svg"
   viewBox="0 0 245.67 246.24001"
   height="246.24001"
   width="245.67"
   xml:space="preserve"
   id="svg2"
   version="1.1"><metadata
     id="metadata8"><rdf:RDF><cc:Work
         rdf:about=""><dc:format>image/svg+xml</dc:format><dc:type
           rdf:resource="http://purl.org/dc/dcmitype/StillImage" /><dc:title></dc:title></cc:Work></rdf:RDF></metadata><defs
     id="defs6"><clipPath
       id="clipPath22"
       clipPathUnits="userSpaceOnUse"><path
         id="path20"
         d="M 0,172.918 H 257.948 V 0 H 0 Z" /></clipPath><clipPath
       id="clipPath432"
       clipPathUnits="userSpaceOnUse"><path
         id="path430"
         d="M 195.254,51.92 V 35.926 l 9.944,-5.162 9.964,5.078 V 51.92 l -9.955,5.261 z" /></clipPath><clipPath
       id="clipPath448"
       clipPathUnits="userSpaceOnUse"><path
         id="path446"
         d="M 0,172.918 H 257.948 V 0 H 0 Z" /></clipPath><clipPath
       id="clipPath460"
       clipPathUnits="userSpaceOnUse"><path
         id="path458"
         d="m 196.577,46.398 c 0,-4.778 3.865,-8.653 8.631,-8.653 v 0 c 4.767,0 8.632,3.875 8.632,8.653 v 0 c 0,4.779 -3.865,8.653 -8.632,8.653 v 0 c -4.766,0 -8.631,-3.874 -8.631,-8.653" /></clipPath><clipPath
       id="clipPath516"
       clipPathUnits="userSpaceOnUse"><path
         id="path514"
         d="M 0,172.918 H 257.948 V 0 H 0 Z" /></clipPath><clipPath
       id="clipPath528"
       clipPathUnits="userSpaceOnUse"><path
         id="path526"
         d="m 198.291,44.388 c 0,-3.832 3.097,-6.939 6.917,-6.939 v 0 c 3.821,0 6.918,3.107 6.918,6.939 v 0 c 0,3.833 -3.097,6.939 -6.918,6.939 v 0 c -3.82,0 -6.917,-3.106 -6.917,-6.939" /></clipPath><clipPath
       id="clipPath584"
       clipPathUnits="userSpaceOnUse"><path
         id="path582"
         d="M 0,172.918 H 257.948 V 0 H 0 Z" /></clipPath><clipPath
       id="clipPath596"
       clipPathUnits="userSpaceOnUse"><path
         id="path594"
         d="m 199.157,43.479 c 0,-3.331 2.709,-6.03 6.051,-6.03 v 0 c 3.342,0 6.051,2.699 6.051,6.03 v 0 c 0,3.33 -2.709,6.029 -6.051,6.029 v 0 c -3.342,0 -6.051,-2.699 -6.051,-6.029" /></clipPath><clipPath
       id="clipPath652"
       clipPathUnits="userSpaceOnUse"><path
         id="path650"
         d="M 0,172.918 H 257.948 V 0 H 0 Z" /></clipPath><clipPath
       id="clipPath664"
       clipPathUnits="userSpaceOnUse"><path
         id="path662"
         d="m 200.66,42.04 c 0,-2.606 2.036,-4.718 4.548,-4.718 v 0 c 2.513,0 4.549,2.112 4.549,4.718 v 0 c 0,2.605 -2.036,4.718 -4.549,4.718 v 0 c -2.512,0 -4.548,-2.113 -4.548,-4.718" /></clipPath><clipPath
       id="clipPath720"
       clipPathUnits="userSpaceOnUse"><path
         id="path718"
         d="M 0,172.918 H 257.948 V 0 H 0 Z" /></clipPath></defs><sodipodi:namedview
     inkscape:current-layer="g10"
     inkscape:window-maximized="1"
     inkscape:window-y="48"
     inkscape:window-x="0"
     inkscape:cy="131.37835"
     inkscape:cx="175.47265"
     inkscape:zoom="2"
     showgrid="false"
     id="namedview4"
     inkscape:window-height="1355"
     inkscape:window-width="2560"
     inkscape:pageshadow="2"
     inkscape:pageopacity="0"
     guidetolerance="10"
     gridtolerance="10"
     objecttolerance="10"
     borderopacity="1"
     bordercolor="#666666"
     pagecolor="#ffffff"
     inkscape:document-rotation="0" /><g
     transform="matrix(1.3333333,0,0,-1.3333333,0,230.55733)"
     inkscape:label="logo-epsc"
     id="g10"
     inkscape:groupmode="layer"><g
       transform="translate(-27.36512,5.8929224)"
       id="g1071"><path
         id="path294-4-7"
         style="fill:#455ba6;fill-opacity:1;fill-rule:nonzero;stroke:none;stroke-width:0.99999"
         d="m 200.82508,83.454342 c -2.16097,0 -4.09352,-0.68446 -5.66748,-1.89844 v 10e-4 c -2.612,-2.01397 -4.23397,-5.48738 -4.27296,-9.716306 0,-0.05187 -0.003,-0.103117 -0.003,-0.155272 0,-4.20609 1.59885,-7.616273 4.23486,-9.628418 v -0.0015 c 0,0 0.001,0 0.001,0 1.66283,-1.26756 3.73595,-1.981935 6.0835,-1.981935 2.27395,0 4.14614,0.469515 5.68213,1.375485 2.26995,1.338983 3.79539,3.64215 4.73437,6.870121 h -4.56298 c -0.47199,-1.32198 -0.91226,-2.015318 -1.38428,-2.550293 -0.26477,-0.296723 -0.54895,-0.556853 -0.84961,-0.78369 -0.90875,-0.683505 -1.97317,-1.04004 -3.17871,-1.04004 -1.78598,0 -3.23172,0.722347 -4.24072,2.02734 -1.03598,1.338983 -1.61133,3.289928 -1.61133,5.712893 0,0.05301 0.003,0.10227 0.003,0.155272 0.0227,2.526944 0.59478,4.500223 1.63477,5.824213 2.3e-4,3e-4 -2.2e-4,0.001 0,0.001 0.97892,1.24492 2.37041,1.91748 4.12061,1.91748 1.165,0 2.26422,-0.35813 3.19922,-1.01514 v 0.001 c 0.37798,-0.26589 0.73183,-0.57549 1.04883,-0.9375 0.535,-0.62897 0.88152,-1.16387 1.35351,-2.422852 h 3.99463 v 3.062982 l -2.69092,4.61426 h -1.17773 v -2.54883 c -0.25795,0.32901 -0.54516,0.68804 -0.88917,1.04004 -1.038,1.06397 -2.60802,2.07569 -5.562,2.07569 z m 7.63037,-0.5669 2.69092,-4.61426 v 4.61426 z" /><path
         d="m 201.6439,63.945429 c -1.78598,0 -3.23296,0.722996 -4.24197,2.027993 l -2.28396,-3.916949 c 1.66298,-1.268008 3.73695,-1.981987 6.08495,-1.981987 2.27395,0 4.14593,0.470004 5.68192,1.375974 l -2.06198,3.53496 c -0.90897,-0.683994 -1.97298,-1.039991 -3.17896,-1.039991"
         style="fill:#6270b4;fill-opacity:1;fill-rule:nonzero;stroke:none;stroke-width:0.999987"
         id="path294-6-1" /><path
         d="m 211.14691,82.888317 h -2.69099 l 2.69099,-4.614947 z"
         style="fill:#a4a8d5;fill-opacity:1;fill-rule:nonzero;stroke:none;stroke-width:0.999987"
         id="path298-6-2" /><path
         d="m 207.05684,68.319379 c -0.47199,-1.321978 -0.91297,-2.013993 -1.38499,-2.548968 -0.26503,-0.297013 -0.54799,-0.557993 -0.84899,-0.784991 l 2.06201,-3.534957 c 2.26995,1.338984 3.79594,3.640943 4.73493,6.868916 z"
         style="fill:#7e87c2;fill-opacity:1;fill-rule:nonzero;stroke:none;stroke-width:0.999987"
         id="path306-3-7" /><path
         d="m 205.79745,77.633257 c 0.53501,-0.628969 0.881,-1.163977 1.35299,-2.422967 h 3.99596 v 3.062967 l -2.69099,4.614947 h -1.17897 v -2.548969 c -0.25795,0.329013 -0.54498,0.687987 -0.88899,1.039989 l -1.639,-2.808955 c 0.37799,-0.265889 0.73201,-0.575003 1.049,-0.937012"
         style="fill:#7e87c2;fill-opacity:1;fill-rule:nonzero;stroke:none;stroke-width:0.999987"
         id="path310-3-0" /><path
         d="m 190.88471,71.840844 h 4.90997 c 0.0227,2.526943 0.59297,4.500937 1.63296,5.824928 l -2.26996,3.890929 c -2.61199,-2.013961 -4.23397,-5.486927 -4.27297,-9.715857"
         style="fill:#2f2873;fill-opacity:1;fill-rule:nonzero;stroke:none;stroke-width:0.999987"
         id="path354-5-9" /></g><g
       id="g134"
       transform="matrix(2.8346458,0,0,-2.8346458,-92.348237,279.92547)"><path
         transform="scale(0.26458333)"
         d="m 323.82422,254.35547 c -5.16001,0 -9.39844,3.86023 -9.39844,8.60156 0,2.09733 0.75694,4.06911 2.09961,5.53711 0.20534,0.22534 0.41619,0.42581 0.63086,0.61914 l 0.002,-0.002 c 0.188,0.17068 0.38151,0.32855 0.57618,0.47656 2.15997,1.62533 4.71756,1.95402 7.60156,2.30469 3.49733,0.44266 6.56317,0.81478 6.8125,3.68945 l 3.49609,-5.99414 -3.49414,5.99414 c 0.0106,0.12533 0.0234,0.24618 0.0234,0.38086 0,1.36133 -0.79223,2.48564 -2.10156,3.18164 v -0.002 c -0.91067,0.484 -2.0692,0.76367 -3.39454,0.76367 -1.84533,0 -3.36636,-0.48439 -4.5957,-1.40039 -1.20268,-0.896 -2.12506,-2.20672 -2.78906,-3.88672 h -4.86719 v 9.81836 h 4.9082 v -3.35547 c 1.11179,1.14645 3.03648,3.12053 6.44727,3.76758 v 0.002 c 0.28532,0.0533 0.57943,0.0975 0.88477,0.13086 0.456,0.0507 0.93083,0.084 1.4375,0.084 5.62268,0 10.02929,-4.23676 10.02929,-9.60743 0,-0.57733 -0.0667,-1.27658 -0.24804,-2.03125 -0.29466,-1.22266 -0.89975,-2.59317 -2.06641,-3.83984 -0.0333,-0.0374 -0.0734,-0.0734 -0.10938,-0.10937 -0.0973,-0.10133 -0.19676,-0.20019 -0.30078,-0.29883 -0.54799,-0.51601 -1.19923,-1.00274 -1.97656,-1.44141 -1.76267,-0.96533 -3.77515,-1.46703 -7.17383,-1.8457 -3.83866,-0.38 -5.45106,-0.93291 -5.90039,-2.26758 -0.096,-0.28399 -0.14062,-0.60156 -0.14062,-0.96289 0,-1.328 1.0151,-2.49899 2.50976,-3.09766 v -0.002 h 0.002 c 0.67559,-0.27023 1.44754,-0.42383 2.26953,-0.42383 4.53201,-0.0427 6.12811,2.85196 7.05078,4.5293 h 0.14258 l 0.002,0.002 h 4.42773 v -8.8125 h -4.69921 v 3.14844 c -0.932,-1.056 -2.34906,-2.54795 -4.92774,-3.25195 -0.40533,-0.11067 -0.8413,-0.19896 -1.30664,-0.26563 v -0.002 c -0.57334,-0.0827 -1.18995,-0.13086 -1.86328,-0.13086 z"
         style="fill:#6270b4;fill-opacity:1;fill-rule:nonzero;stroke:none;stroke-width:1.33333"
         id="path254-1" /><path
         id="path274-6"
         style="fill:#45bcc9;fill-opacity:1;fill-rule:nonzero;stroke:none;stroke-width:0.352777"
         d="m 84.479518,72.660059 h -1.28764 v 2.597502 h 1.29857 V 74.36962 c 0.29422,0.303389 0.80293,0.826205 1.70569,0.997303 l -0.97896,-1.678517 c -0.31821,-0.237067 -0.56198,-0.583847 -0.73766,-1.028347" /><path
         id="path350-7"
         style="fill:#2f2873;fill-opacity:1;fill-rule:nonzero;stroke:none;stroke-width:0.352777"
         d="m 89.39888,72.344114 c -0.078,-0.323497 -0.23777,-0.686152 -0.54645,-1.016 h -0.0462 v 0 0 L 87.8816,72.91385 c 0.003,0.03316 0.006,0.06526 0.006,0.100895 0,0.360186 -0.20955,0.657578 -0.55598,0.841728 l -0.90099,1.544814 c 0.12065,0.01341 0.24624,0.02223 0.38029,0.02223 1.48767,0 2.65325,-1.121128 2.65325,-2.542117 0,-0.152753 -0.0176,-0.337608 -0.0656,-0.537281 z" /><path
         id="path266-5"
         style="fill:#45bcc9;fill-opacity:1;fill-rule:nonzero;stroke:none;stroke-width:0.352777"
         d="m 88.822427,71.2999 v 0 c -0.0258,-0.02681 -0.0522,-0.05292 -0.0797,-0.07902 v 0 c -0.14499,-0.136525 -0.31679,-0.265289 -0.52246,-0.381353 -0.46637,-0.255411 -0.99907,-0.388409 -1.8983,-0.488597 -1.01565,-0.100542 -1.44216,-0.246945 -1.56105,-0.600075 l -0.84666,1.452033 c 0.0497,0.04515 0.10089,0.08678 0.1524,0.125942 h 4.73887 0.0459 c -0.009,-0.0099 -0.0194,-0.0194 -0.0289,-0.02893" /><path
         id="path286-3"
         style="fill:#009e92;fill-opacity:1;fill-rule:nonzero;stroke:none;stroke-width:0.352777"
         d="m 85.678147,67.298344 c -1.36526,0 -2.48674,1.021291 -2.48674,2.275769 0,0.55492 0.20003,1.076678 0.55527,1.465086 0.0543,0.05962 0.11042,0.112889 0.16722,0.164042 l 0.84702,-1.452386 c -0.0254,-0.07514 -0.0374,-0.159103 -0.0374,-0.254706 0,-0.351366 0.26847,-0.661105 0.66394,-0.819502 l 0.78352,-1.343378 c -0.1517,-0.02187 -0.31468,-0.03493 -0.49283,-0.03493" /><path
         id="path278-5"
         style="fill:#45bcc9;fill-opacity:1;fill-rule:nonzero;stroke:none;stroke-width:0.352777"
         d="m 86.170977,67.333269 -0.78316,1.343025 c 0.17886,-0.07161 0.38347,-0.112536 0.60113,-0.112536 1.1991,-0.01129 1.62102,0.754945 1.86514,1.198739 h 0.0384 l -1.37583,-2.358672 c -0.10725,-0.02928 -0.22261,-0.05292 -0.34573,-0.07056" /></g><g
       transform="matrix(2.8346458,0,0,-2.8346458,-286.76865,395.96791)"
       id="g5359"><path
         transform="scale(0.26458333)"
         d="m 574.11328,376.63867 v 4.82617 h 2.34961 v 10.0586 0.61328 0.61133 0.002 8.64258 h -2.39062 v 4.82617 h 10.24609 2.33984 10.69922 v -9.77734 h -4.69726 -0.54688 v 0.93945 4.01172 h -2.64062 -6.9668 v -8.01367 h 9.27148 v -1.24219 -3.58203 h -9.27343 v -7.08985 h 6.14257 3.17383 v 4.44727 h 4.94922 v -9.27344 h -10.9375 -0.6875 z"
         style="fill:#6270b4;fill-opacity:1;fill-rule:nonzero;stroke:none;stroke-width:1.33333"
         id="path242-2" /><path
         id="path334-6"
         style="fill:#2f2873;fill-opacity:1;fill-rule:nonzero;stroke:none;stroke-width:0.352777"
         d="m 156.5854,100.92902 v 1.17687 h 1.30987 v -2.453576 h -2.8942 l 0.74472,1.276706 z" /><path
         d="m 151.90088,99.652536 v 1.276704 h 0.62159 v 2.6617 l 2.29694,-3.938404 z"
         style="fill:#455ba6;fill-opacity:1;fill-rule:nonzero;stroke:none;stroke-width:0.352777"
         id="path250-5-1" /><path
         d="m 152.52247,103.91473 v 2.28706 h -0.63288 v 1.2767 h 2.7111 z"
         style="fill:#009e92;fill-opacity:1;fill-rule:nonzero;stroke:none;stroke-width:0.352777"
         id="path282-3-0" /><path
         d="m 155.22025,107.4784 0.74471,-1.27671 h -1.84362 v -2.12019 h 2.45322 v -0.32879 h -4.05166 v 0.16193 l 2.07822,3.56376 z"
         style="fill:#45bcc9;fill-opacity:1;fill-rule:nonzero;stroke:none;stroke-width:0.352777"
         id="path270-0-3" /></g><g
       transform="translate(-48.83627,-54.54613)"
       id="g4623"><path
         id="path290-2"
         style="fill:#6270b4;fill-opacity:1;fill-rule:nonzero;stroke:none;stroke-width:0.999998"
         d="m 212.35104,168.03493 v -3.61963 h 0.53759 1.25537 v -8.00537 h 0.001 v -6.94189 h -1.76368 v -0.19483 l 0.001,-0.003 v -3.42041 h 1.99365 l 0.001,-0.002 h 1.75635 v 0.002 h 0.002 4.27149 v 3.61816 h -1.73145 v 0.73975 3.82324 h 2.2295 1.82959 c 0.31299,0 0.61653,0.0203 0.91552,0.0513 1.956,0.2 3.59207,1.03564 4.70508,2.32764 1.007,1.169 1.58496,2.70849 1.58496,4.47949 0,2.14617 -0.73241,3.94619 -1.99951,5.20312 l -10e-4,0.001 c -1.24092,1.2291 -2.99343,1.94092 -5.07861,1.94092 h -7.34619 -0.001 -0.51562 z m 6.32519,-3.61963 h 2.83154 c 2.144,0 3.57561,-1.03851 3.84961,-2.74951 -1.81061,-0.75576 -1.80758,-0.75445 0.001,0 0.032,-0.198 0.0513,-0.40316 0.0513,-0.61816 0,-1.46754 -0.87516,-2.63238 -2.23243,-3.11866 -0.44666,-0.1597 -0.94447,-0.24755 -1.48095,-0.24755 h -0.14356 -0.001 -2.87549 v 4.93066 z"
         sodipodi:nodetypes="ccccccccccccccccccccccscssssscccccsccscsccccc" /><path
         d="m 212.88904,164.41593 h 1.256 v -8.005 h 8.14902 l -0.741,1.271 h -2.87701 v 4.931 l -3.161,5.422 h -0.51601 v 0 h -2.648 v -3.619 z"
         style="fill:#2f2873;fill-opacity:1;fill-rule:nonzero;stroke:none;stroke-width:0.999998"
         id="path346-9" /><path
         d="m 218.67581,150.2068 -2.542,-4.359 h 4.273 v 3.619 h -1.731 z"
         style="fill:#2f2873;fill-opacity:1;fill-rule:nonzero;stroke:none;stroke-width:0.999998"
         id="path338-7" /><path
         d="m 212.38232,145.8478 h 1.997 l -1.997,3.424 z"
         style="fill:#2f2873;fill-opacity:1;fill-rule:nonzero;stroke:none;stroke-width:0.999998"
         id="path342-3" /><path
         d="m 229.94189,160.89079 c 0,2.147 -0.733,3.946 -2.001,5.203 l -2.58201,-4.428 c 0.032,-0.198 0.052,-0.403 0.052,-0.618 0,-1.468 -0.874,-2.633 -2.232,-3.119 l -0.885,-1.518 h 6.06201 c 1.007,1.169 1.586,2.709 1.586,4.48"
         style="fill:#7e87c2;fill-opacity:1;fill-rule:nonzero;stroke:none;stroke-width:0.999998"
         id="path302-6" /><path
         d="m 222.73588,154.0318 c 0.313,0 0.617,0.02 0.916,0.051 l -1.358,2.32799 -1.38801,-2.37899 z"
         style="fill:#455ba6;fill-opacity:1;fill-rule:nonzero;stroke:none;stroke-width:0.999998"
         id="path314-1" /><path
         d="m 218.67623,164.4153 h 2.83201 c 2.144,0 3.576,-1.039 3.85,-2.75 l 2.58301,4.428 c -1.24101,1.23 -2.99401,1.941 -5.08001,1.941 h -7.34701 l 3.162,-5.422 z"
         style="fill:#455ba6;fill-opacity:1;fill-rule:nonzero;stroke:none;stroke-width:0.999998"
         id="path318-2" /></g><g
       transform="matrix(1.0000017,0,0,1,2.6206044,103.7851)"
       id="g12"><path
         id="path14"
         style="fill:#455ba6;fill-opacity:1;fill-rule:nonzero;stroke:none"
         d="M 0,0 H 5.848 V -2.393 H 4.57 v 1.148 H 2.166 V -3.076 H 4.559 V -4.321 H 2.166 V -6.39 h 2.48 v 1.278 H 6 v -2.523 h -6.011 v 1.245 h 0.617 v 5.145 H 0 Z" /></g><path
       d="m 10.688518,98.684304 c 0.347,-0.877 0.964001,-1.365 1.906003,-1.365 0.834001,0 1.419002,0.423 1.419002,1.018 0,0.834 -0.823001,0.932 -1.766003,1.051 -0.888001,0.108 -1.656002,0.206 -2.2740034,0.876996 -0.3460006,0.379 -0.5410009,0.888 -0.5410009,1.43 0,1.223 1.0940023,2.22 2.4260043,2.22 1.213002,0 1.765003,-0.574 2.090003,-0.942 v 0.812 h 1.213002 v -2.274 h -1.181002 c -0.238,0.433 -0.650001,1.18 -1.819003,1.169 -0.682001,0 -1.235002,-0.411 -1.235002,-0.91 0,-0.53 0.358001,-0.714 1.560003,-0.833 0.877001,-0.098 1.397002,-0.228 1.852003,-0.477 1.018002,-0.573996 1.213002,-1.472996 1.213002,-1.992996 0,-1.386 -1.138002,-2.48 -2.589004,-2.48 -1.267003,0 -1.917004,0.672 -2.263004,1.029 v -0.866 H 9.4325157 v 2.534 z"
       style="fill:#455ba6;fill-opacity:1;fill-rule:nonzero;stroke:none"
       id="path26" /><path
       d="m 23.359239,98.770904 c -0.541001,-1.863 -1.646003,-2.837 -3.585006,-2.837 -2.090004,0 -3.552006,1.635 -3.552006,3.996 0,2.360996 1.430002,4.049996 3.422006,4.049996 1.354002,0 1.863003,-0.617 2.221003,-1.072 v 0.877 h 1.332003 v -2.642 h -1.376003 c -0.162,0.433 -0.281,0.617 -0.465,0.834 -0.380001,0.433 -0.899002,0.671 -1.462003,0.671 -1.257002,0 -1.982003,-0.996 -1.982003,-2.717996 0,-1.646 0.769001,-2.664 2.014003,-2.664 0.552001,0 1.018002,0.216 1.386002,0.628 0.163001,0.184 0.314001,0.422 0.477001,0.877 z"
       style="fill:#455ba6;fill-opacity:1;fill-rule:nonzero;stroke:none"
       id="path30" /><path
       d="m 23.96544,103.7851 h 2.772004 v -1.245 h -0.606001 v -3.562996 c 0,-1.051 0.650002,-1.679 1.603003,-1.679 1.029002,0 1.657003,0.628 1.657003,1.679 v 3.562996 h -0.596001 v 1.245 h 2.751004 v -1.245 h -0.596 v -3.617996 c 0,-1.754 -1.289003,-2.989 -3.130006,-2.989 -1.981003,0 -3.249005,1.213 -3.249005,3.109 V 102.5401 H 23.96544 Z"
       style="fill:#455ba6;fill-opacity:1;fill-rule:nonzero;stroke:none"
       id="path34" /><path
       d="m 32.174154,103.7851 h 5.848009 v -2.393 h -1.278002 v 1.148 h -2.404004 v -1.831 h 2.393004 v -1.244996 h -2.393004 v -2.069 h 2.480004 v 1.278 h 1.354003 v -2.523 h -6.01101 v 1.245 h 0.617001 v 5.144996 h -0.606001 z"
       style="fill:#455ba6;fill-opacity:1;fill-rule:nonzero;stroke:none"
       id="path38" /><path
       d="m 38.942665,103.7851 h 2.751004 v -1.245 h -0.596001 v -5.144996 h 2.090004 v 1.268 h 1.354002 v -2.513 h -5.610009 v 1.245 h 0.607001 v 5.144996 h -0.596001 z"
       style="fill:#455ba6;fill-opacity:1;fill-rule:nonzero;stroke:none"
       id="path42" /><path
       d="M 48.927481,102.3555 47.90948,98.976504 h 2.014003 z m -0.921001,1.43 h 1.831003 l 2.101003,-6.389996 h 0.574001 v -1.245 h -1.755003 l -0.498,1.657 h -2.686005 l -0.498001,-1.657 h -1.776003 v 1.245 h 0.585001 z"
       style="fill:#455ba6;fill-opacity:1;fill-rule:nonzero;stroke:none"
       id="path46" /><path
       d="m 58.348997,102.5396 v -2.318 h 1.040002 c 0.747001,0 1.278002,0.488 1.278002,1.159 0,0.715 -0.520001,1.159 -1.343002,1.159 z m -2.177004,1.245 h 3.617006 c 1.452003,0 2.437005,-0.996 2.437005,-2.458 0,-1.385996 -1.029002,-2.360996 -2.480005,-2.360996 h -1.397002 v -1.57 h 0.596001 v -1.245 h -2.762005 v 1.245 h 0.607002 v 5.143996 h -0.618002 z"
       style="fill:#455ba6;fill-opacity:1;fill-rule:nonzero;stroke:none"
       id="path50" /><path
       d="m 64.608406,100.0705 c 0,-1.104996 0.217,-1.818996 0.682001,-2.273996 0.347,-0.347 0.823001,-0.531 1.321002,-0.531 0.499001,0 0.921001,0.217 1.246002,0.531 0.476001,0.455 0.693001,1.169 0.693001,2.273996 0,1.614 -0.682001,2.567 -1.939003,2.567 -1.256002,0 -2.003003,-0.953 -2.003003,-2.567 m 5.631009,-0.118996 c 0,-2.437 -1.451003,-4.018 -3.692006,-4.018 -2.156004,0 -3.628004,1.657 -3.628004,4.093996 0,2.09 1.364,3.953 3.649004,3.953 2.567004,0 3.671006,-2.026 3.671006,-4.028996"
       style="fill:#455ba6;fill-opacity:1;fill-rule:nonzero;stroke:none"
       id="path54" /><path
       d="m 70.943616,103.7851 h 2.751005 v -1.245 H 73.09862 v -5.144996 h 2.090003 v 1.268 h 1.354002 v -2.513 h -5.610009 v 1.245 h 0.607001 v 5.144996 h -0.596001 z"
       style="fill:#455ba6;fill-opacity:1;fill-rule:nonzero;stroke:none"
       id="path58" /><path
       d="m 77.278727,103.7851 h 2.751004 v -1.245 H 79.44473 v -5.144996 h 0.596001 v -1.245 h -2.773004 v 1.245 h 0.617001 v 5.144996 h -0.606001 z"
       style="fill:#455ba6;fill-opacity:1;fill-rule:nonzero;stroke:none"
       id="path62" /><path
       d="m 80.679032,103.7851 h 6.09701 v -2.989 H 85.50904 v 1.744 h -0.996001 v -5.144996 h 0.704001 v -1.245 h -2.968005 v 1.245 h 0.693001 v 5.144996 h -0.996002 v -1.744 h -1.267002 z"
       style="fill:#455ba6;fill-opacity:1;fill-rule:nonzero;stroke:none"
       id="path66" /><path
       d="m 90.382348,106.0051 h 1.841003 l -1.700002,-1.581 h -1.029002 z m -2.967005,-2.22 h 5.84801 v -2.393 h -1.278002 v 1.148 h -2.404004 v -1.831 h 2.393004 v -1.244996 h -2.393004 v -2.069 h 2.480004 v 1.278 h 1.353002 v -2.523 h -6.01001 v 1.245 h 0.617001 v 5.144996 h -0.606001 z"
       style="fill:#455ba6;fill-opacity:1;fill-rule:nonzero;stroke:none"
       id="path70" /><path
       d="m 101.38527,98.770904 c -0.542,-1.863 -1.646006,-2.837 -3.585009,-2.837 -2.090004,0 -3.552006,1.635 -3.552006,3.996 0,2.360996 1.430002,4.049996 3.422006,4.049996 1.354002,0 1.863003,-0.617 2.220003,-1.072 v 0.877 h 1.332006 v -2.642 h -1.375006 c -0.162,0.433 -0.281,0.617 -0.466001,0.834 -0.379,0.433 -0.898001,0.671 -1.461002,0.671 -1.257002,0 -1.982003,-0.996 -1.982003,-2.717996 0,-1.646 0.769001,-2.664 2.014003,-2.664 0.552001,0 1.018002,0.216 1.386002,0.628 0.162001,0.184 0.314001,0.422 0.477001,0.877 z"
       style="fill:#455ba6;fill-opacity:1;fill-rule:nonzero;stroke:none"
       id="path74" /><path
       d="m 107.29798,103.7851 h 2.621 v -1.245 h -0.607 v -6.389996 h -2.101 l -3.20501,5.782996 v -4.537996 h 0.596 v -1.245 h -2.6 v 1.245 h 0.618 v 5.144996 h -0.607 v 1.245 h 2.643 l 3.27001,-5.912996 v 4.667996 h -0.628 z"
       style="fill:#455ba6;fill-opacity:1;fill-rule:nonzero;stroke:none"
       id="path78" /><path
       d="m 110.56828,103.7851 h 2.75101 v -1.245 h -0.585 v -5.144996 h 0.596 v -1.245 h -2.77301 v 1.245 h 0.617 v 5.144996 h -0.606 z"
       style="fill:#455ba6;fill-opacity:1;fill-rule:nonzero;stroke:none"
       id="path82" /><path
       d="m 121.138,98.770904 c -0.542,-1.863 -1.646,-2.837 -3.58501,-2.837 -2.09,0 -3.552,1.635 -3.552,3.996 0,2.360996 1.43,4.049996 3.422,4.049996 1.35401,0 1.86301,-0.617 2.22001,-1.072 v 0.877 h 1.332 v -2.642 H 119.6 c -0.162,0.433 -0.281,0.617 -0.466,0.834 -0.379,0.433 -0.89801,0.671 -1.46101,0.671 -1.257,0 -1.982,-0.996 -1.982,-2.717996 0,-1.646 0.769,-2.664 2.014,-2.664 0.552,0 1.01801,0.216 1.38601,0.628 0.162,0.184 0.314,0.422 0.477,0.877 z"
       style="fill:#455ba6;fill-opacity:1;fill-rule:nonzero;stroke:none"
       id="path86" /><path
       d="m 125.17741,102.3555 -1.01801,-3.378996 h 2.01401 z m -0.92101,1.43 h 1.83101 l 2.1,-6.389996 h 0.574 v -1.245 h -1.754 l -0.498,1.657 h -2.68601 l -0.498,-1.657 h -1.776 v 1.245 h 0.585 z"
       style="fill:#455ba6;fill-opacity:1;fill-rule:nonzero;stroke:none"
       id="path90" /><path
       d="m 1.2560021,87.475604 c 0.3470006,-0.877 0.9640016,-1.365 1.9060032,-1.365 0.8340013,0 1.4190023,0.423 1.4190023,1.018 0,0.834 -0.8230013,0.932 -1.7660029,1.051 -0.8880015,0.108 -1.6560028,0.206 -2.2740038,0.877 C 0.19500032,89.435604 0,89.944604 0,90.486604 c 0,1.224 1.0940018,2.22 2.426004,2.22 1.2130021,0 1.765003,-0.574 2.0900035,-0.942 v 0.812 h 1.213002 v -2.274 H 4.5480076 c -0.2380004,0.433 -0.6500011,1.18 -1.8190031,1.169 -0.6820011,0 -1.235002,-0.411 -1.235002,-0.909 0,-0.531 0.3580006,-0.715 1.5600026,-0.834 0.8770014,-0.098 1.3970023,-0.228 1.8520031,-0.477 1.0180017,-0.574 1.213002,-1.473 1.213002,-1.993 0,-1.386 -1.1380019,-2.479 -2.5890043,-2.479 -1.2670021,0 -1.9170032,0.671 -2.2630038,1.028 v -0.866 H 0 v 2.534 z"
       style="fill:#455ba6;fill-opacity:1;fill-rule:nonzero;stroke:none"
       id="path94" /><path
       d="m 6.7465112,92.576504 h 2.7720046 v -1.245 h -0.606001 v -3.563 c 0,-1.051 0.6500011,-1.679 1.6030022,-1.679 1.029002,0 1.657003,0.628 1.657003,1.679 v 3.563 h -0.596001 v 1.245 h 2.751005 v -1.245 h -0.596001 v -3.618 c 0,-1.754 -1.289002,-2.989 -3.130005,-2.989 -1.9810037,0 -3.2490058,1.213 -3.2490058,3.108 v 3.499 h -0.606001 z"
       style="fill:#455ba6;fill-opacity:1;fill-rule:nonzero;stroke:none"
       id="path98" /><path
       d="m 17.142929,91.331104 v -2.318 h 1.040001 c 0.747002,0 1.278002,0.488 1.278002,1.159 0,0.715 -0.52,1.159 -1.343002,1.159 z m -2.177004,1.245 h 3.617006 c 1.452002,0 2.437004,-0.996 2.437004,-2.458 0,-1.386 -1.029002,-2.361 -2.480004,-2.361 h -1.397002 v -1.57 h 0.596001 v -1.246 h -2.762005 v 1.246 h 0.607001 v 5.144 h -0.618001 z"
       style="fill:#455ba6;fill-opacity:1;fill-rule:nonzero;stroke:none"
       id="path102" /><path
       d="m 21.615436,92.576504 h 5.84801 v -2.393 h -1.278002 v 1.148 H 23.78144 v -1.831 h 2.393004 v -1.245 H 23.78144 v -2.069 h 2.480004 v 1.278 h 1.354002 v -2.523 h -6.01101 v 1.245 h 0.617001 v 5.145 h -0.606001 z"
       style="fill:#455ba6;fill-opacity:1;fill-rule:nonzero;stroke:none"
       id="path106" /><path
       d="m 30.668851,91.331104 v -1.949 h 1.224002 c 0.779001,0 1.245002,0.379 1.245002,1.018 0,0.628 -0.466001,0.931 -1.451002,0.931 z m -2.188004,1.245 h 3.520006 c 2.361004,0 2.664005,-1.375 2.664005,-2.101 0,-1.169 -0.725002,-1.505 -1.050002,-1.646 0.714001,-0.368 1.018002,-0.769 1.018002,-2.253 v -0.389 h 0.628001 v -1.246 h -2.144004 v 1.917 c 0,0.91 -0.445001,1.354 -1.365002,1.354 h -1.083002 v -2.025 h 0.531001 v -1.246 h -2.729005 v 1.246 h 0.639001 v 5.144 h -0.629001 z"
       style="fill:#455ba6;fill-opacity:1;fill-rule:nonzero;stroke:none"
       id="path110" /><path
       d="m 35.736859,92.576504 h 2.751005 v -1.245 h -0.585001 v -5.145 h 0.596001 v -1.245 h -2.773005 v 1.245 h 0.617001 v 5.145 h -0.606001 z"
       style="fill:#455ba6;fill-opacity:1;fill-rule:nonzero;stroke:none"
       id="path114" /><path
       d="m 40.891668,88.861804 c 0,-1.105 0.217,-1.819 0.682001,-2.274 0.347001,-0.347 0.823002,-0.531 1.321002,-0.531 0.499001,0 0.921002,0.217 1.246002,0.531 0.476001,0.455 0.693002,1.169 0.693002,2.274 0,1.614 -0.682002,2.567 -1.939004,2.567 -1.256002,0 -2.003003,-0.953 -2.003003,-2.567 m 5.631009,-0.119 c 0,-2.437 -1.451002,-4.018 -3.692006,-4.018 -2.156003,0 -3.628006,1.657 -3.628006,4.094 0,2.09 1.364003,3.953 3.649006,3.953 2.567005,0 3.671006,-2.025 3.671006,-4.029"
       style="fill:#455ba6;fill-opacity:1;fill-rule:nonzero;stroke:none"
       id="path118" /><path
       d="m 49.511982,91.331104 v -1.949 h 1.224002 c 0.779002,0 1.245002,0.379 1.245002,1.018 0,0.628 -0.466,0.931 -1.451002,0.931 z m -2.188003,1.245 h 3.520006 c 2.361004,0 2.664004,-1.375 2.664004,-2.101 0,-1.169 -0.725001,-1.505 -1.050002,-1.646 0.714001,-0.368 1.018002,-0.769 1.018002,-2.253 v -0.389 h 0.628001 v -1.246 h -2.144004 v 1.917 c 0,0.91 -0.445,1.354 -1.365002,1.354 h -1.083002 v -2.025 h 0.531001 v -1.246 h -2.729004 v 1.246 h 0.639001 v 5.144 h -0.629001 z"
       style="fill:#455ba6;fill-opacity:1;fill-rule:nonzero;stroke:none"
       id="path122" /><path
       d="m 61.099402,86.186704 c 1.300002,0 2.025003,0.932 2.025003,2.48 0,0.986 -0.216,1.668 -0.682001,2.101 -0.357001,0.347 -0.975002,0.563 -1.657003,0.563 h -0.996002 v -5.144 z m -3.455006,6.39 h 3.412006 c 2.350002,0 3.758004,-1.43 3.758004,-3.834 0,-1.137 -0.314001,-2.123 -0.888002,-2.773 -0.629001,-0.703 -1.484,-1.028 -2.730002,-1.028 h -3.562006 v 1.245 h 0.595001 v 5.144 h -0.585001 z"
       style="fill:#455ba6;fill-opacity:1;fill-rule:nonzero;stroke:none"
       id="path126" /><path
       d="m 65.463507,92.576504 h 5.84801 v -2.393 h -1.278002 v 1.148 h -2.404004 v -1.831 h 2.393004 v -1.245 h -2.393004 v -2.069 h 2.480004 v 1.278 h 1.354002 v -2.523 h -6.01101 v 1.245 h 0.617001 v 5.145 h -0.606001 z"
       style="fill:#455ba6;fill-opacity:1;fill-rule:nonzero;stroke:none"
       id="path130" /><path
       d="m 82.444335,87.562204 c -0.541001,-1.863 -1.646003,-2.837 -3.585006,-2.837 -2.090003,0 -3.552006,1.635 -3.552006,3.996 0,2.361 1.430003,4.05 3.422006,4.05 1.354002,0 1.863003,-0.617 2.221004,-1.072 v 0.877 h 1.332002 v -2.642 h -1.376002 c -0.162001,0.433 -0.281001,0.617 -0.465001,0.834 -0.380001,0.433 -0.899002,0.671 -1.462003,0.671 -1.257002,0 -1.982003,-0.996 -1.982003,-2.718 0,-1.646 0.769001,-2.664 2.014003,-2.664 0.552001,0 1.018002,0.216 1.386003,0.628 0.163,0.184 0.314,0.422 0.477001,0.877 z"
       style="fill:#455ba6;fill-opacity:1;fill-rule:nonzero;stroke:none"
       id="path134" /><path
       d="m 87.111743,94.796604 h 1.841003 l -1.700003,-1.581 h -1.029002 z m -2.296004,-5.935 c 0,-1.104 0.217,-1.819 0.682001,-2.274 0.347001,-0.347 0.823002,-0.531 1.322002,-0.531 0.498001,0 0.920002,0.217 1.245003,0.531 0.477,0.455 0.693001,1.17 0.693001,2.274 0,1.614 -0.682001,2.567 -1.938004,2.567 -1.257002,0 -2.004003,-0.953 -2.004003,-2.567 m 5.63201,-0.119 c 0,-2.437 -1.452003,-4.018 -3.693007,-4.018 -2.155003,0 -3.628006,1.657 -3.628006,4.094 0,2.09 1.364003,3.953 3.649006,3.953 2.567005,0 3.672007,-2.025 3.672007,-4.029"
       style="fill:#455ba6;fill-opacity:1;fill-rule:nonzero;stroke:none"
       id="path138" /><path
       d="m 93.436053,91.331104 v -1.949 h 1.224003 c 0.780001,0 1.245002,0.379 1.245002,1.018 0,0.628 -0.465001,0.931 -1.451003,0.931 z m -2.187003,1.245 h 3.519006 c 2.361004,0 2.664004,-1.375 2.664004,-2.101 0,-1.169 -0.725001,-1.505 -1.050002,-1.646 0.715002,-0.368 1.018002,-0.769 1.018002,-2.253 v -0.389 h 0.628001 v -1.246 h -2.144003 v 1.917 c 0,0.91 -0.444001,1.354 -1.365003,1.354 h -1.083002 v -2.025 h 0.531001 v -1.246 H 91.23805 v 1.246 h 0.639001 v 5.144 H 91.24905 Z"
       style="fill:#455ba6;fill-opacity:1;fill-rule:nonzero;stroke:none"
       id="path142" /><path
       d="m 102.01287,86.186704 c 1.3,0 2.025,0.932 2.025,2.48 0,0.986 -0.217,1.668 -0.682,2.101 -0.358,0.347 -0.975,0.563 -1.657,0.563 h -0.997 v -5.144 z m -3.455008,6.39 h 3.412008 c 2.35,0 3.757,-1.43 3.757,-3.834 0,-1.137 -0.313,-2.123 -0.887,-2.773 -0.629,-0.703 -1.484,-1.028 -2.729,-1.028 h -3.563008 v 1.245 h 0.595001 v 5.144 h -0.585001 z"
       style="fill:#455ba6;fill-opacity:1;fill-rule:nonzero;stroke:none"
       id="path146" /><path
       d="m 108.16378,88.861804 c 0,-1.105 0.217,-1.819 0.682,-2.274 0.347,-0.347 0.823,-0.531 1.322,-0.531 0.498,0 0.92,0.217 1.245,0.531 0.476,0.455 0.693,1.169 0.693,2.274 0,1.614 -0.682,2.567 -1.938,2.567 -1.257,0 -2.004,-0.953 -2.004,-2.567 m 5.63101,-0.119 c 0,-2.437 -1.45001,-4.018 -3.69201,-4.018 -2.156,0 -3.628,1.657 -3.628,4.094 0,2.09 1.364,3.953 3.649,3.953 2.56701,0 3.67101,-2.025 3.67101,-4.029"
       style="fill:#455ba6;fill-opacity:1;fill-rule:nonzero;stroke:none"
       id="path150" /><path
       d="m 116.63289,88.277004 v -2.09 h 1.603 c 0.68201,0 1.21301,0.444 1.21301,1.029 0,0.639 -0.542,1.061 -1.36501,1.061 z m 0,3.054 v -1.852 h 1.505 c 0.65001,0 1.09401,0.401 1.09401,0.975 0,0.509 -0.498,0.877 -1.20201,0.877 z m -2.134,1.246 h 2.914 c 1.29901,0 1.78601,-0.044 2.15501,-0.206 0.509,-0.217 1.169,-0.834 1.169,-1.841 0,-0.769 -0.249,-1.148 -0.985,-1.549 0.866,-0.357 1.267,-0.899 1.267,-1.906 0,-1.278 -0.986,-2.134 -2.459,-2.134 h -4.08201 v 1.246 h 0.596 v 5.144 h -0.575 z"
       style="fill:#455ba6;fill-opacity:1;fill-rule:nonzero;stroke:none"
       id="path154" /><path
       d="m 125.18811,91.147004 -1.01801,-3.379 h 2.01401 z m -0.92101,1.43 h 1.83101 l 2.1,-6.39 h 0.574 v -1.246 h -1.754 l -0.498,1.658 h -2.68601 l -0.498,-1.658 h -1.776 v 1.246 h 0.585 z"
       style="fill:#455ba6;fill-opacity:1;fill-rule:nonzero;stroke:none"
       id="path158" /><path
       d="m 60.409401,78.575904 v 2.934 c 0,0.032 0.026,0.058 0.058,0.058 h 0.690001 c 0.032,0 0.058,-0.026 0.058,-0.058 v -2.934 c 0,-1.096 -0.567001,-1.593 -1.722003,-1.593 -1.160002,0 -1.728003,0.497 -1.728003,1.593 v 2.934 c 0,0.032 0.026,0.058 0.058,0.058 h 0.697001 c 0.032,0 0.058,-0.026 0.058,-0.058 v -2.934 c 0,-0.696 0.116001,-0.845 0.915002,-0.845 0.794001,0 0.916002,0.149 0.916002,0.845"
       style="fill:#009e92;fill-opacity:1;fill-rule:nonzero;stroke:none"
       id="path162" /><path
       d="m 62.930405,79.994404 c 0.174,0.206 0.541999,0.458 0.998999,0.458 0.819002,0 1.142002,-0.342 1.142002,-1.554 v -1.767 c 0,-0.032 -0.026,-0.058 -0.058,-0.058 h -0.645001 c -0.032,0 -0.058,0.026 -0.058,0.058 v 1.722 c 0,0.819 -0.071,0.902 -0.703001,0.902 -0.245001,0 -0.457999,-0.038 -0.676999,-0.155 v -2.469 c 0,-0.032 -0.026,-0.058 -0.058,-0.058 h -0.645001 c -0.032,0 -0.058,0.026 -0.058,0.058 v 3.166 c 0,0.032 0.026,0.058 0.058,0.058 h 0.645001 c 0.032,0 0.058,-0.026 0.058,-0.058 z"
       style="fill:#009e92;fill-opacity:1;fill-rule:nonzero;stroke:none"
       id="path166" /><path
       d="m 66.676309,77.131404 c 0,-0.032 -0.026,-0.058 -0.058,-0.058 h -0.645001 c -0.032,0 -0.058,0.026 -0.058,0.058 v 3.166 c 0,0.032 0.026,0.058 0.058,0.058 h 0.645001 c 0.032,0 0.058,-0.026 0.058,-0.058 z m 0.032,4.191 c 0,-0.374 -0.064,-0.419 -0.412001,-0.419 -0.349,0 -0.407,0.045 -0.407,0.419 0,0.335 0.058,0.374 0.407,0.374 0.348001,0 0.412001,-0.039 0.412001,-0.374"
       style="fill:#009e92;fill-opacity:1;fill-rule:nonzero;stroke:none"
       id="path170" /><path
       d="m 67.15341,80.200604 c -0.006,0.006 -0.006,0.013 -0.006,0.019 0,0.026 0.019,0.045 0.045,0.052 l 0.670001,0.161 h 0.013 c 0.019,0 0.052,-0.019 0.058,-0.045 l 0.735001,-2.405 0.078,-0.368 0.083,0.368 0.723001,2.405 c 0.006,0.019 0.038,0.045 0.064,0.045 h 0.013 l 0.664001,-0.161 c 0.026,-0.007 0.045,-0.026 0.045,-0.045 0,-0.007 -0.006,-0.013 -0.006,-0.02 l -1.045002,-3.075 c -0.006,-0.032 -0.032,-0.058 -0.064,-0.058 h -0.967001 c -0.033,0 -0.058,0.026 -0.065,0.058 z"
       style="fill:#009e92;fill-opacity:1;fill-rule:nonzero;stroke:none"
       id="path174" /><path
       d="m 72.827219,79.110904 c -0.013,0.606 -0.084,0.722 -0.638001,0.722 -0.535001,0 -0.626001,-0.116 -0.645001,-0.722 z m 0.774001,-0.477 c 0,-0.052 -0.052,-0.084 -0.09,-0.084 h -1.973003 c 0.012,-0.825 0.109,-0.922 0.812001,-0.922 0.316001,0 0.690002,0.052 0.935002,0.129 0.019,0.007 0.058,-0.006 0.064,-0.039 l 0.097,-0.541 c 0.013,-0.039 0,-0.071 -0.032,-0.084 -0.323,-0.071 -0.729001,-0.11 -1.135002,-0.11 -1.161002,0 -1.554002,0.407 -1.554002,1.741 0,1.316 0.413,1.728 1.489002,1.728 1.052002,0 1.387002,-0.348 1.387002,-1.818"
       style="fill:#009e92;fill-opacity:1;fill-rule:nonzero;stroke:none"
       id="path178" /><path
       d="m 76.495825,80.387604 c 0.032,-0.006 0.052,-0.039 0.039,-0.077 l -0.097,-0.607 c -0.006,-0.032 -0.045,-0.051 -0.071,-0.038 -0.161,0.045 -0.335,0.077 -0.542001,0.077 -0.245,0 -0.451001,-0.051 -0.689001,-0.148 v -2.463 c 0,-0.032 -0.026,-0.058 -0.058,-0.058 h -0.645001 c -0.032,0 -0.058,0.026 -0.058,0.058 v 2.618 l -0.181001,0.399 c -0.013,0.026 -0.006,0.065 0.026,0.078 l 0.574,0.251 c 0.026,0.013 0.064,0 0.077,-0.026 l 0.219,-0.457 c 0.213,0.206 0.536001,0.457 0.955002,0.457 0.167,0 0.322,-0.019 0.451,-0.064"
       style="fill:#009e92;fill-opacity:1;fill-rule:nonzero;stroke:none"
       id="path182" /><path
       d="m 78.017528,77.615004 c 0.458001,0 0.548001,0.084 0.548001,0.426 0,0.27 -0.058,0.335 -0.625001,0.393 -0.826002,0.077 -1.161002,0.335 -1.161002,0.967 0,0.742 0.438,1.051 1.367002,1.051 0.329001,0 0.735001,-0.045 1.064002,-0.122 0.032,-0.013 0.045,-0.046 0.032,-0.084 l -0.097,-0.542 c -0.006,-0.032 -0.045,-0.045 -0.064,-0.038 -0.265001,0.096 -0.684002,0.148 -0.980002,0.148 -0.452001,0 -0.529001,-0.084 -0.529001,-0.4 0,-0.258 0.058,-0.316 0.632001,-0.374 0.903002,-0.09 1.154002,-0.38 1.154002,-0.974 0,-0.767 -0.425001,-1.083 -1.393002,-1.083 -0.348001,0 -0.767002,0.039 -1.122002,0.123 -0.032,0.006 -0.045,0.045 -0.032,0.084 l 0.097,0.541 c 0.006,0.033 0.045,0.045 0.064,0.039 0.265001,-0.078 0.677001,-0.155 1.045002,-0.155"
       style="fill:#009e92;fill-opacity:1;fill-rule:nonzero;stroke:none"
       id="path186" /><path
       d="m 80.899433,77.131404 c 0,-0.032 -0.026,-0.058 -0.058,-0.058 h -0.645002 c -0.032,0 -0.058,0.026 -0.058,0.058 v 3.166 c 0,0.032 0.026,0.058 0.058,0.058 h 0.645002 c 0.032,0 0.058,-0.026 0.058,-0.058 z m 0.032,4.191 c 0,-0.374 -0.064,-0.419 -0.412001,-0.419 -0.349001,0 -0.407001,0.045 -0.407001,0.419 0,0.335 0.058,0.374 0.407001,0.374 0.348001,0 0.412001,-0.039 0.412001,-0.374"
       style="fill:#009e92;fill-opacity:1;fill-rule:nonzero;stroke:none"
       id="path190" /><path
       d="m 83.962138,79.600904 c -0.219001,0.116 -0.432001,0.168 -0.677001,0.168 -0.671002,0 -0.754002,-0.103 -0.754002,-1.058 0,-0.941 0.083,-1.051 0.754002,-1.051 0.245,0 0.458,0.052 0.677001,0.168 z m 0.761001,-2.469 c 0,-0.033 -0.026,-0.058 -0.058,-0.058 h -0.645001 c -0.032,0 -0.058,0.025 -0.058,0.058 v 0.309 c -0.174001,-0.226 -0.580001,-0.458 -0.961002,-0.458 -0.909001,0 -1.296002,0.4 -1.296002,1.728 0,1.329 0.387001,1.741 1.296002,1.741 0.381001,0 0.787001,-0.232 0.961002,-0.457 v 1.65 c 0,0.032 0.026,0.058 0.058,0.058 h 0.645001 c 0.032,0 0.058,-0.026 0.058,-0.058 z"
       style="fill:#009e92;fill-opacity:1;fill-rule:nonzero;stroke:none"
       id="path194" /><path
       d="m 86.321742,78.124404 c 0,-0.387 0.103,-0.477 0.645001,-0.477 0.245,0 0.458,0.051 0.677001,0.168 v 0.631 c -0.219001,0.117 -0.432001,0.174 -0.677001,0.174 -0.548001,0 -0.645001,-0.096 -0.645001,-0.496 m 2.083003,0.974 v -1.445 l 0.167,-0.373 c 0.013,-0.026 0.007,-0.065 -0.026,-0.078 l -0.599001,-0.245 c -0.026,-0.019 -0.065,-0.007 -0.077,0.019 l -0.22,0.465 c -0.142,-0.194 -0.554001,-0.458 -0.935002,-0.458 -0.877001,0 -1.205002,0.297 -1.205002,1.128 0,0.819 0.328001,1.096 1.205002,1.096 0.381001,0 0.787002,-0.232 0.929002,-0.425 v 0.296 c 0,0.613 -0.123,0.742 -0.787001,0.742 -0.303001,0 -0.677002,-0.045 -0.941002,-0.123 -0.02,-0.006 -0.058,0.007 -0.065,0.039 l -0.096,0.522 c -0.013,0.039 0,0.078 0.032,0.084 0.348,0.071 0.690001,0.11 1.135002,0.11 0.935001,0 1.483002,-0.29 1.483002,-1.354"
       style="fill:#009e92;fill-opacity:1;fill-rule:nonzero;stroke:none"
       id="path198" /><path
       d="m 91.47995,79.600904 c -0.219,0.116 -0.432,0.168 -0.677001,0.168 -0.671001,0 -0.754001,-0.103 -0.754001,-1.058 0,-0.941 0.083,-1.051 0.754001,-1.051 0.245001,0 0.458001,0.052 0.677001,0.168 z m 0.761001,-2.469 c 0,-0.033 -0.026,-0.058 -0.058,-0.058 H 91.53795 c -0.032,0 -0.058,0.025 -0.058,0.058 v 0.309 c -0.174,-0.226 -0.580001,-0.458 -0.961001,-0.458 -0.909002,0 -1.296003,0.4 -1.296003,1.728 0,1.329 0.387001,1.741 1.296003,1.741 0.381,0 0.787001,-0.232 0.961001,-0.457 v 1.65 c 0,0.032 0.026,0.058 0.058,0.058 h 0.645001 c 0.032,0 0.058,-0.026 0.058,-0.058 z"
       style="fill:#009e92;fill-opacity:1;fill-rule:nonzero;stroke:none"
       id="path202" /><path
       d="m 96.947359,79.600904 c -0.219,0.116 -0.432,0.168 -0.677001,0.168 -0.670001,0 -0.754001,-0.103 -0.754001,-1.058 0,-0.941 0.084,-1.051 0.754001,-1.051 0.245001,0 0.458001,0.052 0.677001,0.168 z m 0.761002,-2.469 c 0,-0.033 -0.026,-0.058 -0.058,-0.058 H 97.00536 c -0.032,0 -0.058,0.025 -0.058,0.058 v 0.309 c -0.174,-0.226 -0.580001,-0.458 -0.961001,-0.458 -0.909002,0 -1.296002,0.4 -1.296002,1.728 0,1.329 0.387,1.741 1.296002,1.741 0.381,0 0.787001,-0.232 0.961001,-0.457 v 1.65 c 0,0.032 0.026,0.058 0.058,0.058 h 0.645001 c 0.032,0 0.058,-0.026 0.058,-0.058 z"
       style="fill:#009e92;fill-opacity:1;fill-rule:nonzero;stroke:none"
       id="path206" /><path
       d="m 100.61597,79.110904 c -0.013,0.606 -0.084,0.722 -0.638006,0.722 -0.536001,0 -0.626001,-0.116 -0.645001,-0.722 z m 0.774,-0.477 c 0,-0.052 -0.052,-0.084 -0.09,-0.084 h -1.973007 c 0.013,-0.825 0.109,-0.922 0.811997,-0.922 0.31601,0 0.69001,0.052 0.93501,0.129 0.019,0.007 0.058,-0.006 0.064,-0.039 l 0.097,-0.541 c 0.013,-0.039 0,-0.071 -0.032,-0.084 -0.323,-0.071 -0.729,-0.11 -1.13501,-0.11 -1.160997,0 -1.553998,0.407 -1.553998,1.741 0,1.316 0.413001,1.728 1.489998,1.728 1.05101,0 1.38601,-0.348 1.38601,-1.818"
       style="fill:#009e92;fill-opacity:1;fill-rule:nonzero;stroke:none"
       id="path210" /><path
       d="m 106.79248,77.879404 c 0.019,0.006 0.058,-0.006 0.064,-0.039 l 0.117,-0.651 c 0.013,-0.039 0,-0.071 -0.033,-0.084 -0.38,-0.083 -0.78601,-0.122 -1.19901,-0.122 -1.425,0 -2.012,0.483 -2.012,2.379 0,1.863 0.587,2.315 2.012,2.315 0.413,0 0.81901,-0.045 1.19901,-0.129 0.033,-0.007 0.046,-0.045 0.033,-0.084 l -0.117,-0.645 c -0.006,-0.032 -0.045,-0.045 -0.064,-0.038 -0.29,0.083 -0.66401,0.141 -1.05101,0.141 -0.928,0 -1.103,-0.154 -1.103,-1.567 0,-1.457 0.175,-1.618 1.103,-1.618 0.387,0 0.76101,0.052 1.05101,0.142"
       style="fill:#009e92;fill-opacity:1;fill-rule:nonzero;stroke:none"
       id="path214" /><path
       d="m 108.93958,80.722904 c -0.026,-0.019 -0.058,-0.019 -0.09,-0.006 l -0.349,0.193 c -0.032,0.013 -0.032,0.058 -0.012,0.084 l 0.728,0.806 c 0.026,0.025 0.058,0.038 0.11,0.019 l 0.464,-0.206 c 0.039,-0.013 0.039,-0.071 0.007,-0.097 z m -0.632,-2.005 c 0,-0.993 0.084,-1.077 0.735,-1.077 0.651,0 0.735,0.084 0.735,1.077 0,0.973 -0.084,1.076 -0.735,1.076 -0.651,0 -0.735,-0.103 -0.735,-1.076 m -0.819,0.013 c 0,1.341 0.42,1.721 1.554,1.721 1.141,0 1.561,-0.38 1.561,-1.721 0,-1.348 -0.413,-1.748 -1.561,-1.748 -1.147,0 -1.554,0.4 -1.554,1.748"
       style="fill:#009e92;fill-opacity:1;fill-rule:nonzero;stroke:none"
       id="path218" /><path
       d="m 113.55619,80.387604 c 0.032,-0.006 0.051,-0.039 0.039,-0.077 l -0.097,-0.607 c -0.007,-0.032 -0.045,-0.051 -0.071,-0.038 -0.161,0.045 -0.335,0.077 -0.542,0.077 -0.245,0 -0.451,-0.051 -0.69001,-0.148 v -2.463 c 0,-0.032 -0.025,-0.058 -0.058,-0.058 h -0.644 c -0.033,0 -0.058,0.026 -0.058,0.058 v 2.618 l -0.181,0.399 c -0.013,0.026 -0.006,0.065 0.026,0.078 l 0.574,0.251 c 0.026,0.013 0.064,0 0.077,-0.026 l 0.219,-0.457 c 0.213,0.206 0.53501,0.457 0.95501,0.457 0.167,0 0.322,-0.019 0.451,-0.064"
       style="fill:#009e92;fill-opacity:1;fill-rule:nonzero;stroke:none"
       id="path222" /><path
       d="m 116.11559,79.600904 c -0.219,0.116 -0.432,0.168 -0.677,0.168 -0.67,0 -0.754,-0.103 -0.754,-1.058 0,-0.941 0.084,-1.051 0.754,-1.051 0.245,0 0.458,0.052 0.677,0.168 z m 0.761,-2.469 c 0,-0.033 -0.026,-0.058 -0.058,-0.058 h -0.645 c -0.032,0 -0.058,0.025 -0.058,0.058 v 0.309 c -0.174,-0.226 -0.58,-0.458 -0.961,-0.458 -0.909,0 -1.296,0.4 -1.296,1.728 0,1.329 0.387,1.741 1.296,1.741 0.381,0 0.787,-0.232 0.961,-0.457 v 1.65 c 0,0.032 0.026,0.058 0.058,0.058 h 0.645 c 0.032,0 0.058,-0.026 0.058,-0.058 z"
       style="fill:#009e92;fill-opacity:1;fill-rule:nonzero;stroke:none"
       id="path226" /><path
       d="m 118.5012,78.717604 c 0,-0.993 0.084,-1.077 0.735,-1.077 0.651,0 0.735,0.084 0.735,1.077 0,0.974 -0.084,1.077 -0.735,1.077 -0.651,0 -0.735,-0.103 -0.735,-1.077 m -0.81901,0.013 c 0,1.341 0.419,1.721 1.55401,1.721 1.141,0 1.56,-0.38 1.56,-1.721 0,-1.348 -0.412,-1.747 -1.56,-1.747 -1.14801,0 -1.55401,0.399 -1.55401,1.747"
       style="fill:#009e92;fill-opacity:1;fill-rule:nonzero;stroke:none"
       id="path230" /><path
       d="m 122.344,77.827904 c 0.219,-0.116 0.432,-0.168 0.677,-0.168 0.67,0 0.754,0.11 0.754,1.051 0,0.955 -0.084,1.058 -0.754,1.058 -0.245,0 -0.458,-0.052 -0.677,-0.168 z m -0.761,3.817 c 0,0.032 0.026,0.058 0.058,0.058 h 0.645 c 0.032,0 0.058,-0.026 0.058,-0.058 v -1.651 c 0.174,0.226 0.58,0.458 0.961,0.458 0.909,0 1.29601,-0.412 1.29601,-1.741 0,-1.328 -0.38701,-1.728 -1.29601,-1.728 -0.381,0 -0.787,0.232 -0.961,0.458 v -0.309 c 0,-0.033 -0.026,-0.058 -0.058,-0.058 h -0.645 c -0.032,0 -0.058,0.025 -0.058,0.058 z"
       style="fill:#009e92;fill-opacity:1;fill-rule:nonzero;stroke:none"
       id="path234" /><path
       d="m 126.11581,78.124404 c 0,-0.387 0.103,-0.477 0.645,-0.477 0.245,0 0.458,0.051 0.677,0.168 v 0.631 c -0.219,0.117 -0.432,0.174 -0.677,0.174 -0.548,0 -0.645,-0.096 -0.645,-0.496 m 2.083,0.974 v -1.445 l 0.167,-0.373 c 0.013,-0.026 0.007,-0.065 -0.026,-0.078 l -0.599,-0.245 c -0.026,-0.019 -0.065,-0.007 -0.078,0.019 l -0.219,0.465 c -0.142,-0.194 -0.554,-0.458 -0.935,-0.458 -0.877,0 -1.205,0.297 -1.205,1.128 0,0.819 0.328,1.096 1.205,1.096 0.381,0 0.787,-0.232 0.929,-0.425 v 0.296 c 0,0.613 -0.123,0.742 -0.787,0.742 -0.303,0 -0.677,-0.045 -0.941,-0.123 -0.02,-0.006 -0.058,0.007 -0.065,0.039 l -0.096,0.522 c -0.013,0.039 0,0.078 0.032,0.084 0.348,0.071 0.69,0.11 1.135,0.11 0.934,0 1.483,-0.29 1.483,-1.354"
       style="fill:#009e92;fill-opacity:1;fill-rule:nonzero;stroke:none"
       id="path238" /><path
       id="path356"
       style="fill:#009e92;fill-opacity:1;fill-rule:nonzero;stroke:none"
       d="m 137.23243,62.110004 h -1.30801 V 117.514 h 1.30801 z" /></g></svg>
