<?xml version="1.0" encoding="UTF-8" standalone="no"?>
<!-- Created with Inkscape (http://www.inkscape.org/) -->

<svg
   version="1.1"
   id="svg2"
   xml:space="preserve"
   width="264.81067"
   height="38.665333"
   viewBox="0 0 264.81067 38.665332"
   sodipodi:docname="grayhats.svg"
   inkscape:version="1.1.1 (1:1.1+202109281946+c3084ef5ed)"
   xmlns:inkscape="http://www.inkscape.org/namespaces/inkscape"
   xmlns:sodipodi="http://sodipodi.sourceforge.net/DTD/sodipodi-0.dtd"
   xmlns="http://www.w3.org/2000/svg"
   xmlns:svg="http://www.w3.org/2000/svg"><defs
     id="defs6"><clipPath
       clipPathUnits="userSpaceOnUse"
       id="clipPath16"><path
         d="M 0,0 H 226.772 V 85.039 H 0 Z"
         id="path14" /></clipPath><clipPath
       clipPathUnits="userSpaceOnUse"
       id="clipPath40"><path
         d="M 0,0 H 226.772 V 85.039 H 0 Z"
         id="path38" /></clipPath></defs><sodipodi:namedview
     id="namedview4"
     pagecolor="#ffffff"
     bordercolor="#666666"
     borderopacity="1.0"
     inkscape:pageshadow="2"
     inkscape:pageopacity="0.0"
     inkscape:pagecheckerboard="0"
     showgrid="false"
     fit-margin-top="0"
     fit-margin-left="0"
     fit-margin-right="0"
     fit-margin-bottom="0"
     inkscape:zoom="2.2588767"
     inkscape:cx="99.164331"
     inkscape:cy="23.905687"
     inkscape:window-width="1920"
     inkscape:window-height="1043"
     inkscape:window-x="2560"
     inkscape:window-y="1440"
     inkscape:window-maximized="1"
     inkscape:current-layer="g8" /><g
     id="g8"
     inkscape:groupmode="layer"
     inkscape:label="LOGO GRAYHATS S&amp;DP"
     transform="matrix(1.3333333,0,0,-1.3333333,-18.775866,78.431998)"><g
       id="g881"><g
         id="g10"><g
           id="g12"
           clip-path="url(#clipPath16)"><g
             id="g18"
             transform="translate(95.1154,34.893)"><path
               d="M 0,0 C 1.833,0 3.237,0.782 3.965,1.752 H 4.1 C 4.558,0.512 5.555,0 7.225,0 8.465,0 9.758,0.404 10.297,0.755 V 3.451 H 9.92 c -0.485,0 -0.89,0.215 -0.89,0.835 v 6.039 c 0,3.287 -1.724,4.876 -5.523,4.876 -2.618,0 -4.908,-0.512 -6.363,-1.023 v -3.26 c 0.997,0.162 2.425,0.27 3.745,0.27 1.997,0 2.591,-0.512 2.591,-1.78 L 3.48,8.896 1.212,8.465 C -2.236,7.845 -4.284,6.901 -4.284,3.99 -4.284,1.671 -2.64,0 0,0 m 2.4,3.151 c -0.864,0 -1.188,0.458 -1.188,1.618 0,1.133 0.459,1.618 1.377,1.672 L 3.48,6.468 V 3.582 C 3.264,3.367 2.859,3.151 2.4,3.151 M 16.849,0.027 c 1.671,0 2.965,0.377 3.639,0.782 v 2.962 c -0.351,-0.108 -0.809,-0.189 -1.24,-0.189 -1.052,0 -1.645,0.297 -1.645,1.483 v 6.554 h 2.75 v 3.259 h -2.75 v 3.396 h -4.391 l -0.647,-3.342 -1.941,-0.755 v -2.558 h 1.429 V 4.175 c 0,-3.151 1.751,-4.148 4.796,-4.148 M 27.039,0 c 5.096,0 7.143,2.074 7.143,5.308 0,2.239 -1.185,3.776 -4.176,4.369 L 28.2,10.055 c -1.323,0.269 -1.782,0.512 -1.782,1.159 0,0.675 0.756,0.944 1.674,0.944 0.729,0 1.187,-0.162 1.483,-0.323 l 0.27,-1.267 h 3.421 v 3.798 c -1.239,0.566 -3.179,0.862 -5.012,0.862 -4.745,0 -6.793,-2.073 -6.793,-5.039 0,-2.669 1.482,-3.964 4.284,-4.53 l 1.591,-0.351 c 1.107,-0.242 1.512,-0.458 1.512,-1.105 0,-0.675 -0.594,-1.079 -1.647,-1.079 -0.756,0 -1.375,0.216 -1.672,0.404 L 25.044,4.904 H 21.542 L 21.785,0.916 C 23.32,0.296 25.368,0 27.039,0"
               style="fill:#000000;fill-opacity:1;fill-rule:nonzero;stroke:none"
               id="path20" /></g><g
             id="g22"
             transform="translate(23.6509,34.893)"><path
               d="M 0,0 C 2.319,0 4.42,0.377 5.902,0.915 V 7.009 L 7.708,7.467 V 9.136 H 0.135 V 7.467 L 2.319,7.009 V 2.612 C 1.726,2.423 0.917,2.207 -0.162,2.207 c -3.91,0 -5.448,2.482 -5.448,7.819 0,4.53 1.753,7.12 5.394,7.12 1.376,0 2.32,-0.243 3.02,-0.621 l 1.051,-2.859 h 1.993 l -0.216,4.933 c -1.158,0.404 -3.097,0.754 -5.524,0.754 -4.99,0 -9.677,-2.477 -9.677,-9.867 C -9.569,2.693 -5.933,0 0,0 m 8.358,0.35 h 7.383 v 1.48 l -2.13,0.431 v 8.63 c 0.863,0.512 1.888,0.782 3.182,0.782 0.323,0 0.808,-0.027 1.132,-0.108 v 2.989 c -0.135,0.054 -0.485,0.108 -0.728,0.108 -1.564,0 -2.831,-1.023 -3.586,-2.1 H 13.45 v 1.884 L 13.1,14.635 8.331,13.989 V 12.4 l 1.86,-0.431 V 2.261 L 8.358,1.83 Z M 22.373,0 c 1.808,0 3.049,0.754 3.777,1.588 h 0.135 c 0.269,-1.103 1.077,-1.534 2.343,-1.534 1.05,0 2.075,0.296 2.452,0.511 v 1.454 h -0.593 c -0.701,0 -1.159,0.161 -1.159,0.97 v 7.362 c 0,2.938 -1.481,4.311 -4.715,4.311 -1.997,0 -4.046,-0.512 -5.204,-0.996 v -1.777 c 0.862,0.134 2.398,0.269 3.558,0.269 2.536,0 2.968,-0.674 2.968,-2.562 V 8.437 L 22.778,7.79 C 19.975,7.25 18.171,6.387 18.171,3.825 18.171,1.507 19.867,0 22.373,0 m 1.349,2.126 c -1.484,0 -2.131,0.782 -2.131,2.131 0,1.294 0.54,2.049 2.131,2.157 l 2.213,0.162 V 2.935 C 25.503,2.558 24.64,2.126 23.722,2.126 M 34.64,-5.068 c 2.425,0 3.558,1.184 4.449,3.555 l 5.283,13.995 1.374,0.377 v 1.533 h -5.523 v -1.533 l 1.589,-0.377 -2.723,-8.009 h -0.108 l -3.074,8.036 1.643,0.35 v 1.533 H 30.868 V 12.859 L 32.269,12.482 37.2,0.671 36.553,-0.92 c -0.592,-1.348 -1.374,-1.833 -2.775,-1.833 -0.485,0 -0.835,0.081 -1.428,0.216 v -2.047 c 0.485,-0.242 1.482,-0.484 2.29,-0.484"
               style="fill:#9ca299;fill-opacity:1;fill-rule:nonzero;stroke:none"
               id="path24" /></g><g
             id="g26"
             transform="translate(88.3751,38.6938)"><path
               d="m 0,0 v 11.779 l 1.698,0.458 v 2.991 h -9.245 v -2.991 l 1.402,-0.404 V 7.789 h -4.448 v 4.044 l 1.375,0.404 v 2.991 h -9.272 v -2.991 l 1.725,-0.458 V 0 L -18.49,-0.458 V -3.45 h 8.056 c 0.324,0 0.19,0.274 0.094,0.435 -0.345,0.578 -0.499,1.35 -0.499,2.19 0,0.003 0.001,0.006 0.001,0.009 -0.301,0.117 -0.597,0.249 -0.87,0.423 -0.194,0.128 -0.386,0.268 -0.527,0.455 -0.083,0.11 -0.124,0.249 -0.113,0.387 -0.011,0.169 0.103,0.32 0.24,0.406 0.1,0.045 0.213,0.047 0.321,0.046 0.269,-0.01 0.535,-0.064 0.795,-0.129 0.018,0.612 0.062,1.227 0.191,1.827 0.065,0.301 0.274,0.552 0.53,0.714 0.261,0.168 0.564,0.256 0.865,0.321 0.33,0.065 0.667,0.093 1.003,0.089 0.55,0.008 1.109,-0.049 1.624,-0.251 0.297,-0.121 0.581,-0.314 0.738,-0.601 0.074,-0.127 0.105,-0.272 0.134,-0.414 0.105,-0.552 0.143,-1.115 0.161,-1.675 0.252,0.062 0.508,0.111 0.768,0.119 0.141,0.002 0.301,-0.008 0.407,-0.114 0.11,-0.094 0.169,-0.238 0.154,-0.382 0.008,-0.241 -0.168,-0.433 -0.341,-0.577 -0.346,-0.284 -0.753,-0.477 -1.17,-0.638 0,-0.005 0.002,-0.009 0.002,-0.015 0,-0.84 -0.154,-1.612 -0.499,-2.19 -0.096,-0.161 -0.214,-0.435 0.094,-0.435 h 8.056 v 2.992 z"
               style="fill:#000000;fill-opacity:1;fill-rule:nonzero;stroke:none"
               id="path28" /></g></g></g><path
         d="m 135.362,29.825 h 0.606 v 24.421 h -0.606 z"
         style="fill:#9ca299;fill-opacity:1;fill-rule:nonzero;stroke:none"
         id="path30" /><path
         d="m 135.362,34.403 h 0.606 v 24.421 h -0.606 z"
         style="fill:#9ca299;fill-opacity:1;fill-rule:nonzero;stroke:none"
         id="path32" /><g
         id="g34"><g
           id="g36"
           clip-path="url(#clipPath40)"><g
             id="g42"
             transform="translate(142.5879,35.0043)"><path
               d="M 0,0 H 2.347 C 4.84,0 5.951,1.445 5.951,3.849 v 0.222 c 0,2.449 -1.289,3.638 -3.627,3.638 L 0,7.709 Z m 1.011,0.866 v 5.976 h 1.224 c 1.67,0 2.627,-0.678 2.627,-2.771 V 3.693 C 4.862,1.712 4.094,0.866 2.369,0.866 Z m 7.633,-0.977 c 0.757,0 1.213,0.266 1.492,0.588 h 0.066 L 10.302,0 h 0.789 v 4.139 c 0,1.145 -0.722,1.678 -1.991,1.678 -0.69,0 -1.235,-0.111 -1.747,-0.311 v -0.7 c 0.345,0.078 0.801,0.167 1.358,0.167 1.024,0 1.402,-0.211 1.402,-1.079 V 3.36 L 8.599,3.171 C 7.52,3.037 6.876,2.503 6.876,1.513 6.876,0.411 7.62,-0.111 8.644,-0.111 M 8.9,0.644 c -0.612,0 -1.013,0.289 -1.013,0.89 0,0.624 0.323,0.879 0.968,0.946 l 1.258,0.134 V 1.033 C 9.868,0.811 9.39,0.644 8.9,0.644 m 5.685,-0.711 c 0.511,0 0.745,0.122 0.979,0.233 V 0.822 C 15.341,0.766 15.074,0.733 14.84,0.733 c -0.645,0 -0.823,0.2 -0.823,0.746 v 3.416 h 1.435 V 5.706 H 14.017 V 7.064 H 13.039 V 5.706 H 12.227 V 4.895 h 0.812 V 1.334 c 0,-1.012 0.634,-1.401 1.546,-1.401 m 3.638,-0.044 c 0.757,0 1.214,0.266 1.492,0.588 h 0.067 L 19.882,0 h 0.788 v 4.139 c 0,1.145 -0.722,1.678 -1.99,1.678 -0.691,0 -1.236,-0.111 -1.747,-0.311 v -0.7 c 0.344,0.078 0.8,0.167 1.357,0.167 1.024,0 1.403,-0.211 1.403,-1.079 V 3.36 L 18.179,3.171 c -1.08,-0.134 -1.724,-0.668 -1.724,-1.658 0,-1.102 0.744,-1.624 1.768,-1.624 m 0.256,0.755 c -0.612,0 -1.013,0.289 -1.013,0.89 0,0.624 0.323,0.879 0.969,0.946 l 1.258,0.134 V 1.033 C 19.448,0.811 18.969,0.644 18.479,0.644 M 24.899,0 h 1.011 v 3.037 h 1.548 c 1.458,0 2.469,0.822 2.469,2.381 0,1.458 -0.867,2.291 -2.569,2.291 h -2.459 z m 1.011,3.882 v 2.972 h 1.347 c 1.158,0 1.592,-0.435 1.592,-1.514 0,-0.991 -0.456,-1.458 -1.614,-1.458 z M 31.208,0 h 0.978 v 8.221 h -0.978 z m 4.093,-0.111 c 0.757,0 1.213,0.266 1.492,0.588 h 0.066 L 36.959,0 h 0.789 v 4.139 c 0,1.145 -0.722,1.678 -1.991,1.678 -0.69,0 -1.235,-0.111 -1.746,-0.311 v -0.7 c 0.344,0.078 0.8,0.167 1.357,0.167 1.024,0 1.402,-0.211 1.402,-1.079 V 3.36 L 35.256,3.171 C 34.177,3.037 33.533,2.503 33.533,1.513 c 0,-1.102 0.744,-1.624 1.768,-1.624 m 0.256,0.755 c -0.612,0 -1.013,0.289 -1.013,0.89 0,0.624 0.323,0.879 0.968,0.946 L 36.77,2.614 V 1.033 C 36.526,0.811 36.047,0.644 35.557,0.644 m 5.685,-0.711 c 0.511,0 0.745,0.122 0.979,0.233 v 0.656 c -0.223,-0.056 -0.49,-0.089 -0.724,-0.089 -0.645,0 -0.823,0.2 -0.823,0.746 v 3.416 h 1.435 V 5.706 H 40.674 V 7.064 H 39.696 V 5.706 H 38.884 V 4.895 h 0.812 V 1.334 c 0,-1.012 0.634,-1.401 1.546,-1.401 M 43.691,0 h 0.977 v 4.895 h 1.302 v 0.811 h -1.302 v 0.735 c 0,0.757 0.356,1.069 0.991,1.069 0.389,0 0.645,-0.056 0.801,-0.089 v 0.7 c -0.201,0.1 -0.512,0.2 -0.979,0.2 -1.035,0 -1.79,-0.544 -1.79,-1.802 V 5.706 H 42.856 V 4.895 h 0.835 z m 5.64,-0.111 c 1.569,0 2.614,1.089 2.614,2.892 v 0.178 c 0,1.792 -0.967,2.858 -2.603,2.858 -1.569,0 -2.614,-1.1 -2.614,-2.892 V 2.736 c 0,-1.792 0.956,-2.847 2.603,-2.847 m 0.022,0.799 c -0.89,0 -1.614,0.479 -1.614,2.026 v 0.312 c 0,1.268 0.579,1.992 1.581,1.992 0.89,0 1.614,-0.49 1.614,-2.037 V 2.669 c 0,-1.279 -0.59,-1.981 -1.581,-1.981 M 53.27,0 h 0.978 v 4.45 c 0.4,0.267 0.945,0.445 1.48,0.445 0.1,0 0.289,-0.011 0.433,-0.033 v 0.866 c -0.055,0.023 -0.211,0.045 -0.356,0.045 -0.612,0 -1.223,-0.322 -1.546,-0.7 H 54.203 V 5.706 H 53.27 Z m 4.039,0 h 0.977 v 4.595 c 0.412,0.2 0.902,0.378 1.359,0.378 0.757,0 0.99,-0.278 0.99,-0.934 V 0 h 0.978 v 4.25 c 0,0.122 -0.011,0.223 -0.022,0.334 0.49,0.234 0.957,0.389 1.38,0.389 0.757,0 0.991,-0.278 0.991,-0.934 V 0 h 0.978 v 4.25 c 0,1.101 -0.578,1.567 -1.579,1.567 -0.646,0 -1.303,-0.233 -1.903,-0.633 H 61.402 C 61.135,5.618 60.68,5.817 60.034,5.817 59.4,5.817 58.776,5.54 58.298,5.218 h -0.056 v 0.488 h -0.933 z m 10.747,-0.1 c 1.246,0 2.046,0.577 2.046,1.701 0,1.013 -0.455,1.38 -1.568,1.681 l -0.545,0.144 c -0.579,0.156 -0.824,0.345 -0.824,0.813 0,0.501 0.378,0.757 1.113,0.757 0.635,0 1.224,-0.167 1.513,-0.301 v 0.789 c -0.322,0.167 -0.789,0.333 -1.557,0.333 -1.369,0 -2.002,-0.677 -2.002,-1.678 0,-0.991 0.6,-1.369 1.423,-1.592 L 68.2,2.402 c 0.702,-0.189 0.936,-0.423 0.936,-0.89 0,-0.501 -0.368,-0.79 -1.214,-0.79 -0.813,0 -1.224,0.167 -1.713,0.356 V 0.3 c 0.478,-0.267 1.112,-0.4 1.847,-0.4"
               style="fill:#9ca299;fill-opacity:1;fill-rule:nonzero;stroke:none"
               id="path44" /></g><g
             id="g46"
             transform="translate(144.2449,46.7273)"><path
               d="m 0,0 c 1.814,0 2.603,0.911 2.603,2.269 0,1.302 -0.711,1.802 -1.846,2.181 l -0.802,0.267 c -0.812,0.267 -1.057,0.579 -1.057,1.28 0,0.712 0.512,1.124 1.391,1.124 0.846,0 1.458,-0.201 1.925,-0.412 V 7.565 C 1.781,7.776 1.258,7.987 0.323,7.987 c -1.614,0 -2.436,-0.866 -2.436,-2.079 0,-1.191 0.622,-1.759 1.657,-2.104 L 0.345,3.537 C 1.247,3.237 1.57,2.925 1.57,2.191 1.57,1.389 1.069,0.866 -0.056,0.866 c -0.801,0 -1.557,0.201 -2.157,0.501 V 0.511 C -1.691,0.222 -0.968,0 0,0 m 6.353,0.033 c 0.946,0 1.591,0.3 1.935,0.556 V 1.312 C 7.766,1.045 7.277,0.878 6.509,0.878 5.374,0.878 4.706,1.356 4.639,2.715 H 8.455 V 3.27 c 0,1.792 -0.744,2.692 -2.313,2.692 -1.325,0 -2.514,-0.889 -2.514,-2.881 V 2.915 c 0,-1.77 0.922,-2.882 2.725,-2.882 M 6.097,5.174 c 0.868,0 1.325,-0.468 1.325,-1.671 H 4.639 c 0.089,1.314 0.824,1.671 1.458,1.671 m 5.985,-5.141 c 0.79,0 1.302,0.211 1.68,0.456 V 1.267 C 13.473,1.122 12.961,0.866 12.193,0.866 c -1.157,0 -1.758,0.601 -1.758,2.037 v 0.301 c 0,1.235 0.623,1.925 1.636,1.925 0.756,0 1.112,-0.145 1.624,-0.356 V 5.584 C 13.317,5.818 12.883,5.962 12.138,5.962 10.636,5.962 9.424,5.073 9.424,3.059 V 2.87 c 0,-1.915 1.034,-2.837 2.658,-2.837 m 4.618,0 c 0.701,0 1.28,0.267 1.758,0.6 h 0.056 l 0.1,-0.488 h 0.833 V 5.851 H 18.47 V 1.289 C 18.058,1.078 17.579,0.878 16.989,0.878 c -0.824,0 -1.058,0.289 -1.058,0.99 V 5.851 H 14.954 V 1.712 c 0,-1.101 0.622,-1.679 1.746,-1.679 m 4.429,0.112 h 0.977 v 4.45 c 0.401,0.267 0.946,0.445 1.48,0.445 0.1,0 0.289,-0.011 0.434,-0.033 v 0.866 c -0.056,0.022 -0.211,0.045 -0.356,0.045 -0.612,0 -1.224,-0.323 -1.547,-0.7 h -0.055 v 0.633 h -0.933 z m 4.072,0 h 0.978 v 5.706 h -0.978 z m -0.012,6.842 h 1 v 1.011 h -1 z m 4.549,-6.909 c 0.512,0 0.746,0.122 0.98,0.233 v 0.656 c -0.223,-0.056 -0.49,-0.089 -0.724,-0.089 -0.645,0 -0.823,0.2 -0.823,0.745 V 5.04 h 1.435 V 5.851 H 29.171 V 7.208 H 28.193 V 5.851 H 27.381 V 5.04 h 0.812 V 1.479 c 0,-1.012 0.634,-1.401 1.545,-1.401 m 2.549,-2.147 c 0.968,0 1.469,0.444 1.858,1.534 l 2.314,6.386 H 35.491 L 34.012,1.545 H 33.978 L 32.365,5.851 H 31.309 L 33.5,0.255 33.244,-0.402 c -0.245,-0.612 -0.612,-0.857 -1.135,-0.857 -0.211,0 -0.411,0.023 -0.556,0.045 v -0.689 c 0.167,-0.089 0.468,-0.166 0.734,-0.166 m 10.08,2.08 c 0.824,0 1.524,0.3 2.069,0.789 l 0.557,-0.655 h 1.223 l -1.156,1.39 c 0.422,0.646 0.689,1.458 0.755,2.326 H 44.893 C 44.848,3.249 44.714,2.681 44.491,2.214 L 42.79,4.272 c 0.901,0.434 1.712,0.957 1.712,2.036 0,1.057 -0.833,1.679 -1.879,1.679 -0.991,0 -2.002,-0.544 -2.002,-1.823 0,-0.59 0.233,-1.102 0.711,-1.68 -0.968,-0.468 -1.679,-1.114 -1.679,-2.26 0,-1.458 1.022,-2.213 2.714,-2.213 m -0.011,0.811 c -1.113,0 -1.659,0.601 -1.659,1.513 0,0.79 0.468,1.224 1.125,1.569 l 2.103,-2.492 c -0.4,-0.379 -0.924,-0.59 -1.569,-0.59 m -0.702,5.397 c 0,0.668 0.412,0.991 0.958,0.991 0.523,0 0.89,-0.357 0.89,-0.924 0,-0.768 -0.612,-1.146 -1.191,-1.447 l -0.145,0.178 c -0.323,0.39 -0.512,0.768 -0.512,1.202"
               style="fill:#9ca299;fill-opacity:1;fill-rule:nonzero;stroke:none"
               id="path48" /></g></g></g></g></g></svg>
