<?xml version="1.0" encoding="utf-8"?>
<!-- Generator: Adobe Illustrator 22.0.1, SVG Export Plug-In . SVG Version: 6.00 Build 0)  -->
<svg version="1.1" id="Capa_1" xmlns="http://www.w3.org/2000/svg" xmlns:xlink="http://www.w3.org/1999/xlink" x="0px" y="0px"
	 viewBox="0 0 254.6 103.6" style="enable-background:new 0 0 254.6 103.6;" xml:space="preserve">
<style type="text/css">
	.st0{fill:#22303B;}
	.st1{fill:#EF3340;}
</style>
<g>
	<g>
		<path class="st0" d="M109.5,26.5h-2.8c-0.4,0-0.7,0.3-0.7,0.8v11l-5.2-11.2c-0.1-0.2-0.3-0.6-0.8-0.6h-2.4c-0.4,0-0.7,0.3-0.7,0.8
			v21.4c0,0.5,0.3,0.8,0.7,0.8h2.8c0.4,0,0.7-0.3,0.7-0.8v-11l5.2,11.2c0.1,0.2,0.3,0.6,0.8,0.6h2.4c0.4,0,0.7-0.3,0.7-0.8V27.3
			C110.2,26.8,109.9,26.5,109.5,26.5z"/>
		<path class="st0" d="M121.4,26.5h-3.6c-3.1,0-4.9,1.7-4.9,4.9v13.2c0,3.1,1.7,4.9,4.9,4.9h3.6c3.1,0,4.9-1.7,4.9-4.9V31.4
			C126.3,28.2,124.6,26.5,121.4,26.5z M121.8,32.2v11.6c0,0.7-0.3,1-1,1h-2c-0.7,0-1-0.3-1-1V32.2c0-0.7,0.3-1,1-1h2
			C121.4,31.1,121.8,31.5,121.8,32.2z"/>
		<path class="st0" d="M137.4,26.5h-3.6c-3.1,0-4.9,1.7-4.9,4.9v5.5c0,0.7,0.3,1.2,1,1.4l7.5,2.4v3c0,0.7-0.3,1-1,1h-1.7
			c-0.7,0-1-0.3-1-1v-1.3c0-0.5-0.3-0.8-0.8-0.8h-3.2c-0.5,0-0.8,0.3-0.8,0.8v2.1c0,3.1,1.7,4.9,4.9,4.9h3.6c3.1,0,4.9-1.7,4.9-4.9
			v-6c0-0.7-0.3-1.2-1-1.4l-7.6-2.4v-2.5c0-0.7,0.4-1,1-1h1.8c0.7,0,1,0.3,1,1v1.3c0,0.5,0.3,0.8,0.8,0.8h3.2c0.5,0,0.8-0.3,0.8-0.8
			v-2.1C142.3,28.2,140.6,26.5,137.4,26.5z"/>
		<path class="st0" d="M153.1,26.5h-3.6c-3.1,0-4.9,1.7-4.9,4.9v13.2c0,3.1,1.7,4.9,4.9,4.9h3.6c3.1,0,4.9-1.7,4.9-4.9V31.4
			C158,28.2,156.2,26.5,153.1,26.5z M153.4,32.2v11.6c0,0.7-0.3,1-1,1h-2c-0.7,0-1-0.3-1-1V32.2c0-0.7,0.3-1,1-1h2
			C153.1,31.1,153.4,31.5,153.4,32.2z"/>
		<path class="st0" d="M161,49.4h10.2c0.5,0,0.8-0.3,0.8-0.8v-3.2c0-0.5-0.3-0.8-0.8-0.8h-6.1V27.3c0-0.5-0.3-0.8-0.8-0.8H161
			c-0.5,0-0.8,0.3-0.8,0.8v21.4C160.3,49.1,160.5,49.4,161,49.4z"/>
		<path class="st0" d="M178.5,49.4h3.6c3.1,0,4.9-1.7,4.9-4.9V31.4c0-3.1-1.7-4.9-4.9-4.9h-3.6c-3.1,0-4.9,1.7-4.9,4.9v13.2
			C173.7,47.7,175.4,49.4,178.5,49.4z M178.3,43.7V32.2c0-0.7,0.3-1,1-1h2c0.7,0,1,0.3,1,1v11.6c0,0.7-0.3,1-1,1h-2
			C178.7,44.8,178.3,44.4,178.3,43.7z"/>
		<path class="st0" d="M105.4,54.2h-3.6c-3.1,0-4.9,1.7-4.9,4.9v5.5c0,0.7,0.3,1.2,1,1.4l7.5,2.4v3c0,0.7-0.3,1-1,1h-1.7
			c-0.7,0-1-0.3-1-1v-1.3c0-0.5-0.3-0.8-0.8-0.8h-3.2c-0.5,0-0.8,0.3-0.8,0.8v2.1c0,3.1,1.7,4.9,4.9,4.9h3.6c3.1,0,4.9-1.7,4.9-4.9
			v-6c0-0.7-0.3-1.2-1-1.4l-7.6-2.4v-2.5c0-0.7,0.4-1,1-1h1.8c0.7,0,1,0.3,1,1v1.3c0,0.5,0.3,0.8,0.8,0.8h3.2c0.5,0,0.8-0.3,0.8-0.8
			V59C110.2,55.9,108.5,54.2,105.4,54.2z"/>
		<path class="st0" d="M121.4,54.2h-3.6c-3.1,0-4.9,1.7-4.9,4.9v13.2c0,3.1,1.7,4.9,4.9,4.9h3.6c3.1,0,4.9-1.7,4.9-4.9V59
			C126.3,55.9,124.6,54.2,121.4,54.2z M121.8,59.8v11.6c0,0.7-0.3,1-1,1h-2c-0.7,0-1-0.3-1-1V59.8c0-0.7,0.3-1,1-1h2
			C121.4,58.8,121.8,59.1,121.8,59.8z"/>
		<path class="st0" d="M141.5,54.2h-11.8c-0.5,0-0.8,0.3-0.8,0.8v21.4c0,0.5,0.3,0.8,0.8,0.8h3.3c0.5,0,0.8-0.3,0.8-0.8v-7.7h5.8
			c0.5,0,0.8-0.3,0.8-0.8v-3.2c0-0.5-0.3-0.8-0.8-0.8h-5.8v-5h7.7c0.5,0,0.8-0.3,0.8-0.8v-3.2C142.3,54.5,142,54.2,141.5,54.2z"/>
		<path class="st0" d="M157.2,54.2h-11.8c-0.5,0-0.8,0.3-0.8,0.8v3.2c0,0.5,0.3,0.8,0.8,0.8h3.5v17.4c0,0.5,0.3,0.8,0.8,0.8h3.3
			c0.5,0,0.8-0.3,0.8-0.8V58.9h3.5c0.5,0,0.8-0.3,0.8-0.8v-3.2C158,54.4,157.7,54.2,157.2,54.2z"/>
		<path class="st0" d="M182.3,54.4c-0.1-0.1-0.3-0.3-0.7-0.3h-3c-0.5,0-0.8,0.3-0.9,0.8l-1.5,12.4l-2.9-12.5
			c-0.1-0.5-0.5-0.7-0.9-0.7h-2c-0.5,0-0.8,0.3-0.9,0.7l-2.9,12.5L165,55c-0.1-0.5-0.4-0.8-0.9-0.8h-3c-0.4,0-0.6,0.1-0.7,0.3
			c-0.1,0.1-0.2,0.3-0.2,0.7l2.9,21.1c0.1,0.5,0.4,0.8,1,0.8h3.5c0.3,0,0.8-0.1,0.9-0.8l2.7-12l2.7,12c0.2,0.6,0.6,0.8,0.9,0.8h3.5
			c0.5,0,0.9-0.3,1-0.8l3.1-21.1C182.5,54.8,182.4,54.6,182.3,54.4z"/>
		<path class="st0" d="M193.6,54.8c-0.1-0.4-0.4-0.7-0.8-0.7h-4.4c-0.4,0-0.7,0.2-0.8,0.6l-5.3,21.4c-0.1,0.3,0,0.5,0.1,0.6
			s0.3,0.2,0.6,0.2h3.1c0.4,0,0.7-0.2,0.8-0.6l0.9-3.8h5.6l1,3.8c0.1,0.4,0.4,0.6,0.8,0.6h3.1c0.3,0,0.5-0.1,0.6-0.2
			s0.2-0.3,0.1-0.6L193.6,54.8z M192.3,68.4h-3.4l1.7-7.3L192.3,68.4z"/>
		<path class="st0" d="M209.1,54.2h-7.7c-0.5,0-0.8,0.3-0.8,0.8v21.4c0,0.5,0.3,0.8,0.8,0.8h3.1c0.5,0,0.8-0.3,0.8-0.8v-6h2.4
			l1.5,6.1c0.1,0.5,0.5,0.6,0.8,0.6h3.1c0.3,0,0.5-0.1,0.6-0.2s0.2-0.3,0.1-0.6l-1.6-6.7c1.2-0.8,1.8-2.2,1.8-4V59
			C214,55.9,212.3,54.2,209.1,54.2z M209.3,59.8v4.8c0,0.7-0.3,1-1,1h-2.9v-6.9h2.9C209,58.8,209.3,59.1,209.3,59.8z"/>
		<path class="st0" d="M229.2,58.9c0.5,0,0.8-0.3,0.8-0.8v-3.2c0-0.5-0.3-0.8-0.8-0.8h-11.8c-0.4,0-0.7,0.3-0.7,0.8v21.4
			c0,0.4,0.3,0.8,0.7,0.8h11.8c0.5,0,0.8-0.3,0.8-0.8v-3.2c0-0.5-0.3-0.8-0.8-0.8h-7.6v-4.2h5.8c0.5,0,0.8-0.3,0.8-0.8v-3.2
			c0-0.5-0.3-0.8-0.8-0.8h-5.8v-4.4C221.6,58.9,229.2,58.9,229.2,58.9z"/>
	</g>
	<path class="st1" d="M85.5,25L71,16.7c-1.4-0.8-3-0.8-4.4,0l-10.5,6l-10.5-6c-1.4-0.8-3-0.8-4.4,0L26.8,25
		c-1.4,0.8-2.2,2.3-2.2,3.8v45.8c0,1.6,0.8,3,2.2,3.8l14.4,8.3c1.4,0.8,3,0.8,4.4,0l10.5-6l10.5,6c1.4,0.8,3,0.8,4.4,0l14.4-8.3
		c1.4-0.8,2.2-2.3,2.2-3.8V28.8C87.7,27.3,86.8,25.8,85.5,25z M41.8,79.9l-9.3-5.3c-1-0.6-1.7-1.7-1.7-2.9V31.9
		c0-1.2,0.6-2.3,1.7-2.9l9.2-5.4c1-0.6,2.3-0.6,3.3,0l22,12.6c1,0.6,1.7,1.7,1.7,2.9v25.3c0,0.8-0.9,1.4-1.7,1l-3.6-2.1
		c-0.7-0.4-1.1-1.1-1.1-1.9V42.8c0-1.2-0.6-2.3-1.7-2.9l-16.2-9.3c-0.7-0.4-1.5-0.4-2.2,0l-3.4,2c-1,0.6-1.6,1.7-1.6,2.9V68
		c0,1.2,0.6,2.3,1.6,2.9l10.9,6.4L45,80C44.1,80.5,42.8,80.5,41.8,79.9z M67.2,79.9l-22-12.7c-1-0.6-1.7-1.7-1.7-2.9V39.1
		c0-0.8,0.9-1.4,1.6-1l3.6,2.1c0.7,0.4,1.1,1.1,1.1,1.9v18.6c0,1.2,0.6,2.3,1.7,2.9L67.7,73c0.7,0.4,1.5,0.4,2.2,0l3.5-2.1
		c1-0.6,1.6-1.7,1.6-2.8V35.5c0-1.2-0.6-2.3-1.7-2.9l-10.9-6.3l4.7-2.7c1-0.6,2.3-0.6,3.3,0l9.3,5.4c1,0.6,1.7,1.7,1.7,2.9v39.8
		c0,1.2-0.6,2.3-1.7,2.9l-9.3,5.3C69.4,80.5,68.2,80.5,67.2,79.9z"/>
</g>
</svg>
