<?xml version="1.0" encoding="UTF-8" standalone="no"?>
<!-- Created with Inkscape (http://www.inkscape.org/) -->

<svg
   version="1.1"
   id="svg2"
   xml:space="preserve"
   width="1122.52"
   height="793.70135"
   viewBox="0 0 1122.52 793.70135"
   sodipodi:docname="logo-rabanales21.svg"
   inkscape:version="1.1.1 (1:1.1+202109281946+c3084ef5ed)"
   xmlns:inkscape="http://www.inkscape.org/namespaces/inkscape"
   xmlns:sodipodi="http://sodipodi.sourceforge.net/DTD/sodipodi-0.dtd"
   xmlns="http://www.w3.org/2000/svg"
   xmlns:svg="http://www.w3.org/2000/svg"><defs
     id="defs6"><clipPath
       clipPathUnits="userSpaceOnUse"
       id="clipPath16"><path
         d="M 0,595.276 H 841.89 V 0 H 0 Z"
         id="path14" /></clipPath></defs><sodipodi:namedview
     id="namedview4"
     pagecolor="#ffffff"
     bordercolor="#666666"
     borderopacity="1.0"
     inkscape:pageshadow="2"
     inkscape:pageopacity="0.0"
     inkscape:pagecheckerboard="0"
     showgrid="false"
     inkscape:zoom="0.51845697"
     inkscape:cx="698.22574"
     inkscape:cy="532.3489"
     inkscape:window-width="1920"
     inkscape:window-height="995"
     inkscape:window-x="0"
     inkscape:window-y="48"
     inkscape:window-maximized="1"
     inkscape:current-layer="g8" /><g
     id="g8"
     inkscape:groupmode="layer"
     inkscape:label="logo-rabanales21"
     transform="matrix(1.3333333,0,0,-1.3333333,0,793.70133)"><g
       id="g10"><g
         id="g12"
         clip-path="url(#clipPath16)"><g
           id="g18"
           transform="translate(96.3052,414.2112)"><path
             d="m 0,0 c -1.521,-1.101 -3.606,-1.655 -6.203,-1.655 h -8.178 v 12.74 h 8.178 C -3.61,11.085 -1.521,10.531 0,9.437 1.342,8.46 1.995,6.914 1.995,4.708 1.995,2.501 1.346,0.963 0,0 m -14.381,-11.592 h 8.178 c 1.977,0 4.041,0.237 6.138,0.704 2.242,0.495 4.324,1.349 6.188,2.545 1.936,1.247 3.544,2.953 4.794,5.087 1.244,2.162 1.875,4.868 1.875,8.04 0,3.012 -0.587,5.619 -1.754,7.767 -1.17,2.108 -2.746,3.825 -4.697,5.101 -1.874,1.215 -4.044,2.097 -6.443,2.622 -2.275,0.496 -4.722,0.748 -7.264,0.748 h -17.39 v -55.729 h 10.375 z"
             style="fill:#2c5888;fill-opacity:1;fill-rule:nonzero;stroke:none"
             id="path20" /></g><g
           id="g22"
           transform="translate(123.2744,402.0793)"><path
             d="M 0,0 7.501,17.748 14.637,0 Z m -9.502,-22.575 5.301,12.653 h 22.897 l 5.24,-12.653 H 35.688 L 12.004,33.154 H 3.468 l -24.551,-55.729 z"
             style="fill:#2c5888;fill-opacity:1;fill-rule:nonzero;stroke:none"
             id="path24" /></g><g
           id="g26"
           transform="translate(186.6211,415.4182)"><path
             d="m 0,0 c -0.762,-0.864 -1.703,-1.484 -2.91,-1.9 -1.258,-0.455 -2.742,-0.737 -4.394,-0.831 -1.783,-0.091 -3.501,-0.131 -5.181,-0.131 h -3.304 v 12.74 h 6.439 c 1.444,0 2.852,-0.087 4.186,-0.266 C -3.902,9.444 -2.812,9.12 -1.841,8.631 -0.992,8.193 -0.321,7.588 0.204,6.779 0.7,6.017 0.948,4.912 0.948,3.5 0.948,1.929 0.616,0.715 0,0 m -15.789,-12.799 h 4.514 L 2.684,-35.914 H 15.169 L 0.142,-11.519 c 3.074,0.893 5.619,2.359 7.596,4.375 2.662,2.732 4.011,6.312 4.011,10.644 0,3.607 -0.729,6.553 -2.163,8.759 -1.414,2.181 -3.285,3.866 -5.557,5 -2.166,1.079 -4.612,1.786 -7.271,2.104 -2.556,0.299 -5.123,0.452 -7.635,0.452 h -15.287 v -55.729 h 10.375 z"
             style="fill:#2c5888;fill-opacity:1;fill-rule:nonzero;stroke:none"
             id="path28" /></g><g
           id="g30"
           transform="translate(212.7007,408.0305)"><path
             d="m 0,0 c 0,2.56 0.448,5.014 1.331,7.282 0.9,2.264 2.148,4.244 3.715,5.896 1.583,1.674 3.417,2.968 5.605,3.953 2.181,0.977 4.511,1.448 7.125,1.448 2.608,0 5,-0.485 7.125,-1.448 2.2,-0.981 4.037,-2.276 5.627,-3.964 1.561,-1.637 2.812,-3.621 3.709,-5.885 0.886,-2.239 1.334,-4.69 1.334,-7.282 0,-2.644 -0.456,-5.116 -1.353,-7.34 -0.929,-2.28 -2.198,-4.274 -3.77,-5.933 -1.568,-1.656 -3.409,-2.939 -5.634,-3.913 -4.332,-1.885 -9.864,-1.856 -14.09,-0.007 -2.203,0.977 -4.033,2.26 -5.612,3.934 C 3.533,-11.61 2.305,-9.678 1.356,-7.352 0.456,-5.116 0,-2.644 0,0 m -2.589,-20.311 c 2.516,-2.512 5.553,-4.532 9.036,-6.009 3.482,-1.466 7.297,-2.214 11.329,-2.214 h 32.016 v 9.499 h -11.3 c 1.652,1.627 3.03,3.395 4.197,5.397 1.192,2.002 2.115,4.216 2.746,6.582 0.627,2.356 0.948,4.729 0.948,7.056 0,3.989 -0.744,7.774 -2.214,11.26 -1.48,3.486 -3.503,6.524 -6.016,9.036 -2.534,2.516 -5.569,4.54 -9.029,6.01 C 22.145,29.237 13.441,29.245 6.439,26.302 2.961,24.825 -0.077,22.801 -2.593,20.289 -5.098,17.78 -7.118,14.743 -8.602,11.256 -10.068,7.771 -10.815,3.982 -10.815,0 c 0,-4.008 0.747,-7.8 2.216,-11.275 1.466,-3.475 3.49,-6.513 6.01,-9.036"
             style="fill:#2c5888;fill-opacity:1;fill-rule:nonzero;stroke:none"
             id="path32" /></g><g
           id="g34"
           transform="translate(270.1543,385.2766)"><path
             d="m 0,0 c 1.725,-2.151 3.997,-3.898 6.771,-5.193 2.743,-1.25 6.068,-1.889 9.89,-1.889 3.894,0 7.143,0.62 9.94,1.896 2.738,1.281 5.003,3.023 6.739,5.186 1.706,2.125 2.964,4.624 3.73,7.413 0.759,2.677 1.145,5.561 1.145,8.573 V 49.953 H 27.837 V 16.865 c 0,-1.944 -0.2,-3.818 -0.594,-5.572 C 26.86,9.594 26.233,8.106 25.369,6.844 24.555,5.63 23.479,4.682 22.072,3.942 20.701,3.22 18.878,2.855 16.661,2.855 14.451,2.855 12.635,3.22 11.26,3.945 9.856,4.682 8.781,5.63 7.96,6.855 7.104,8.121 6.476,9.616 6.097,11.275 5.7,13.102 5.499,14.983 5.499,16.865 V 49.953 H -4.861 V 15.986 c 0,-2.986 0.38,-5.863 1.12,-8.558 C -2.976,4.66 -1.721,2.162 0,0"
             style="fill:#2c5888;fill-opacity:1;fill-rule:nonzero;stroke:none"
             id="path36" /></g><g
           id="g38"
           transform="translate(354.603,389.4226)"><path
             d="M 0,0 H -27.553 V 14.061 H -3.06 v 9.937 h -24.493 v 11.876 h 26.251 v 9.937 H -37.913 V -9.918 l 37.913,0 z"
             style="fill:#2c5888;fill-opacity:1;fill-rule:nonzero;stroke:none"
             id="path40" /></g><g
           id="g42"
           transform="translate(385.1494,386.509)"><path
             d="m 0,0 c 2.523,-2.582 5.554,-4.642 9.029,-6.123 3.471,-1.455 7.223,-2.195 11.147,-2.195 4.394,0 8.416,0.796 11.971,2.371 3.614,1.633 6.713,4.153 9.214,7.489 l 1.207,1.608 -7.81,6.575 -1.36,-1.728 C 31.757,5.907 29.879,4.35 27.68,3.242 23.479,1.178 17.528,1.054 13.113,3.085 10.983,4.08 9.134,5.44 7.614,7.136 6.071,8.843 4.85,10.881 3.989,13.193 3.121,15.52 2.684,18.094 2.684,20.851 c 0,2.566 0.437,5.039 1.305,7.358 0.872,2.345 2.108,4.416 3.687,6.173 1.568,1.773 3.376,3.14 5.542,4.186 3.942,1.911 8.85,2.16 13.19,0.161 1.98,-0.904 3.592,-2.221 4.926,-4.022 l 1.254,-1.696 8.785,6.385 -1.328,1.732 c -2.406,3.14 -5.444,5.448 -9.032,6.867 -7.329,2.851 -15.687,2.64 -22.24,-0.252 -3.449,-1.535 -6.465,-3.628 -8.97,-6.228 -2.483,-2.596 -4.452,-5.71 -5.864,-9.273 -1.371,-3.552 -2.067,-7.384 -2.067,-11.391 0,-4.198 0.726,-8.107 2.159,-11.633 C -4.503,5.645 -2.494,2.545 0,0"
             style="fill:#2c5888;fill-opacity:1;fill-rule:nonzero;stroke:none"
             id="path44" /></g><path
           d="M 441.549,435.229 H 431.19 V 379.5 h 10.359 z"
           style="fill:#2c5888;fill-opacity:1;fill-rule:nonzero;stroke:none"
           id="path46" /><g
           id="g48"
           transform="translate(487.9941,389.4226)"><path
             d="m 0,0 h -27.534 v 14.061 h 24.493 v 9.937 h -24.493 v 11.876 h 26.232 v 9.937 h -36.61 V -9.918 l 37.912,0 z"
             style="fill:#2c5888;fill-opacity:1;fill-rule:nonzero;stroke:none"
             id="path50" /></g><g
           id="g52"
           transform="translate(503.5576,417.8064)"><path
             d="M 0,0 26.706,-38.302 H 37.664 V 17.427 H 27.29 V -20.897 L 0.587,17.427 H -10.359 V -38.302 H 0 Z"
             style="fill:#2c5888;fill-opacity:1;fill-rule:nonzero;stroke:none"
             id="path54" /></g><g
           id="g56"
           transform="translate(561.168,379.4895)"><path
             d="m 0,0 h 10.359 v 45.811 h 17.015 v 9.305 h 2.942 V 0.015 H 40.677 V 55.744 H 37.146 L 51.135,69.837 H 36.946 L 26.772,55.747 H -17.015 V 45.811 H 0 Z"
             style="fill:#2c5888;fill-opacity:1;fill-rule:nonzero;stroke:none"
             id="path58" /></g><g
           id="g60"
           transform="translate(610.3809,379.5041)"><path
             d="m 0,0 h 10.374 v 23.115 h 23.98 v 9.937 h -23.98 v 12.74 h 25.795 v 9.937 H 0 Z"
             style="fill:#2c5888;fill-opacity:1;fill-rule:nonzero;stroke:none"
             id="path62" /></g><path
           d="m 650.795,379.5 h 10.374 v 55.729 h -10.374 z"
           style="fill:#2c5888;fill-opacity:1;fill-rule:nonzero;stroke:none"
           id="path64" /><g
           id="g66"
           transform="translate(708.2441,394.5056)"><path
             d="m 0,0 c -1.641,-2.089 -3.519,-3.646 -5.717,-4.755 -4.19,-2.064 -10.141,-2.195 -14.568,-0.157 -2.129,0.995 -3.978,2.356 -5.499,4.052 -1.542,1.706 -2.764,3.741 -3.628,6.052 -0.864,2.331 -1.302,4.909 -1.302,7.662 0,2.563 0.438,5.04 1.302,7.355 0.875,2.348 2.111,4.423 3.686,6.173 1.573,1.78 3.384,3.147 5.547,4.19 3.946,1.911 8.857,2.155 13.189,0.16 1.955,-0.889 3.61,-2.242 4.923,-4.022 l 1.255,-1.699 8.784,6.389 -1.327,1.732 c -2.404,3.139 -5.441,5.451 -9.03,6.866 -7.321,2.848 -15.679,2.636 -22.239,-0.251 -3.457,-1.539 -6.473,-3.632 -8.971,-6.228 -2.483,-2.597 -4.452,-5.711 -5.863,-9.273 -1.375,-3.559 -2.071,-7.392 -2.071,-11.392 0,-4.187 0.725,-8.099 2.159,-11.636 1.469,-3.57 3.482,-6.673 5.973,-9.211 2.515,-2.582 5.545,-4.642 9.025,-6.126 3.471,-1.455 7.22,-2.195 11.146,-2.195 4.398,0 8.42,0.795 11.976,2.37 3.613,1.633 6.713,4.153 9.214,7.49 L 9.171,-4.846 1.36,1.729 Z"
             style="fill:#2c5888;fill-opacity:1;fill-rule:nonzero;stroke:none"
             id="path68" /></g><g
           id="g70"
           transform="translate(765.1436,407.3596)"><path
             d="m 0,0 c 0,-2.662 -0.452,-5.211 -1.338,-7.563 -0.908,-2.352 -2.141,-4.347 -3.774,-6.108 -1.59,-1.732 -3.46,-3.066 -5.714,-4.077 -4.488,-1.983 -10.309,-1.976 -14.768,-0.007 -2.287,1.025 -4.165,2.359 -5.751,4.095 -1.626,1.75 -2.855,3.745 -3.756,6.082 -0.893,2.367 -1.345,4.916 -1.345,7.578 0,2.709 0.437,5.189 1.342,7.577 0.893,2.319 2.159,4.372 3.774,6.108 1.571,1.725 3.449,3.06 5.726,4.077 2.256,0.999 4.673,1.484 7.39,1.484 2.677,0 5.16,-0.5 7.377,-1.477 2.265,-1.017 4.135,-2.352 5.733,-4.095 1.6,-1.725 2.87,-3.778 3.759,-6.086 C -0.437,5.189 0,2.709 0,0 m 8.657,11.61 c -1.459,3.585 -3.501,6.706 -6.064,9.273 -2.564,2.56 -5.652,4.613 -9.203,6.108 -7.089,2.906 -16.132,2.91 -23.244,-0.011 -3.554,-1.499 -6.639,-3.555 -9.163,-6.093 -2.586,-2.571 -4.63,-5.692 -6.079,-9.288 -1.425,-3.57 -2.151,-7.472 -2.151,-11.599 0,-4.131 0.726,-8.03 2.155,-11.588 1.445,-3.592 3.489,-6.714 6.065,-9.274 2.559,-2.574 5.648,-4.631 9.196,-6.118 3.54,-1.452 7.449,-2.188 11.617,-2.188 4.153,0 8.059,0.736 11.614,2.195 3.512,1.466 6.604,3.519 9.193,6.104 2.563,2.567 4.605,5.689 6.071,9.284 1.415,3.53 2.138,7.428 2.138,11.585 0,4.149 -0.723,8.051 -2.145,11.61"
             style="fill:#2c5888;fill-opacity:1;fill-rule:nonzero;stroke:none"
             id="path72" /></g><g
           id="g74"
           transform="translate(82.9595,305.0285)"><path
             d="m 0,0 h 10.359 v 45.796 h 17.018 v 9.937 H -17.015 V 45.796 H 0 Z"
             style="fill:#2c5888;fill-opacity:1;fill-rule:nonzero;stroke:none"
             id="path76" /></g><g
           id="g78"
           transform="translate(149.8867,350.8244)"><path
             d="M 0,0 V 9.937 H -36.611 V -45.796 H 1.302 v 9.922 h -27.538 v 14.076 H -1.74 v 9.918 H -26.236 V 0 Z"
             style="fill:#2c5888;fill-opacity:1;fill-rule:nonzero;stroke:none"
             id="path80" /></g><g
           id="g82"
           transform="translate(181.7056,303.7307)"><path
             d="m 0,0 c 4.391,0 8.413,0.795 11.964,2.363 3.61,1.615 6.713,4.138 9.226,7.5 l 1.203,1.612 -7.807,6.542 -1.36,-1.718 C 11.607,14.247 9.674,12.649 7.497,11.556 3.329,9.47 -2.655,9.342 -7.063,11.398 c -2.17,1.015 -3.967,2.334 -5.499,4.041 -1.532,1.696 -2.753,3.738 -3.628,6.071 -0.861,2.305 -1.298,4.879 -1.298,7.654 0,2.578 0.437,5.051 1.298,7.352 0.886,2.366 2.126,4.441 3.686,6.176 1.572,1.766 3.435,3.169 5.554,4.183 3.916,1.922 8.846,2.173 13.189,0.153 1.933,-0.871 3.592,-2.22 4.923,-4.011 l 1.255,-1.681 8.78,6.352 -1.323,1.736 c -2.415,3.165 -5.456,5.477 -9.026,6.867 -7.183,2.829 -15.654,2.658 -22.24,-0.245 -3.463,-1.524 -6.483,-3.621 -8.973,-6.225 -2.491,-2.585 -4.464,-5.702 -5.871,-9.276 -1.371,-3.545 -2.068,-7.377 -2.068,-11.381 0,-4.182 0.726,-8.095 2.159,-11.624 1.448,-3.56 3.46,-6.663 5.969,-9.226 2.516,-2.575 5.55,-4.635 9.029,-6.119 C -7.687,0.74 -3.935,0 0,0"
             style="fill:#2c5888;fill-opacity:1;fill-rule:nonzero;stroke:none"
             id="path84" /></g><g
           id="g86"
           transform="translate(255.5903,305.0285)"><path
             d="m 0,0 v 55.733 h -10.36 v -38.31 l -26.721,38.31 H -48.024 V 0 H -37.65 V 38.306 L -10.947,0 Z"
             style="fill:#2c5888;fill-opacity:1;fill-rule:nonzero;stroke:none"
             id="path88" /></g><g
           id="g90"
           transform="translate(271.9409,332.8947)"><path
             d="m 0,0 c 0,2.651 0.456,5.196 1.35,7.563 0.897,2.323 2.162,4.383 3.759,6.119 1.582,1.717 3.512,3.085 5.743,4.073 2.206,0.992 4.686,1.491 7.377,1.491 2.691,0 5.174,-0.499 7.391,-1.498 2.221,-0.981 4.15,-2.349 5.729,-4.062 1.593,-1.733 2.859,-3.793 3.756,-6.112 0.9,-2.374 1.356,-4.923 1.356,-7.574 0,-2.651 -0.456,-5.196 -1.353,-7.559 -0.904,-2.337 -2.166,-4.394 -3.763,-6.122 -1.553,-1.693 -3.486,-3.064 -5.736,-4.073 -4.426,-1.984 -10.33,-1.984 -14.757,0 -2.25,1.009 -4.183,2.38 -5.743,4.073 C 3.515,-11.949 2.25,-9.889 1.356,-7.57 0.456,-5.192 0,-2.647 0,0 m -8.649,-11.584 c 1.429,-3.578 3.475,-6.703 6.071,-9.285 2.582,-2.581 5.678,-4.634 9.2,-6.104 3.523,-1.455 7.428,-2.191 11.607,-2.191 4.182,0 8.088,0.736 11.614,2.191 3.519,1.47 6.611,3.523 9.189,6.101 2.596,2.581 4.642,5.706 6.075,9.288 1.418,3.522 2.137,7.42 2.137,11.584 0,4.165 -0.719,8.063 -2.133,11.585 -1.433,3.581 -3.479,6.706 -6.068,9.277 C 36.479,23.443 33.384,25.5 29.832,26.98 22.787,29.883 13.696,29.89 6.615,26.973 3.074,25.496 -0.018,23.439 -2.57,20.873 -5.178,18.284 -7.22,15.159 -8.649,11.585 -10.064,8.055 -10.786,4.157 -10.786,0 c 0,-4.157 0.722,-8.055 2.137,-11.584"
             style="fill:#2c5888;fill-opacity:1;fill-rule:nonzero;stroke:none"
             id="path92" /></g><g
           id="g94"
           transform="translate(358.6758,314.9509)"><path
             d="m 0,0 h -23.556 v 45.811 h -10.36 V -9.922 l 33.916,0 z"
             style="fill:#2c5888;fill-opacity:1;fill-rule:nonzero;stroke:none"
             id="path96" /></g><g
           id="g98"
           transform="translate(387.1475,352.1408)"><path
             d="m 0,0 c 2.691,0 5.174,-0.5 7.392,-1.499 2.22,-0.98 4.149,-2.348 5.728,-4.062 1.594,-1.732 2.859,-3.792 3.756,-6.111 0.901,-2.374 1.356,-4.923 1.356,-7.574 0,-2.651 -0.455,-5.196 -1.353,-7.559 -0.904,-2.338 -2.165,-4.394 -3.763,-6.122 C 11.563,-34.62 9.63,-35.991 7.38,-37 c -4.426,-1.984 -10.33,-1.984 -14.756,0 -2.25,1.009 -4.183,2.38 -5.744,4.073 -1.593,1.732 -2.859,3.792 -3.752,6.111 -0.904,2.381 -1.36,4.93 -1.36,7.57 0,2.644 0.456,5.193 1.353,7.563 0.897,2.323 2.162,4.383 3.759,6.119 1.583,1.717 3.512,3.085 5.744,4.073 C -5.17,-0.5 -2.691,0 0,0 m -20.807,-40.115 c 2.582,-2.581 5.678,-4.635 9.201,-6.104 3.522,-1.455 7.427,-2.191 11.606,-2.191 4.183,0 8.088,0.736 11.614,2.191 3.519,1.469 6.611,3.523 9.189,6.101 2.596,2.581 4.642,5.706 6.079,9.287 1.415,3.53 2.137,7.428 2.137,11.585 0,4.157 -0.722,8.055 -2.137,11.585 -1.433,3.581 -3.479,6.706 -6.068,9.277 C 18.25,4.197 15.155,6.254 11.603,7.734 8.89,8.85 5.948,9.543 2.833,9.806 L 15.644,22.729 H 1.458 L -8.635,8.759 c -1.017,-0.288 -2.012,-0.631 -2.979,-1.032 -3.541,-1.477 -6.633,-3.534 -9.185,-6.101 -2.608,-2.588 -4.65,-5.713 -6.076,-9.287 -1.418,-3.53 -2.14,-7.428 -2.14,-11.585 0,-4.157 0.722,-8.055 2.137,-11.585 1.429,-3.577 3.475,-6.702 6.071,-9.284"
             style="fill:#2c5888;fill-opacity:1;fill-rule:nonzero;stroke:none"
             id="path100" /></g><g
           id="g102"
           transform="translate(427.4922,354.0334)"><path
             d="m 0,0 c -2.713,-2.531 -4.872,-5.626 -6.418,-9.204 -1.546,-3.562 -2.33,-7.573 -2.33,-11.927 0,-4.278 0.737,-8.256 2.195,-11.837 1.491,-3.592 3.577,-6.705 6.202,-9.247 2.63,-2.563 5.788,-4.577 9.39,-5.984 3.592,-1.389 7.574,-2.096 11.837,-2.096 3.519,0 7.02,0.408 10.403,1.207 3.457,0.816 6.786,2.11 9.893,3.85 l 1.091,0.609 v 28.672 H 20.048 v -9.922 h 11.837 v -12.31 c -1.401,-0.627 -2.936,-1.124 -4.591,-1.484 -5.095,-1.153 -9.955,-0.869 -13.908,0.725 -2.381,0.977 -4.343,2.283 -6.013,4.004 -1.663,1.692 -2.972,3.741 -3.901,6.1 -0.942,2.345 -1.419,4.942 -1.419,7.713 0,2.811 0.477,5.429 1.426,7.792 0.915,2.334 2.224,4.369 3.894,6.053 1.648,1.674 3.632,3.001 5.915,3.96 4.124,1.784 9.422,2.039 14.235,0.055 2.185,-0.886 4.066,-2.173 5.598,-3.821 l 1.542,-1.659 7.566,7.945 -1.472,1.47 C 38.058,3.358 34.955,5.288 31.52,6.403 24.289,8.744 16.096,8.529 9.47,5.918 5.863,4.511 2.677,2.516 0,0"
             style="fill:#2c5888;fill-opacity:1;fill-rule:nonzero;stroke:none"
             id="path104" /></g><path
           d="m 478.287,305.032 h 10.36 v 55.729 h -10.36 z"
           style="fill:#2c5888;fill-opacity:1;fill-rule:nonzero;stroke:none"
           id="path106" /><g
           id="g108"
           transform="translate(533.3633,360.0212)"><path
             d="m 0,0 c -7.184,2.83 -15.661,2.658 -22.235,-0.245 -3.454,-1.509 -6.473,-3.606 -8.975,-6.22 -2.509,-2.589 -4.481,-5.711 -5.874,-9.281 -1.371,-3.544 -2.067,-7.377 -2.067,-11.38 0,-4.183 0.725,-8.095 2.154,-11.618 1.437,-3.563 3.45,-6.669 5.974,-9.233 2.526,-2.589 5.56,-4.646 9.024,-6.119 3.45,-1.454 7.202,-2.195 11.151,-2.195 4.398,0 8.416,0.795 11.946,2.363 3.606,1.605 6.71,4.128 9.229,7.501 l 1.199,1.608 -7.788,6.549 -1.36,-1.721 c -1.615,-2.046 -3.552,-3.643 -5.754,-4.748 -4.136,-2.082 -10.155,-2.206 -14.535,-0.153 -2.162,1.01 -4.008,2.367 -5.499,4.04 -1.531,1.696 -2.753,3.738 -3.628,6.072 -0.875,2.337 -1.316,4.912 -1.316,7.654 0,2.545 0.441,5.017 1.316,7.351 0.886,2.359 2.118,4.438 3.672,6.177 1.564,1.754 3.431,3.161 5.572,4.186 3.832,1.893 8.806,2.17 13.186,0.15 1.943,-0.875 3.554,-2.192 4.929,-4.019 l 1.254,-1.67 8.752,6.349 -1.312,1.728 C 6.615,-3.705 3.581,-1.393 0,0"
             style="fill:#2c5888;fill-opacity:1;fill-rule:nonzero;stroke:none"
             id="path110" /></g><g
           id="g112"
           transform="translate(561.2959,319.2209)"><path
             d="m 0,0 c -1.594,1.717 -2.863,3.774 -3.764,6.104 -0.889,2.348 -1.341,4.894 -1.341,7.57 0,2.677 0.452,5.225 1.337,7.563 0.905,2.337 2.17,4.394 3.775,6.118 1.583,1.718 3.512,3.085 5.743,4.074 2.235,1.003 4.649,1.491 7.377,1.491 2.691,0 5.175,-0.5 7.392,-1.499 2.198,-0.973 4.124,-2.34 5.717,-4.069 1.601,-1.721 2.867,-3.778 3.767,-6.104 0.89,-2.349 1.342,-4.897 1.342,-7.574 0,-2.676 -0.452,-5.222 -1.338,-7.559 -0.904,-2.341 -2.174,-4.398 -3.775,-6.122 -1.593,-1.725 -3.463,-3.06 -5.724,-4.074 -4.46,-1.994 -10.306,-1.991 -14.758,0 C 3.5,-3.071 1.567,-1.7 0,0 m 13.127,-15.49 c 4.168,0 8.073,0.736 11.614,2.191 3.512,1.466 6.604,3.519 9.197,6.104 2.574,2.578 4.616,5.7 6.071,9.284 1.415,3.53 2.137,7.428 2.137,11.585 0,4.157 -0.722,8.055 -2.141,11.592 -1.447,3.574 -3.489,6.695 -6.064,9.273 -2.571,2.578 -5.667,4.635 -9.214,6.115 -7.079,2.907 -16.118,2.907 -23.232,-0.007 -3.559,-1.492 -6.647,-3.548 -9.168,-6.101 -2.606,-2.588 -4.648,-5.713 -6.078,-9.287 -1.426,-3.555 -2.151,-7.453 -2.151,-11.585 0,-4.132 0.725,-8.029 2.151,-11.585 1.43,-3.577 3.475,-6.702 6.067,-9.276 2.553,-2.571 5.642,-4.624 9.194,-6.116 3.533,-1.451 7.442,-2.187 11.617,-2.187"
             style="fill:#2c5888;fill-opacity:1;fill-rule:nonzero;stroke:none"
             id="path114" /></g><g
           id="g116"
           transform="translate(80.9829,240.4748)"><path
             d="m 0,0 v 35.874 h 9.496 c 2.756,0 5.305,-0.357 7.577,-1.071 2.239,-0.69 4.175,-1.747 5.765,-3.155 1.59,-1.393 2.873,-3.227 3.818,-5.444 0.941,-2.239 1.418,-5.017 1.418,-8.26 0,-3.241 -0.477,-6.019 -1.415,-8.248 C 25.711,7.469 24.428,5.634 22.834,4.234 21.244,2.834 19.304,1.772 17.062,1.083 14.768,0.365 12.223,0 9.496,0 Z m 17.317,-9.287 c 2.046,0.408 4.102,1.083 6.108,1.998 1.972,0.893 3.927,2.093 5.823,3.574 1.944,1.553 3.57,3.315 4.97,5.382 1.426,2.089 2.568,4.507 3.392,7.184 0.849,2.719 1.28,5.783 1.28,9.093 0,3.308 -0.431,6.371 -1.28,9.11 -0.832,2.69 -1.973,5.104 -3.392,7.183 -1.429,2.097 -3.11,3.902 -4.97,5.353 -1.852,1.476 -3.755,2.651 -5.819,3.588 -1.984,0.905 -4.037,1.583 -6.108,2.013 -2.035,0.409 -3.982,0.62 -5.798,0.62 H -10.374 V -9.922 h 21.897 c 1.845,0 3.799,0.216 5.794,0.635"
             style="fill:#2c5888;fill-opacity:1;fill-rule:nonzero;stroke:none"
             id="path118" /></g><g
           id="g120"
           transform="translate(163.3345,240.4748)"><path
             d="m 0,0 h -27.552 v 14.076 h 24.493 v 9.918 h -24.493 v 11.88 h 26.25 v 9.937 h -36.61 V -9.922 l 37.912,0 z"
             style="fill:#2c5888;fill-opacity:1;fill-rule:nonzero;stroke:none"
             id="path122" /></g><g
           id="g124"
           transform="translate(193.8813,237.5764)"><path
             d="m 0,0 c 2.516,-2.582 5.546,-4.642 9.028,-6.126 3.472,-1.455 7.224,-2.195 11.148,-2.195 4.39,0 8.412,0.795 11.964,2.363 3.613,1.618 6.716,4.139 9.225,7.5 L 42.569,3.154 34.762,9.692 33.405,7.979 C 31.782,5.933 29.846,4.336 27.651,3.23 23.472,1.138 17.543,1.018 13.112,3.077 10.936,4.095 9.142,5.415 7.614,7.118 6.075,8.82 4.857,10.859 3.985,13.189 c -0.864,2.312 -1.301,4.886 -1.301,7.654 0,2.571 0.437,5.043 1.305,7.362 0.871,2.345 2.108,4.416 3.683,6.166 1.568,1.762 3.432,3.165 5.554,4.183 3.916,1.918 8.82,2.188 13.189,0.153 1.933,-0.871 3.592,-2.221 4.922,-4.011 l 1.255,-1.681 8.781,6.352 -1.324,1.736 C 37.631,44.268 34.59,46.58 31.021,47.969 23.837,50.799 15.362,50.624 8.781,47.725 5.316,46.2 2.297,44.104 -0.193,41.5 -2.68,38.911 -4.653,35.794 -6.061,32.228 -7.432,28.687 -8.128,24.857 -8.128,20.843 -8.128,16.649 -7.402,12.74 -5.969,9.218 -4.518,5.652 -2.505,2.549 0,0"
             style="fill:#2c5888;fill-opacity:1;fill-rule:nonzero;stroke:none"
             id="path126" /></g><g
           id="g128"
           transform="translate(265.9644,277.6692)"><path
             d="m 0,0 c 2.684,0 5.164,-0.5 7.388,-1.499 2.217,-0.98 4.146,-2.348 5.732,-4.065 1.594,-1.733 2.859,-3.792 3.753,-6.112 0.904,-2.382 1.359,-4.929 1.359,-7.574 0,-2.64 -0.455,-5.188 -1.352,-7.559 -0.905,-2.337 -2.166,-4.394 -3.76,-6.119 -1.564,-1.699 -3.497,-3.07 -5.743,-4.076 -4.427,-1.984 -10.331,-1.984 -14.757,0 -2.246,1.006 -4.176,2.377 -5.74,4.076 -1.593,1.725 -2.855,3.782 -3.755,6.109 -0.901,2.373 -1.357,4.919 -1.357,7.569 0,2.651 0.456,5.2 1.353,7.563 0.9,2.331 2.166,4.39 3.759,6.123 1.583,1.717 3.512,3.085 5.74,4.073 C -5.167,-0.5 -2.684,0 0,0 m -20.81,-40.115 c 2.589,-2.585 5.681,-4.642 9.207,-6.112 3.522,-1.451 7.428,-2.187 11.603,-2.187 4.172,0 8.073,0.736 11.614,2.195 3.512,1.466 6.604,3.519 9.186,6.101 2.603,2.581 4.645,5.706 6.078,9.284 1.415,3.533 2.137,7.431 2.137,11.584 0,4.157 -0.722,8.056 -2.137,11.589 -1.429,3.569 -3.475,6.695 -6.067,9.272 C 18.254,4.187 15.159,6.246 11.603,7.73 8.883,8.847 5.944,9.543 2.826,9.802 L 15.64,22.729 H 1.455 L -8.642,8.755 c -1.017,-0.288 -2.005,-0.634 -2.972,-1.028 -3.548,-1.481 -6.644,-3.538 -9.189,-6.104 -2.6,-2.582 -4.642,-5.707 -6.078,-9.284 -1.415,-3.527 -2.134,-7.428 -2.134,-11.589 0,-4.16 0.719,-8.059 2.134,-11.584 1.436,-3.585 3.482,-6.71 6.071,-9.281"
             style="fill:#2c5888;fill-opacity:1;fill-rule:nonzero;stroke:none"
             id="path130" /></g><g
           id="g132"
           transform="translate(327.6626,269.9719)"><path
             d="M 0,0 C 0,-1.583 -0.321,-2.761 -0.948,-3.482 -1.71,-4.347 -2.684,-4.989 -3.876,-5.4 c -1.28,-0.464 -2.717,-0.738 -4.376,-0.832 -1.797,-0.091 -3.515,-0.131 -5.182,-0.131 h -3.317 v 12.74 h 6.439 c 1.451,0 2.866,-0.087 4.201,-0.266 1.25,-0.168 2.333,-0.489 3.318,-0.988 0.85,-0.431 1.524,-1.036 2.049,-1.831 C -0.248,2.53 0,1.422 0,0 m 10.801,0 c 0,3.605 -0.729,6.553 -2.159,8.755 -1.418,2.191 -3.289,3.88 -5.575,5.024 -2.181,1.073 -4.628,1.769 -7.271,2.075 -2.56,0.303 -5.124,0.459 -7.621,0.459 h -15.286 v -55.732 h 10.36 v 23.134 h 4.51 L 1.736,-39.419 H 14.221 L -0.816,-15.01 c 3.077,0.894 5.619,2.357 7.587,4.365 2.673,2.739 4.03,6.324 4.03,10.645"
             style="fill:#2c5888;fill-opacity:1;fill-rule:nonzero;stroke:none"
             id="path134" /></g><g
           id="g136"
           transform="translate(381.0542,250.1711)"><path
             d="m 0,0 c -0.948,-2.228 -2.231,-4.062 -3.829,-5.462 -1.582,-1.4 -3.519,-2.462 -5.768,-3.151 -2.294,-0.718 -4.839,-1.083 -7.567,-1.083 h -9.495 v 35.874 h 9.495 c 2.757,0 5.306,-0.358 7.578,-1.072 2.242,-0.689 4.178,-1.747 5.765,-3.154 1.59,-1.393 2.873,-3.227 3.818,-5.444 C 0.941,14.262 1.418,11.482 1.418,8.248 1.418,5.014 0.941,2.235 0,0 m -9.342,-18.983 c 2.046,0.408 4.102,1.083 6.108,1.998 1.972,0.893 3.927,2.092 5.823,3.574 1.944,1.553 3.57,3.314 4.97,5.382 1.426,2.089 2.567,4.507 3.392,7.183 0.849,2.72 1.279,5.783 1.279,9.094 0,3.308 -0.43,6.371 -1.279,9.109 -0.832,2.691 -1.973,5.105 -3.392,7.184 -1.429,2.097 -3.11,3.901 -4.97,5.353 -1.852,1.476 -3.756,2.651 -5.819,3.587 -1.984,0.906 -4.037,1.583 -6.108,2.014 -2.028,0.408 -3.979,0.619 -5.795,0.619 h -21.9 v -55.732 h 21.9 c 1.845,0 3.8,0.216 5.791,0.635"
             style="fill:#2c5888;fill-opacity:1;fill-rule:nonzero;stroke:none"
             id="path138" /></g><g
           id="g140"
           transform="translate(443.1133,258.4192)"><path
             d="m 0,0 c 0,-2.65 -0.455,-5.196 -1.353,-7.559 -0.904,-2.337 -2.166,-4.394 -3.759,-6.123 -1.565,-1.695 -3.493,-3.066 -5.74,-4.072 -4.426,-1.984 -10.33,-1.984 -14.757,0 -2.246,1.006 -4.179,2.377 -5.743,4.076 -1.594,1.725 -2.855,3.782 -3.756,6.109 -0.901,2.373 -1.356,4.919 -1.356,7.569 0,2.651 0.455,5.2 1.352,7.563 0.901,2.331 2.166,4.39 3.76,6.119 1.586,1.721 3.515,3.089 5.743,4.077 2.213,0.991 4.693,1.491 7.377,1.491 2.684,0 5.167,-0.5 7.391,-1.499 2.217,-0.98 4.147,-2.348 5.729,-4.065 1.593,-1.733 2.859,-3.792 3.756,-6.112 C -0.455,5.2 0,2.651 0,0 m -6.629,26.98 c -7.059,2.903 -16.136,2.907 -23.217,-0.003 -3.545,-1.481 -6.636,-3.538 -9.185,-6.104 -2.604,-2.589 -4.65,-5.715 -6.079,-9.288 C -46.529,8.022 -47.247,4.128 -47.247,0 c 0,-4.124 0.718,-8.019 2.137,-11.584 1.433,-3.578 3.475,-6.703 6.071,-9.281 2.589,-2.589 5.685,-4.642 9.204,-6.112 3.53,-1.451 7.431,-2.187 11.603,-2.187 4.171,0 8.073,0.736 11.614,2.191 3.508,1.466 6.603,3.519 9.185,6.105 2.597,2.57 4.642,5.695 6.082,9.284 1.415,3.525 2.134,7.424 2.134,11.584 0,4.161 -0.719,8.063 -2.134,11.589 -1.436,3.581 -3.482,6.706 -6.071,9.272 -2.559,2.578 -5.651,4.635 -9.207,6.119"
             style="fill:#2c5888;fill-opacity:1;fill-rule:nonzero;stroke:none"
             id="path142" /></g><g
           id="g144"
           transform="translate(487.5605,250.7258)"><path
             d="m 0,0 c 0.507,-0.861 0.762,-2.014 0.762,-3.417 0,-1.262 -0.244,-2.257 -0.755,-3.049 -0.551,-0.867 -1.254,-1.542 -2.122,-2.056 -1.061,-0.606 -2.173,-1.029 -3.406,-1.294 -1.342,-0.288 -2.691,-0.435 -4.015,-0.435 h -8.197 V 3.825 h 8.347 c 1.44,0 2.819,-0.132 4.124,-0.401 1.229,-0.241 2.305,-0.65 3.176,-1.207 C -1.215,1.647 -0.536,0.93 0,0 m -7.479,14.023 c -1.302,-0.189 -2.629,-0.28 -3.95,-0.28 h -6.304 v 11.88 h 6.958 c 1.239,0 2.486,-0.095 3.682,-0.284 1.113,-0.19 2.057,-0.503 2.866,-0.952 0.741,-0.415 1.321,-0.962 1.765,-1.652 0.405,-0.631 0.606,-1.556 0.606,-2.749 0,-1.393 -0.23,-2.468 -0.69,-3.202 C -3.038,16 -3.657,15.409 -4.449,14.983 -5.356,14.49 -6.37,14.17 -7.479,14.023 m -2.783,21.537 h -17.827 v -55.733 h 17.463 c 2.48,0 4.944,0.23 7.53,0.7 2.604,0.46 5.006,1.313 7.151,2.535 2.224,1.272 4.04,2.99 5.393,5.101 1.404,2.17 2.115,4.927 2.115,8.193 0,1.952 -0.343,3.811 -1.021,5.562 C 9.849,3.643 8.919,5.127 7.68,6.476 6.505,7.716 5.108,8.755 3.493,9.582 c 0.941,0.697 1.779,1.495 2.513,2.393 1.958,2.334 2.953,5.297 2.953,8.813 0,2.775 -0.616,5.156 -1.823,7.074 -1.182,1.9 -2.724,3.439 -4.566,4.57 -1.779,1.119 -3.846,1.935 -6.133,2.424 -2.151,0.467 -4.405,0.704 -6.699,0.704"
             style="fill:#2c5888;fill-opacity:1;fill-rule:nonzero;stroke:none"
             id="path146" /></g><g
           id="g148"
           transform="translate(533.9033,253.132)"><path
             d="m 0,0 h -14.655 l 7.505,17.755 z m -11.184,33.153 -24.551,-55.732 h 11.581 l 5.312,12.657 H 4.044 L 9.28,-22.579 H 21.051 L -2.637,33.153 Z"
             style="fill:#2c5888;fill-opacity:1;fill-rule:nonzero;stroke:none"
             id="path150" /></g><g
           id="g152"
           transform="translate(597.1191,195.3264)"><path
             d="M 0,0 H 20.561 V 9.31 H -9.311 Z"
             style="fill:#2c5888;fill-opacity:1;fill-rule:nonzero;stroke:none"
             id="path154" /></g><path
           d="m 624.389,195.324 h 9.563 v 67.572 h -9.563 z"
           style="fill:#2c5888;fill-opacity:1;fill-rule:nonzero;stroke:none"
           id="path156" /><g
           id="g158"
           transform="translate(584.7852,207.6594)"><path
             d="M 0,0 C 6.846,5.619 9.86,7.868 18.036,14.635 36.18,27.3 29.269,55.238 3.831,55.238 c -14.009,0 -21.694,-9.79 -23.417,-21.788 l 9.692,-0.769 c 1.154,7.484 5.465,12.865 13.725,12.865 15.643,0 18.242,-15.942 7.677,-23.515 h 0.097 L -6.562,6.566 Z"
             style="fill:#2c5888;fill-opacity:1;fill-rule:nonzero;stroke:none"
             id="path160" /></g><g
           id="g162"
           transform="translate(234.0063,167.8781)"><path
             d="M 0,0 C 0,-3.878 -3.211,-6.053 -8.792,-6.053 H -22.969 V 6.146 h 13.99 C -2.833,6.146 0,3.78 0,0.187 Z m -22.969,30.632 h 11.909 c 5.483,0 8.32,-2.082 8.32,-5.675 v -0.186 c 0,-3.878 -3.116,-5.764 -8.698,-5.764 h -11.531 z m -96.009,-9.175 c 0,-4.825 -3.592,-7.845 -9.832,-7.845 h -12.1 v 15.88 h 12.007 c 6.146,0 9.925,-2.649 9.925,-7.848 z M 330.288,20.42 c -9.165,2.081 -11.438,3.402 -11.438,6.426 v 0.191 c 0,2.361 2.18,4.256 6.622,4.256 4.335,0 9.081,-1.255 13.71,-3.616 L 320.698,46.146 C 307.949,44.401 300.324,36.202 300.324,25.334 v -0.187 c 0,-13.617 10.868,-17.584 24.952,-20.803 8.983,-2.076 11.163,-3.589 11.163,-6.328 v -0.192 c 0,-2.837 -2.65,-4.536 -7.569,-4.536 -7.654,0 -14.938,2.744 -21.457,7.943 l -6.303,-7.533 v 1.103 H 265.569 V 5.297 h 31.761 v 14.461 h -31.761 v 10.019 h 35.069 V 45.378 H 247.42 V -4.728 h -26.444 v 50.106 h -18.34 V -9.738 L 179.143,45.849 H 161.461 L 140.291,-4.24 V 45.378 H 122.138 V 10.396 L 94.917,45.378 H 77.81 V -7.974 L 55.062,45.849 H 37.375 L 18.14,0.329 c -0.948,7.206 -5.759,11.107 -12.937,13.48 5.861,2.543 10.206,7.084 10.206,14.741 v 0.182 c 0,4.545 -1.605,8.04 -4.251,10.682 -3.878,3.878 -9.735,5.964 -18.055,5.964 h -33.94 V 1.456 l -18.766,44.393 h -17.672 l -25.47,-60.252 -11.412,16.672 c 8.227,3.499 13.613,10.21 13.613,20.327 v 0.186 c 0,6.525 -1.984,11.629 -5.862,15.409 -4.442,4.537 -11.437,7.187 -21.55,7.187 h -31.294 v -66.173 h 18.34 v 20.039 h 7.844 0.191 l 13.329,-20.039 h 14.099 v 0 h 19.286 l 17.58,44.36 17.49,-44.36 h 19.66 24.721 c 7.52,0 13.539,1.582 17.802,4.447 l -1.879,-4.447 h 19.282 l 17.583,44.36 17.486,-44.36 h 19.665 12.729 v 36.302 l 28.265,-36.302 h 9.071 -0.001 19.288 l 17.578,44.36 17.49,-44.36 h 19.661 -0.001 40.111 5.606 48.084 v 6.804 c 7.628,-5.253 17.146,-7.938 27.101,-7.938 16.068,0 26.749,8.031 26.749,21.55 v 0.192 c 0,12.384 -9.45,17.293 -24.672,20.607"
             style="fill:#2c5888;fill-opacity:1;fill-rule:nonzero;stroke:none"
             id="path164" /></g></g></g></g></svg>
