<?xml version="1.0" encoding="UTF-8" standalone="no"?>
<!-- Created with Inkscape (http://www.inkscape.org/) -->

<svg
   width="249.99998"
   height="231.50986"
   viewBox="0 0 66.145829 61.253653"
   version="1.1"
   id="svg847"
   inkscape:version="1.1.1 (1:1.1+202109281946+c3084ef5ed)"
   sodipodi:docname="rti.svg"
   xmlns:inkscape="http://www.inkscape.org/namespaces/inkscape"
   xmlns:sodipodi="http://sodipodi.sourceforge.net/DTD/sodipodi-0.dtd"
   xmlns="http://www.w3.org/2000/svg"
   xmlns:svg="http://www.w3.org/2000/svg">
  <sodipodi:namedview
     id="namedview849"
     pagecolor="#ffffff"
     bordercolor="#666666"
     borderopacity="1.0"
     inkscape:pageshadow="2"
     inkscape:pageopacity="0.0"
     inkscape:pagecheckerboard="false"
     inkscape:document-units="mm"
     showgrid="false"
     fit-margin-top="5"
     fit-margin-left="5"
     fit-margin-right="5"
     fit-margin-bottom="5"
     units="px"
     lock-margins="true"
     inkscape:zoom="1.466344"
     inkscape:cx="-67.514854"
     inkscape:cy="34.098411"
     inkscape:window-width="1920"
     inkscape:window-height="995"
     inkscape:window-x="0"
     inkscape:window-y="48"
     inkscape:window-maximized="1"
     inkscape:current-layer="layer1" />
  <defs
     id="defs844">
    <clipPath
       id="clip-path-3-0-1">
      <rect
         class="cls-1"
         x="91.120003"
         y="392.04999"
         width="467.76001"
         height="64.82"
         id="rect7-3-8" />
    </clipPath>
    <clipPath
       id="clip-path-4-5">
      <rect
         class="cls-1"
         x="91.120003"
         y="392.04999"
         width="467.76001"
         height="64.809998"
         id="rect10-7" />
    </clipPath>
    <clipPath
       id="clip-path-5-6-0">
      <rect
         class="cls-1"
         x="77.889999"
         y="664.90997"
         width="494.20999"
         height="146.06"
         id="rect131-9" />
    </clipPath>
    <clipPath
       id="clipPath1301">
      <rect
         class="cls-1"
         x="77.889999"
         y="664.90997"
         width="494.20999"
         height="146.06"
         id="rect1299" />
    </clipPath>
  </defs>
  <g
     inkscape:label="Layer 1"
     inkscape:groupmode="layer"
     id="layer1"
     transform="translate(-46.549754,-60.923108)">
    <g
       id="g1138"
       transform="matrix(1.3031699,0,0,1.3031699,-22.246997,-287.16374)">
      <path
         style="fill:#ec8b04;stroke-width:0.395768"
         d="m 53.929905,302.70733 0.122902,-10.3889 1.256325,-2.65192 c 1.524916,-3.2189 3.998202,-5.78257 6.881543,-7.13303 2.269296,-1.06285 5.558362,-1.89019 7.514431,-1.89019 h 1.167823 v 4.55132 4.55133 h -1.458118 c -2.024573,0 -4.689241,1.38832 -5.650774,2.94411 -0.753106,1.21855 -0.806459,1.93672 -0.806459,10.85553 v 9.55065 h -4.575287 -4.575287 z m 29.731973,9.65387 c -4.414768,-1.52552 -7.15266,-4.40372 -8.015295,-8.42605 -0.25231,-1.17648 -0.42021,-7.64443 -0.42021,-16.18753 v -14.22815 h 4.140152 4.140149 l 0.114353,3.46297 0.114349,3.46296 2.671431,0.11703 2.671431,0.11702 v 4.53325 4.53324 h -2.82415 -2.824146 l 0.19549,5.83757 c 0.134905,4.02848 0.387207,6.28937 0.814129,7.29542 0.664724,1.56642 2.352767,2.69771 4.025372,2.69771 h 1.009073 v 3.7598 3.75979 l -1.879896,-0.0129 c -1.033943,-0.007 -2.803447,-0.33206 -3.932232,-0.72211 z M 93.82745,296.86976 v -16.22647 h 4.155559 4.155561 v 10.21727 c 0,5.67974 -0.19149,11.25311 -0.43117,12.5497 -0.51654,2.79419 -1.852074,5.54123 -3.39066,6.97418 -1.167217,1.08709 -3.67412,2.70772 -4.192465,2.71031 -0.163254,8.1e-4 -0.296825,-7.30043 -0.296825,-16.22499 z m 1.70727,-20.16445 c -1.634944,-0.9969 -2.103038,-1.92721 -2.103038,-4.17968 0,-1.49233 0.211807,-2.04923 1.127756,-2.96517 2.99188,-2.99189 7.974902,-1.01273 7.974902,3.16747 0,1.82721 -1.06483,3.55113 -2.586068,4.18674 -1.814543,0.75817 -2.912164,0.7061 -4.413552,-0.20936 z"
         id="path1142"
         inkscape:connector-curvature="0" />
      <path
         style="fill:#004b96;stroke-width:0.395768"
         d="m 53.929905,302.70733 0.122902,-10.3889 1.256325,-2.65192 c 1.524916,-3.2189 3.998202,-5.78257 6.881543,-7.13303 2.269296,-1.06285 5.558362,-1.89019 7.514431,-1.89019 h 1.167823 v 4.55132 4.55133 h -1.458118 c -2.024573,0 -4.689241,1.38832 -5.650774,2.94411 -0.753106,1.21855 -0.806459,1.93672 -0.806459,10.85553 v 9.55065 h -4.575287 -4.575287 z m 29.731973,9.65387 c -4.414768,-1.52552 -7.15266,-4.40372 -8.015295,-8.42605 -0.25231,-1.17648 -0.42021,-7.64443 -0.42021,-16.18753 v -14.22815 h 4.140152 4.140149 l 0.114353,3.46297 0.114349,3.46296 2.671431,0.11703 2.671431,0.11702 v 4.53325 4.53324 h -2.82415 -2.824146 l 0.19549,5.83757 c 0.134905,4.02848 0.387207,6.28937 0.814129,7.29542 0.664724,1.56642 2.352767,2.69771 4.025372,2.69771 h 1.009073 v 3.7598 3.75979 l -1.879896,-0.0129 c -1.033943,-0.007 -2.803447,-0.33206 -3.932232,-0.72211 z M 93.82745,296.86976 v -16.22647 h 4.155559 4.155561 v 10.21727 c 0,5.67974 -0.19149,11.25311 -0.43117,12.5497 -0.51654,2.79419 -1.852074,5.54123 -3.39066,6.97418 -1.167217,1.08709 -3.67412,2.70772 -4.192465,2.71031 -0.163254,8.1e-4 -0.296825,-7.30043 -0.296825,-16.22499 z"
         id="path1140"
         inkscape:connector-curvature="0" />
    </g>
  </g>
</svg>
