<?xml version="1.0" encoding="UTF-8" standalone="no"?>
<!-- Created with Inkscape (http://www.inkscape.org/) -->

<svg
   width="250"
   height="77.365738"
   viewBox="0 0 66.145833 20.469686"
   version="1.1"
   id="svg847"
   inkscape:version="1.1.1 (1:1.1+202109281946+c3084ef5ed)"
   sodipodi:docname="atmira.svg"
   xmlns:inkscape="http://www.inkscape.org/namespaces/inkscape"
   xmlns:sodipodi="http://sodipodi.sourceforge.net/DTD/sodipodi-0.dtd"
   xmlns="http://www.w3.org/2000/svg"
   xmlns:svg="http://www.w3.org/2000/svg">
  <sodipodi:namedview
     id="namedview849"
     pagecolor="#ffffff"
     bordercolor="#666666"
     borderopacity="1.0"
     inkscape:pageshadow="2"
     inkscape:pageopacity="0.0"
     inkscape:pagecheckerboard="false"
     inkscape:document-units="mm"
     showgrid="false"
     fit-margin-top="5"
     fit-margin-left="5"
     fit-margin-right="5"
     fit-margin-bottom="5"
     units="px"
     lock-margins="true"
     inkscape:zoom="2.932688"
     inkscape:cx="113.88869"
     inkscape:cy="39.554157"
     inkscape:window-width="1920"
     inkscape:window-height="995"
     inkscape:window-x="0"
     inkscape:window-y="48"
     inkscape:window-maximized="1"
     inkscape:current-layer="layer1" />
  <defs
     id="defs844">
    <clipPath
       id="clip-path-3-0-1">
      <rect
         class="cls-1"
         x="91.120003"
         y="392.04999"
         width="467.76001"
         height="64.82"
         id="rect7-3-8" />
    </clipPath>
    <clipPath
       id="clip-path-4-5">
      <rect
         class="cls-1"
         x="91.120003"
         y="392.04999"
         width="467.76001"
         height="64.809998"
         id="rect10-7" />
    </clipPath>
    <clipPath
       id="clip-path-5-6-0">
      <rect
         class="cls-1"
         x="77.889999"
         y="664.90997"
         width="494.20999"
         height="146.06"
         id="rect131-9" />
    </clipPath>
    <clipPath
       id="clipPath1301">
      <rect
         class="cls-1"
         x="77.889999"
         y="664.90997"
         width="494.20999"
         height="146.06"
         id="rect1299" />
    </clipPath>
  </defs>
  <g
     inkscape:label="Layer 1"
     inkscape:groupmode="layer"
     id="layer1"
     transform="translate(-22.112317,-59.382876)">
    <g
       transform="matrix(0.13781235,0,0,0.13781235,10.33086,-32.192383)"
       class="cls-40"
       clip-path="url(#clip-path-5-6-0)"
       id="g394">
      <g
         class="cls-40"
         clip-path="url(#clip-path-5-6-0)"
         id="g392">
        <path
           class="cls-41"
           d="m 169.51,792.91 1.54,0.92 q -3.27,9.57 -14.94,9.58 a 17.34,17.34 0 0 1 -10.7,-3.2 24.05,24.05 0 0 1 -5.8,-7.3 59.91,59.91 0 0 1 -9.16,7.21 27.65,27.65 0 0 1 -13.69,3.29 q -10,0 -15.82,-4.84 a 16.05,16.05 0 0 1 -5.84,-13 17.79,17.79 0 0 1 4.79,-12.68 21.45,21.45 0 0 1 6.25,-4.52 60.06,60.06 0 0 1 10.23,-3.42 q 7.88,-2 11.63,-3.37 a 24.24,24.24 0 0 0 6.29,-3.29 11,11 0 0 0 4,-4.92 22.47,22.47 0 0 0 1.09,-7.85 q 0,-10.66 -4,-15.6 a 13.17,13.17 0 0 0 -4.66,-3.65 13.58,13.58 0 0 0 -5.93,-1.36 11.59,11.59 0 0 0 -11,7.2 l -2.26,5.29 a 6.53,6.53 0 0 1 -6.52,4.29 7.06,7.06 0 0 1 -5.16,-2 6.94,6.94 0 0 1 -2.08,-5.16 q 0,-4.65 6.53,-7.84 a 39.16,39.16 0 0 1 8.75,-2.69 51.66,51.66 0 0 1 10.2,-1 50.22,50.22 0 0 1 11.7,1.46 39.94,39.94 0 0 1 10.15,3.74 q 5.9,3.38 7.35,8.76 a 40.7,40.7 0 0 1 0.72,9.21 v 33.75 q 0,8.58 0.73,11.68 1.53,6.46 7.42,6.47 a 8.18,8.18 0 0 0 4.39,-1 15.86,15.86 0 0 0 3.76,-4 m -30,-35.94 a 60.52,60.52 0 0 1 -10.74,7.21 94.24,94.24 0 0 0 -9.11,5.38 24.06,24.06 0 0 0 -4.6,4.38 19.1,19.1 0 0 0 -4.24,12.32 15,15 0 0 0 3.29,9.94 10.45,10.45 0 0 0 8.35,3.92 14.13,14.13 0 0 0 8.34,-2.78 17.22,17.22 0 0 0 5.92,-7.43 q 2.79,-6.12 2.79,-17.7 z"
           id="path380"
           inkscape:connector-curvature="0"
           style="fill:#88664c" />
        <path
           class="cls-41"
           d="m 194.58,724.23 h 23 v 3.46 h -23 v 53.09 q 0,9.59 3.25,13.69 a 11.48,11.48 0 0 0 4.51,3.55 14.23,14.23 0 0 0 6,1.28 12.52,12.52 0 0 0 6.77,-1.69 23.35,23.35 0 0 0 6,-6.15 l 1.35,1.18 a 18.81,18.81 0 0 1 -8.37,8.12 30.46,30.46 0 0 1 -13.45,2.65 q -10.68,0 -15.57,-4.2 a 10.16,10.16 0 0 1 -3.43,-5.25 c -0.55,-2 -0.82,-5.7 -0.82,-11 v -55.27 h -9.69 v -1.46 a 25.45,25.45 0 0 0 10.87,-7.38 36.5,36.5 0 0 0 4.82,-6.71 47.62,47.62 0 0 0 3.47,-8.62 l 0.91,-3 h 3.37 z"
           id="path382"
           inkscape:connector-curvature="0"
           style="fill:#88664c" />
        <path
           class="cls-41"
           d="m 245.08,722.86 a 71.66,71.66 0 0 1 2.09,12.68 41,41 0 0 1 12.81,-9.4 34.88,34.88 0 0 1 14.8,-3.28 q 8.52,0 14.22,4.38 3.44,2.64 7.87,9.21 a 49.07,49.07 0 0 1 13.85,-10.31 34.83,34.83 0 0 1 15,-3.28 q 10.86,0 17.7,6 a 19.76,19.76 0 0 1 6.83,15.62 v 30.89 l 0.09,6.92 a 41,41 0 0 0 0.72,9.07 9.83,9.83 0 0 0 2.72,4.78 q 2.63,2.46 9.41,3.74 v 1.91 h -40 v -1.91 q 5.43,-0.74 7.74,-2.05 a 9.94,9.94 0 0 0 3.85,-4.51 20.05,20.05 0 0 0 1.4,-6.33 q 0.42,-4.25 0.41,-12.17 v -17.4 a 122.4,122.4 0 0 0 -0.63,-14.76 22.71,22.71 0 0 0 -2.44,-7.92 Q 329.29,727 318.91,727 q -11.21,0 -16.26,8.39 -4.42,7.18 -4.42,22.41 v 17.58 l 0.09,6.92 a 40.9,40.9 0 0 0 0.72,9.07 9.83,9.83 0 0 0 2.72,4.78 q 2.53,2.46 9.41,3.74 v 1.91 h -40 v -1.91 q 5.43,-0.74 7.74,-2.05 a 9.94,9.94 0 0 0 3.85,-4.51 20.05,20.05 0 0 0 1.4,-6.33 q 0.41,-4.25 0.41,-12.17 v -16.89 a 128.3,128.3 0 0 0 -0.68,-15.62 20.9,20.9 0 0 0 -2.57,-8.07 13.8,13.8 0 0 0 -5.6,-5.14 17.39,17.39 0 0 0 -8.13,-1.87 19.88,19.88 0 0 0 -9.66,2.46 19,19 0 0 0 -7.14,6.65 25.28,25.28 0 0 0 -3.47,9 71.15,71.15 0 0 0 -1,13.53 v 16.67 l 0.09,6.74 a 40.9,40.9 0 0 0 0.72,9.07 9.45,9.45 0 0 0 2.81,4.78 q 2.54,2.46 9.32,3.74 v 1.91 h -40 v -1.91 q 5.43,-0.74 7.79,-2.05 a 9.38,9.38 0 0 0 3.8,-4.5 20.05,20.05 0 0 0 1.4,-6.33 q 0.41,-4.23 0.41,-12.24 v -22.5 a 129,129 0 0 0 -0.45,-13.15 14.39,14.39 0 0 0 -2,-6.14 9.47,9.47 0 0 0 -3.71,-3.68 16,16 0 0 0 -6.24,-1.41 V 726 Z"
           id="path384"
           inkscape:connector-curvature="0"
           style="fill:#88664c" />
        <path
           class="cls-41"
           d="m 368.47,726.14 26.07,-3.28 v 52.54 l 0.1,6.91 a 40.71,40.71 0 0 0 0.72,9 9.42,9.42 0 0 0 2.81,4.77 q 2.52,2.46 9.32,3.73 v 1.91 h -40 v -1.91 a 23.23,23.23 0 0 0 7.78,-2 9.4,9.4 0 0 0 3.81,-4.5 19.83,19.83 0 0 0 1.4,-6.3 q 0.4,-4.23 0.41,-12.21 v -22.42 a 127.42,127.42 0 0 0 -0.46,-13.11 14.16,14.16 0 0 0 -2,-6.13 9.58,9.58 0 0 0 -3.71,-3.67 16.08,16.08 0 0 0 -6.25,-1.41 z m 18.88,-36 a 8,8 0 0 1 -5.87,-2.28 8.17,8.17 0 0 1 0,-11.45 8.49,8.49 0 0 1 11.66,0 8.17,8.17 0 0 1 0,11.45 8,8 0 0 1 -5.87,2.28"
           id="path386"
           inkscape:connector-curvature="0"
           style="fill:#88664c" />
        <path
           class="cls-41"
           d="m 438.27,736.9 a 26.33,26.33 0 0 1 7.33,-8.66 28.63,28.63 0 0 1 17.11,-5.38 q 5.88,0 9,2.64 a 7.36,7.36 0 0 1 2.81,5.83 5.6,5.6 0 0 1 -1.68,4.2 5.89,5.89 0 0 1 -4.3,1.64 6.93,6.93 0 0 1 -5.34,-2.55 l -2.8,-3.1 a 10.5,10.5 0 0 0 -7.88,-3.55 q -6.15,0 -9.6,8 -3.45,8 -3.44,22.32 v 17 l 0.1,6.93 a 40.91,40.91 0 0 0 0.72,9.06 9.45,9.45 0 0 0 2.81,4.78 q 2.52,2.46 9.32,3.74 v 1.91 h -40 v -1.91 c 3.62,-0.49 6.21,-1.16 7.78,-2 a 9.4,9.4 0 0 0 3.81,-4.5 19.83,19.83 0 0 0 1.4,-6.3 q 0.4,-4.23 0.41,-12.21 v -22.41 a 124.53,124.53 0 0 0 -0.46,-13.11 14.16,14.16 0 0 0 -2,-6.13 9.68,9.68 0 0 0 -3.71,-3.68 16.28,16.28 0 0 0 -6.25,-1.4 v -1.92 l 23.34,-3.28 a 76.78,76.78 0 0 1 1.56,14"
           id="path388"
           inkscape:connector-curvature="0"
           style="fill:#88664c" />
        <path
           class="cls-41"
           d="m 554.32,792.91 1.54,0.92 q -3.27,9.57 -14.94,9.58 a 17.34,17.34 0 0 1 -10.7,-3.2 24.05,24.05 0 0 1 -5.8,-7.3 59.42,59.42 0 0 1 -9.16,7.21 27.64,27.64 0 0 1 -13.68,3.29 q -10,0 -15.82,-4.84 a 16,16 0 0 1 -5.85,-13 17.79,17.79 0 0 1 4.8,-12.68 21.4,21.4 0 0 1 6.24,-4.52 60.37,60.37 0 0 1 10.23,-3.42 q 7.88,-2 11.63,-3.37 a 24.07,24.07 0 0 0 6.29,-3.29 11,11 0 0 0 4,-4.92 22.75,22.75 0 0 0 1.08,-7.85 q 0,-10.66 -4,-15.6 a 13.17,13.17 0 0 0 -4.66,-3.65 13.58,13.58 0 0 0 -5.93,-1.36 11.56,11.56 0 0 0 -11,7.2 l -2.27,5.29 a 6.53,6.53 0 0 1 -6.51,4.29 7,7 0 0 1 -5.16,-2 7,7 0 0 1 -2.09,-5.16 q 0,-4.65 6.53,-7.84 a 39.32,39.32 0 0 1 8.75,-2.69 51.66,51.66 0 0 1 10.2,-1 50.22,50.22 0 0 1 11.7,1.46 39.94,39.94 0 0 1 10.26,3.6 q 5.89,3.38 7.35,8.76 A 40.7,40.7 0 0 1 538,746 v 33.75 q 0,8.58 0.73,11.68 1.53,6.46 7.42,6.47 a 8.15,8.15 0 0 0 4.39,-1 15.68,15.68 0 0 0 3.76,-4 m -30,-35.94 a 60.08,60.08 0 0 1 -10.73,7.21 94.75,94.75 0 0 0 -9.12,5.38 24.35,24.35 0 0 0 -4.6,4.38 19.1,19.1 0 0 0 -4.24,12.32 15,15 0 0 0 3.39,9.95 10.45,10.45 0 0 0 8.35,3.92 14.16,14.16 0 0 0 8.35,-2.78 17.27,17.27 0 0 0 5.91,-7.43 q 2.79,-6.12 2.79,-17.7 z"
           id="path390"
           inkscape:connector-curvature="0"
           style="fill:#88664c" />
      </g>
    </g>
  </g>
</svg>
