<svg xmlns="http://www.w3.org/2000/svg" viewBox="0 0 643.5848 111.4085">
  <title>certainly-logo-full-colour-rgb</title>
  <g id="full-rgb">
    <g id="logoMark">
      <rect id="logoMark_PathItem_" data-name="logoMark &lt;PathItem&gt;" x="84.491" y="14.0922" width="38.4358" height="38.4358" rx="19.2179" style="fill: #ee1c4e"/>
      <rect id="logoMark_PathItem_2" data-name="logoMark &lt;PathItem&gt;" x="34.2031" y="36.3013" width="30.5739" height="30.5739" rx="15.2869" style="fill: #fcb669"/>
      <rect id="logoMark_PathItem_3" data-name="logoMark &lt;PathItem&gt;" y="29.0605" width="22.7161" height="22.7161" rx="11.358" style="fill: #fac0be"/>
    </g>
    <g id="type">
      <path id="type_CompoundPathItem_" data-name="type &lt;CompoundPathItem&gt;" d="M240.1848,56.978c-3.59,15.751-18.53,28.027-38.4493,28.027-26.52,0-42.618-19.8042-42.618-42.618,0-22.0045,15.75-42.387,41.2287-42.387,24.0885,0,37.2906,14.0127,39.8386,31.5H226.1717c-1.9688-11.1178-10.77-19.5716-24.0884-19.5716-18.6455,0-29.3,14.5927-29.3,30.4583,0,16.6766,11.0018,30.6893,30.69,30.6893,9.38,0,19.456-6.8335,22.12-16.0983Z" style="fill: #372865"/>
      <path id="type_CompoundPathItem_2" data-name="type &lt;CompoundPathItem&gt;" d="M257.9677,59.8746c.5791,7.7592,3.9373,14.0127,14.4763,14.0127,7.18,0,9.9594-3.2439,11.4651-7.0645h12.7392c-1.5056,9.2648-10.423,17.6023-24.2043,17.6023-18.1823,0-26.9838-12.5071-26.9838-28.3727,0-16.213,9.6121-28.3743,26.6361-28.3743,14.013,0,25.0149,10.5394,25.0149,24.321a44.3117,44.3117,0,0,1-.5788,7.8755Zm0-9.3811h26.8678c0-8.2228-5.4429-13.318-13.0866-13.318C263.99,37.1755,257.9677,41.6924,257.9677,50.4935Z" style="fill: #372865"/>
      <path id="type_CompoundPathItem_3" data-name="type &lt;CompoundPathItem&gt;" d="M318.9194,59.7583V83.0358H306.296V29.069h12.6234V59.7583Z" style="fill: #372865"/>
      <path id="type_CompoundPathItem_4" data-name="type &lt;CompoundPathItem&gt;" d="M349.45,12.74h12.6234V29.069h12.3916V39.6068H362.0733V61.8423c0,9.3811,2.8954,10.5394,7.8751,10.5394a48.1517,48.1517,0,0,0,6.3694-.4637V83.0358a61.0819,61.0819,0,0,1-9.3807.6946C360.8,83.73,349.45,82.92,349.45,64.7372Z" style="fill: #372865"/>
      <path id="type_CompoundPathItem_5" data-name="type &lt;CompoundPathItem&gt;" d="M436.3778,29.069V83.0358H423.7549V75.74c-3.3586,5.4425-10.4231,8.6848-16.6767,8.6848C390.633,84.4251,379.4,71.34,379.4,56.0524s11.2332-28.3743,27.6784-28.3743c6.2536,0,13.3181,3.2438,16.6767,8.6864V29.069ZM423.7549,56.0524c0-9.2648-6.254-17.14-15.982-17.14-9.4962,0-15.75,7.8755-15.75,17.14s6.254,17.14,15.75,17.14C417.5009,73.1926,423.7549,65.3172,423.7549,56.0524Z" style="fill: #372865"/>
      <path id="type_PathItem_" data-name="type &lt;PathItem&gt;" d="M456.058,1a9.3231,9.3231,0,1,1-9.2648,9.3811A9.342,9.342,0,0,1,456.058,1Z" style="fill: #372865"/>
      <path id="type_PathItem_2" data-name="type &lt;PathItem&gt;" d="M634.2041,65.2838a9.3231,9.3231,0,1,1-9.2648,9.3811A9.342,9.342,0,0,1,634.2041,65.2838Z" style="fill: #372865"/>
      <path id="type_PathItem_3" data-name="type &lt;PathItem&gt;" d="M332.3392,28.0173a9.3231,9.3231,0,1,1-9.2648,9.3811A9.342,9.342,0,0,1,332.3392,28.0173Z" style="fill: #372865"/>
      <rect id="type_PathItem_4" data-name="type &lt;PathItem&gt;" x="449.8045" y="29.069" width="12.623" height="53.9668" style="fill: #372865"/>
      <path id="type_CompoundPathItem_6" data-name="type &lt;CompoundPathItem&gt;" d="M475.8578,29.069h12.6234v7.5265c3.3581-5.79,9.6121-8.9174,17.6031-8.9174,7.7591,0,13.2017,2.78,16.2129,7.2971,2.664,4.0532,3.4749,8.57,3.4749,15.9819V83.0358H513.1483V55.1251c0-9.2648-2.6635-16.3293-11.6964-16.3293-8.802,0-12.9707,7.0645-12.9707,16.3293V83.0358H475.8578Z" style="fill: #372865"/>
      <path id="type_CompoundPathItem_7" data-name="type &lt;CompoundPathItem&gt;" d="M538.27,1.9693h12.6234V83.0358H538.27Z" style="fill: #372865"/>
      <path id="type_CompoundPathItem_8" data-name="type &lt;CompoundPathItem&gt;" d="M570.6938,105.85c-4.4-3.7059-7.18-9.2648-7.2963-16.6766h12.74c.5791,7.7608,6.138,11.5814,12.7389,11.5814,7.7591,0,13.2025-2.7787,13.2025-12.8544V75.5076c-3.3586,5.7915-9.6129,8.9175-17.6031,8.9175-7.7592,0-13.2025-2.7786-16.2138-7.2955-2.6631-4.0533-3.4741-8.57-3.4741-15.982V29.069H577.411V56.978c0,9.2648,2.6631,16.3293,11.6969,16.3293,8.8011,0,12.9707-7.0645,12.9707-16.3293V29.069h12.6226V87.9c0,7.99-2.3158,13.7817-6.7164,17.7186-4.5169,3.9369-11.0022,5.79-19.34,5.79C581.4643,111.4085,575.2107,109.5555,570.6938,105.85Z" style="fill: #372865"/>
    </g>
  </g>
</svg>
