<?xml version="1.0" encoding="UTF-8"?>
<svg width="387px" height="57px" viewBox="0 0 387 57" version="1.1" xmlns="http://www.w3.org/2000/svg" xmlns:xlink="http://www.w3.org/1999/xlink">
    <title>clarity-logo-ai-pdf</title>
    <g id="Symbols" stroke="none" stroke-width="1" fill="none" fill-rule="evenodd">
        <g id="clarity-logo" fill-rule="nonzero">
            <g id="clarity-logo-ai-pdf" transform="translate(0.345654, 0.645759)">
                <path d="M48.0543464,8.25481221 C48.8850414,9.08452649 48.8795492,10.4353836 48.043362,11.2705836 C47.2071747,12.1057836 45.8560939,12.1098979 45.0240258,11.2801836 C35.6776769,1.94486935 20.552162,1.92704078 11.2401393,11.2266979 C1.92811657,20.5277265 1.94596621,35.6353836 11.2936882,44.9720694 C20.6400371,54.3073836 35.765552,54.3252122 45.0775747,45.0255551 C45.9083277,44.1897899 47.2600917,44.184878 48.0969109,45.0145836 C48.9276059,45.8442979 48.9234868,47.1951551 48.0859265,48.0303551 C37.0960371,59.0086408 19.2656144,58.9880694 8.26336763,47.9974408 C-2.73887918,37.0081836 -2.75947492,19.2001836 8.23178749,8.22189792 C19.2216769,-2.75638779 37.0520995,-2.73581636 48.0543464,8.25481221 Z" id="Path" fill="#A9D9DD"></path>
                <path d="M41.3868173,14.9144694 C42.3183637,15.8523269 42.3128323,17.3667398 41.3744598,18.2977836 C40.4419357,19.2346676 38.9257343,19.2395786 37.9871464,18.3087551 C32.5402584,12.8669265 23.7376371,12.8504694 18.3278215,18.2538979 C12.9180059,23.6573265 12.9344825,32.4481836 18.3827435,37.8900122 C23.8310045,43.3318408 32.6322527,43.3482979 38.0420683,37.9448694 C38.9745925,37.0079854 40.4907939,37.0030744 41.4293818,37.9338979 C42.3613056,38.8713777 42.3563888,40.385789 41.4183974,41.3172122 C34.1233847,48.6036122 22.2890698,48.5816694 14.9844456,41.2856694 C7.67982153,33.9896694 7.65647969,22.1679551 14.9514925,14.8815551 C22.2465052,7.59652649 34.0821932,7.61846935 41.3868173,14.9144694 L41.3868173,14.9144694 Z" id="Path" fill="#FFAE26"></path>
                <path d="M34.7810754,21.5124122 C35.579832,22.3157074 35.5755292,23.6136181 34.7714641,24.4116122 C34.3877412,24.7977059 33.8661215,25.0156461 33.3214557,25.0174466 C32.7767898,25.0192472 32.2537372,24.8047604 31.8674641,24.4212122 C29.8147549,22.3709265 26.5043322,22.3640694 24.4735917,24.3924122 C22.4428513,26.4207551 22.4497166,29.7272694 24.5024258,31.7775551 C26.5565081,33.8292122 29.8669308,33.8346979 31.8976712,31.8077265 C32.6966086,31.0046107 33.9960534,31.0003129 34.8002981,31.7981265 C35.5990547,32.6014217 35.5947519,33.8993324 34.7906868,34.6973265 C31.1438669,38.3384694 25.2342612,38.3274979 21.5901875,34.6877265 C17.9447407,31.0479551 17.9337563,25.1439551 21.5805761,21.5028122 C25.226023,17.8602979 31.1370017,17.8712694 34.7810754,21.5124122 L34.7810754,21.5124122 Z" id="Path" fill="#EA6576"></path>
                <path d="M284.614324,29.4721836 L278.40402,21.4218979 C277.763882,20.59096 277.911346,19.4004206 278.734925,18.7503551 C279.558755,18.1057836 280.74507,18.2538979 281.384911,19.0836122 L286.502267,25.7185836 L291.619623,19.0836122 C291.924676,18.6854408 292.376795,18.4260208 292.874832,18.3633886 C293.372869,18.3007564 293.875259,18.4401393 294.269609,18.7503551 C295.093439,19.3949265 295.240355,20.5921836 294.600514,21.4218979 L288.39021,29.4721836 L288.39021,36.4349265 C288.39021,37.4854408 287.545785,38.3384694 286.502267,38.3384694 C285.458749,38.3384694 284.614324,37.4854408 284.614324,36.4349265 L284.614324,29.4708122 L284.614324,29.4721836 Z M249.686687,22.1569836 L244.966142,22.1569836 C243.922624,22.1569836 243.078199,21.3039551 243.078199,20.2534408 C243.078199,19.2015551 243.923997,18.3485265 244.966142,18.3485265 L258.181745,18.3485265 C259.225263,18.3485265 260.069688,19.2015551 260.069688,20.2534408 C260.069688,21.3039551 259.225263,22.1569836 258.181745,22.1569836 L253.462573,22.1569836 L253.462573,36.4335551 C253.462573,37.4854408 252.616775,38.3384694 251.57463,38.3384694 C250.531112,38.3384694 249.686687,37.4854408 249.686687,36.4349265 L249.686687,22.1569836 Z M193.018182,31.6746979 L188.326471,31.6746979 L188.326471,36.4335551 C188.326471,37.4854408 187.480673,38.3384694 186.438528,38.3384694 C185.39501,38.3384694 184.550585,37.4854408 184.550585,36.4349265 L184.550585,20.2534408 C184.550585,19.2015551 185.39501,18.3485265 186.438528,18.3485265 L194.933586,18.3485265 C198.583152,18.3485265 201.542094,21.3327551 201.542094,25.0122979 C201.548734,27.7473671 199.881821,30.2088971 197.337796,31.2207551 L200.245915,35.3281836 C200.852803,36.1839551 200.656457,37.3716122 199.806539,37.9832694 C199.399785,38.2760763 198.892649,38.3941644 198.39819,38.3112077 C197.903731,38.2282511 197.463055,37.9511464 197.174403,37.5416694 L193.018182,31.6746979 L193.018182,31.6746979 Z M194.01227,27.8676122 L194.933586,27.8676122 C196.498863,27.8676122 197.766187,26.5894408 197.766187,25.0122979 C197.766187,23.4351551 196.498863,22.1569836 194.933586,22.1569836 L188.326471,22.1569836 L188.326471,27.8676122 L194.01227,27.8676122 L194.01227,27.8676122 Z M160.876463,34.5313836 L151.583663,34.5313836 L150.40284,37.2084122 C150.20246,37.6681675 149.8264,38.0288456 149.358353,38.2101769 C148.890306,38.3915081 148.369108,38.3784461 147.910755,38.1738979 C146.95548,37.740685 146.527885,36.6197264 146.952366,35.6614408 L154.504139,18.5281836 C155.168695,17.0196122 157.29143,17.0196122 157.955986,18.5281836 L165.507759,35.6614408 C165.930658,36.6214408 165.502267,37.7460122 164.54937,38.1738979 C164.091017,38.3784461 163.56982,38.3915081 163.101772,38.2101769 C162.633725,38.0288456 162.257665,37.6681675 162.057285,37.2084122 L160.876463,34.5313836 L160.876463,34.5313836 Z M159.198596,30.7229265 L156.230063,23.9892122 L153.261529,30.7229265 L159.198596,30.7229265 L159.198596,30.7229265 Z M95.8570698,21.6810979 C96.5683095,22.4490979 96.527118,23.6559551 95.7650754,24.3718408 C95.4003371,24.7162852 94.9125899,24.9003297 94.4109439,24.8828031 C93.9092979,24.8652765 93.4356178,24.6476416 93.0958669,24.2785836 C91.8535221,22.9265117 90.1000787,22.1573006 88.2627322,22.1583551 C84.6131662,22.1583551 81.6542442,25.1412122 81.6542442,28.8207551 C81.6542442,32.5002979 84.6131662,35.4845265 88.2627322,35.4845265 C90.3533228,35.4837738 92.3189253,34.4899133 93.5572116,32.8074979 C93.8547893,32.4038566 94.3018106,32.1360566 94.7984452,32.0639042 C95.2950798,31.9917517 95.7999593,32.1212568 96.2003322,32.4234979 C97.0351464,33.0543551 97.2054045,34.2474979 96.5806669,35.0895551 C94.6334663,37.7301559 91.5461531,39.2898058 88.2627322,39.2916122 C82.5275038,39.2916122 77.8783577,34.6040694 77.8783577,28.8207551 C77.8783577,23.0388122 82.5275038,18.3498979 88.2627322,18.3498979 C91.1790896,18.3498979 93.9059662,19.5718408 95.8570698,21.6824694 L95.8570698,21.6810979 Z M119.414483,21.2065836 L119.414483,34.5327551 L126.966256,34.5327551 C128.009773,34.5327551 128.854199,35.3844122 128.854199,36.4362979 C128.854199,37.4868122 128.0084,38.3398408 126.966256,38.3398408 L117.526539,38.3398408 C116.483022,38.3398408 115.638596,37.4868122 115.638596,36.4362979 L115.638596,21.2052122 C115.638596,20.1533265 116.483022,19.3002979 117.526539,19.3002979 C118.570057,19.3002979 119.414483,20.1533265 119.414483,21.2052122 L119.414483,21.2065836 Z M225.142051,36.4362979 C225.142051,37.4868122 224.297626,38.3398408 223.254108,38.3398408 C222.21059,38.3398408 221.366165,37.4868122 221.366165,36.4362979 L221.366165,20.2534408 C221.366165,19.2029265 222.211963,18.3498979 223.254108,18.3498979 C224.297626,18.3498979 225.142051,19.2029265 225.142051,20.2548122 L225.142051,36.4362979 Z M358.596985,34.5313836 L349.301439,34.5313836 L348.121989,37.2084122 C347.921609,37.6681675 347.545549,38.0288456 347.077502,38.2101769 C346.609455,38.3915081 346.088257,38.3784461 345.629904,38.1738979 C344.674629,37.740685 344.247034,36.6197264 344.671515,35.6614408 L352.223288,18.5281836 C352.887844,17.0196122 355.010579,17.0196122 355.675135,18.5281836 L363.226908,35.6614408 C363.649807,36.6214408 363.221416,37.7460122 362.268519,38.1738979 C361.810166,38.3784461 361.288969,38.3915081 360.820921,38.2101769 C360.352874,38.0288456 359.976814,37.6681675 359.776434,37.2084122 L358.595612,34.5313836 L358.596985,34.5313836 Z M356.917745,30.7229265 L353.949212,23.9892122 L350.980678,30.7229265 L356.917745,30.7229265 Z M385.78886,36.4349265 C385.78886,37.4854408 384.944434,38.3384694 383.900917,38.3384694 C382.857399,38.3384694 382.012973,37.4854408 382.012973,36.4349265 L382.012973,20.2520694 C382.012973,19.2015551 382.858772,18.3485265 383.900917,18.3485265 C384.944434,18.3485265 385.78886,19.2015551 385.78886,20.2534408 L385.78886,36.4349265 Z" id="Lettering" fill="#485256"></path>
            </g>
        </g>
    </g>
</svg>