<?xml version="1.0" encoding="utf-8"?>
<!-- Generator: Adobe Illustrator 25.4.1, SVG Export Plug-In . SVG Version: 6.00 Build 0)  -->
<svg version="1.1" id="レイヤー_1" xmlns="http://www.w3.org/2000/svg" xmlns:xlink="http://www.w3.org/1999/xlink" x="0px"
	 y="0px" viewBox="0 0 341.37 49.6" style="enable-background:new 0 0 341.37 49.6;" xml:space="preserve">
<style type="text/css">
	.st0{display:none;fill:none;stroke:#000000;stroke-dasharray:2,2;}
</style>
<g>
	<rect x="-22.82" y="-24.8" class="st0" width="389.75" height="99.2"/>
	<g>
		<path d="M53.56,0.55v10.21c0,0,14.47,0,15.56,0c0,1.14,0,38.31,0,38.31h11.02c0,0,0-37.17,0-38.31c1.1,0,15.56,0,15.56,0V0.55
			H53.56z"/>
		<path d="M234.95,0.55H207.2v10.29h27.02c3.96,0,5.51,1.81,5.51,6.45c0,0.02,0,1.32,0,1.71c-1.11,0-22.39,0-22.39,0
			c-8.51,0-12.75,4.26-12.75,13.88v2.29c0,9.9,4.39,13.88,13.21,13.88h32.83V17.16C250.63,4.94,246.6,0.55,234.95,0.55z
			 M218.95,38.69c-1.67,0-3.54-0.85-3.54-5.01c0-4.16,1.85-4.89,3.54-4.89c0,0,19.66,0,20.77,0v9.9
			C238.62,38.69,218.95,38.69,218.95,38.69z"/>
		<path d="M326.45,0.55H298.7v10.29h27.01c3.97,0,5.51,1.81,5.51,6.45c0,0.02,0,1.32,0,1.71c-1.11,0-22.39,0-22.39,0
			c-8.51,0-12.75,4.26-12.75,13.88v2.29c0,9.9,4.39,13.88,13.21,13.88h32.83V17.17C342.14,4.95,338.1,0.55,326.45,0.55z
			 M310.45,38.69c-1.67,0-3.54-0.85-3.54-5.01c0-4.17,1.85-4.89,3.54-4.89c0,0,19.66,0,20.77,0v9.9
			C330.12,38.69,310.45,38.69,310.45,38.69z"/>
		<path d="M99.21,0.55v10.21c0,0,14.47,0,15.56,0c0,1.14,0,38.31,0,38.31h11.03c0,0,0-37.17,0-38.31c1.1,0,15.57,0,15.57,0V0.55
			H99.21z"/>
		<path d="M252.85,0.55v10.21c0,0,14.47,0,15.56,0c0,1.14,0,38.31,0,38.31h11.03c0,0,0-37.17,0-38.31c1.09,0,15.56,0,15.56,0V0.55
			H252.85z"/>
		<path d="M200.32,32.06V17.54c0-12.71-4.93-17-16.05-17h-29.51v48.5h30.02C196.59,49.05,200.32,43.18,200.32,32.06z M189.06,32.27
			c0,4.65-1.57,6.45-5.53,6.45c0,0-16.65,0-17.75,0V10.87c1.1,0,17.75,0,17.75,0c3.96,0,5.53,1.81,5.53,6.46
			C189.06,17.35,189.06,32.27,189.06,32.27z"/>
		<path d="M38.01,37.5C37.78,37.05,23.05,8.36,21.25,5.53C19.18,2.27,16.65,0,11.8,0c-4.5,0-9.82,2-9.82,12.8v36.27h10.87
			c0,0,0-28.08,0-30.25c0-2.17-0.14-5.39-0.16-6.04c-0.02-0.53,0-1.04,0.27-1.19c0.32-0.18,0.63,0.11,0.84,0.51
			c0.21,0.4,13.86,27.41,16.76,31.97c2.08,3.26,4.61,5.53,9.45,5.53c4.5,0,9.82-2,9.82-12.8V0.53H38.96c0,0,0,28.08,0,30.25
			c0,2.17,0.13,5.39,0.16,6.04c0.02,0.53,0,1.04-0.27,1.19C38.54,38.19,38.23,37.9,38.01,37.5z"/>
	</g>
</g>
</svg>
