<?xml version="1.0" encoding="UTF-8" standalone="no"?>
<!-- Created with Inkscape (http://www.inkscape.org/) -->

<svg
   width="250"
   height="202.01585"
   viewBox="0 0 66.145833 53.450032"
   version="1.1"
   id="svg847"
   inkscape:version="1.1.1 (1:1.1+202109281946+c3084ef5ed)"
   sodipodi:docname="otr.svg"
   xmlns:inkscape="http://www.inkscape.org/namespaces/inkscape"
   xmlns:sodipodi="http://sodipodi.sourceforge.net/DTD/sodipodi-0.dtd"
   xmlns="http://www.w3.org/2000/svg"
   xmlns:svg="http://www.w3.org/2000/svg">
  <sodipodi:namedview
     id="namedview849"
     pagecolor="#ffffff"
     bordercolor="#666666"
     borderopacity="1.0"
     inkscape:pageshadow="2"
     inkscape:pageopacity="0.0"
     inkscape:pagecheckerboard="false"
     inkscape:document-units="mm"
     showgrid="false"
     fit-margin-top="5"
     fit-margin-left="5"
     fit-margin-right="5"
     fit-margin-bottom="5"
     units="px"
     lock-margins="true"
     inkscape:zoom="2.0737236"
     inkscape:cx="96.927095"
     inkscape:cy="82.942588"
     inkscape:window-width="1920"
     inkscape:window-height="995"
     inkscape:window-x="0"
     inkscape:window-y="48"
     inkscape:window-maximized="1"
     inkscape:current-layer="layer1" />
  <defs
     id="defs844">
    <clipPath
       id="clip-path-3-0-1">
      <rect
         class="cls-1"
         x="91.120003"
         y="392.04999"
         width="467.76001"
         height="64.82"
         id="rect7-3-8" />
    </clipPath>
    <clipPath
       id="clip-path-4-5">
      <rect
         class="cls-1"
         x="91.120003"
         y="392.04999"
         width="467.76001"
         height="64.809998"
         id="rect10-7" />
    </clipPath>
    <clipPath
       id="clip-path-5-6-0">
      <rect
         class="cls-1"
         x="77.889999"
         y="664.90997"
         width="494.20999"
         height="146.06"
         id="rect131-9" />
    </clipPath>
    <clipPath
       id="clipPath1301">
      <rect
         class="cls-1"
         x="77.889999"
         y="664.90997"
         width="494.20999"
         height="146.06"
         id="rect1299" />
    </clipPath>
  </defs>
  <g
     inkscape:label="Layer 1"
     inkscape:groupmode="layer"
     id="layer1"
     transform="translate(-63.573087,-68.589168)">
    <g
       id="g1417"
       transform="matrix(0.36205039,0,0,0.36205039,-486.28855,-185.08982)">
      <path
         inkscape:connector-curvature="0"
         id="path1427"
         d="m 1535.5972,843.50089 c -14.4457,-5.47721 -17.8451,-24.25853 -6.1404,-33.92585 6.6368,-5.48162 14.6145,-6.00338 22.3633,-1.46259 12.3074,7.21211 12.1205,26.15411 -0.33,33.45062 -4.8744,2.85658 -11.3782,3.6496 -15.8929,1.93782 z m 14.2273,-2.55533 c 2.2186,-1.07402 5.0457,-3.5405 6.5559,-5.71968 2.3186,-3.34572 2.6551,-4.67471 2.6551,-10.4849 0,-5.81019 -0.3365,-7.13917 -2.6551,-10.4849 -7.1563,-10.32651 -22.2574,-10.10588 -29.6647,0.43339 -2.3356,3.32317 -2.7062,4.69942 -2.7062,10.05151 0,5.35209 0.3706,6.72834 2.7062,10.05151 5.3974,7.67958 14.7895,10.18038 23.1088,6.15307 z m -13.0804,-0.95134 c -3.6972,-1.07566 -8.2902,-6.02261 -9.7039,-10.45165 -1.8999,-5.95205 -0.4997,-11.52002 4.038,-16.05776 5.2388,-5.23873 10.63,-6.18943 16.996,-2.99711 6.593,3.30609 8.1778,6.06833 8.1778,14.25328 0,8.09108 -1.5787,10.91668 -7.9056,14.14957 -4.2977,2.19602 -6.973,2.45052 -11.6023,1.10367 z m 11.6213,-2.49687 c 3.7105,-1.85361 7.4227,-8.23326 7.4227,-12.75637 0,-4.38183 -3.7045,-10.74316 -7.4227,-12.74624 -4.5507,-2.45154 -12.1128,-1.85011 -15.4047,1.22516 -3.5544,3.32055 -5.0082,6.72159 -5.0044,11.70696 0.01,10.88322 10.6572,17.44206 20.4091,12.57049 z m 47.3824,5.45349 c -0.5835,-1.09027 -0.9904,-7.94223 -0.9904,-16.6765 v -14.82585 l -2.8253,1.06641 c -2.2742,0.85842 -2.9814,0.81387 -3.6255,-0.22841 -1.19,-1.92536 -0.2487,-3.47285 2.9077,-4.78025 6.3529,-2.63147 16.8871,-0.55835 16.3481,3.2173 -0.2712,1.89936 -1.8696,2.31288 -5.3823,1.39238 -1.1853,-0.3106 -1.4606,2.04227 -1.8557,15.8612 -0.4072,14.24392 -0.6546,16.26246 -2.025,16.52515 -0.8586,0.16458 -2.0068,-0.53356 -2.5516,-1.55143 z m 3.4392,-16.78033 0.2544,-16.04658 3.225,0.52335 c 4.2152,0.68402 4.1536,-0.76529 -0.092,-2.16647 -3.9495,-1.30344 -10.8873,-0.4758 -12.5219,1.49379 -0.9936,1.19723 -0.6352,1.29832 2.7076,0.76378 l 3.8528,-0.6161 v 16.43312 c 0,12.73365 0.2611,16.34628 1.1598,16.04739 0.8549,-0.28428 1.2267,-4.60542 1.4142,-16.43228 z m 42.1424,16.9513 c -0.5044,-0.97028 -0.6723,-8.66861 -0.3978,-18.22741 0.5205,-18.11824 0.4768,-17.99859 6.1893,-16.92692 9.559,1.79329 13.6009,15.25667 6.5648,21.86683 -3.1486,2.95789 -2.9363,4.69865 0.9974,8.18136 1.8302,1.62028 3.1544,3.4716 2.9429,4.11404 -0.7949,2.41325 -4.1887,1.72049 -7.6738,-1.56639 -1.9225,-1.81307 -3.6205,-3.29649 -3.7735,-3.29649 -0.1529,0 -0.4077,1.56226 -0.5661,3.47168 -0.3214,3.87549 -2.7929,5.25065 -4.2832,2.3833 z m 3.3502,-5.23163 c 0.1556,-2.3841 0.6434,-4.33471 1.0841,-4.33471 0.4408,0 1.7078,1.46662 2.8157,3.25917 1.9876,3.21613 4.3945,5.09139 6.5346,5.09139 0.6032,0 -0.4132,-1.67132 -2.2587,-3.71404 -3.8746,-4.28876 -4.0944,-5.53579 -1.4047,-7.96993 7.3445,-6.6467 4.9327,-17.75319 -4.5335,-20.87734 -2.571,-0.84851 -3.3635,-0.80688 -4.0081,0.21051 -0.4418,0.69749 -0.8098,8.5053 -0.8176,17.35071 -0.011,12.45609 0.2473,15.99648 1.1456,15.70076 0.6482,-0.21339 1.2846,-2.29387 1.4426,-4.71652 z m 0.1811,-17.32448 c 0,-8.51599 0.1458,-9.2784 1.7732,-9.2784 0.9753,0 2.8542,1.28462 4.1753,2.85471 3.3954,4.03517 3.2833,8.9955 -0.2898,12.82044 -4.7972,5.13546 -5.6587,4.16163 -5.6587,-6.39675 z m 5.6167,4.40724 c 2.1057,-3.38087 1.8428,-7.37055 -0.6684,-10.14536 -3.1147,-3.44178 -4.0204,-2.14915 -4.0204,5.73812 0,8.44395 1.3717,9.73331 4.6888,4.40724 z m 43.0704,18.59553 c -0.2655,-0.69202 -0.3686,-8.96906 -0.2291,-18.39342 0.252,-17.02459 0.2673,-17.13713 2.3611,-17.43429 l 2.1075,-0.29909 -0.2518,18.37993 c -0.2283,16.66294 -0.4037,18.40913 -1.8783,18.69251 -0.8946,0.17192 -1.8438,-0.25361 -2.1094,-0.94564 z m 3.272,-17.95441 c 0,-10.16973 -0.3447,-16.18245 -0.9278,-16.18245 -0.5843,0 -0.9279,6.20386 -0.9279,16.75589 0,10.93432 0.3224,16.55666 0.9279,16.18245 0.5611,-0.34683 0.9278,-6.96844 0.9278,-16.75589 z m -96.7274,-43.45873 c -3.3496,-2.96047 -4.4605,-5.19813 -2.5806,-5.19813 0.4943,0 0.7004,0.52191 0.458,1.1598 -0.2443,0.64288 1.3195,2.26176 3.5085,3.63224 3.8503,2.41048 4.1585,2.45102 12.2998,1.61786 17.1055,-1.75053 31.8001,-5.72598 43.6085,-11.79777 9.3958,-4.83125 20.6767,-16.23195 25.0115,-25.27715 3.6303,-7.57528 3.987,-11.13359 1.9639,-19.59529 -1.4186,-5.93381 -2.0602,-7.26579 -3.4999,-7.26579 -0.5515,0 -1.4884,-0.66408 -2.0818,-1.47572 -0.9359,-1.27981 -2.403,-0.40105 -11.0517,6.61951 -8.6915,7.05527 -10.3101,8.82419 -12.5998,13.7696 -1.445,3.1209 -3.2873,6.50943 -4.094,7.53006 -0.8067,1.02062 0.2558,-1.62936 2.3613,-5.88885 3.5861,-7.25499 4.4675,-8.2667 13.9435,-16.00524 9.8418,-8.03726 11.8512,-9.27669 11.8512,-7.30992 0,0.52294 1.0081,1.33409 2.2402,1.80253 2.4518,0.93216 2.4886,1.02111 4.6827,11.3075 1.5077,7.06874 1.5041,7.12825 -0.759,12.69797 -9.2875,22.85652 -32.3694,37.17806 -66.7869,41.43903 -14.6006,1.80758 -14.4164,1.82514 -18.4754,-1.76224 z m 0,-5.81262 c 0.6379,-0.25739 1.6818,-0.25739 2.3197,0 0.6378,0.25739 0.1159,0.46799 -1.1599,0.46799 -1.2757,0 -1.7976,-0.2106 -1.1598,-0.46799 z m 10.9022,-3.03026 c 11.2399,-3.90257 26.4434,-12.01361 26.4434,-14.10752 0,-0.44249 -9.3109,-0.80454 -20.6908,-0.80454 -14.8558,0 -21.0049,-0.314 -21.8043,-1.11341 -1.8027,-1.80271 -1.2725,-3.02957 0.5834,-1.34999 1.4739,1.3338 4.4606,1.53556 22.7321,1.53556 15.4729,0 21.0353,-0.28779 21.0353,-1.08832 0,-1.7938 -18.5416,-30.34239 -20.6789,-31.83942 -1.4251,-0.99818 -1.6956,-1.66719 -0.968,-2.39471 0.9726,-0.97269 15.5612,-3.97886 24.6624,-5.08202 2.424,-0.29382 4.4072,-0.87869 4.4072,-1.29974 0,-0.42103 -1.9832,-2.87484 -4.4072,-5.45291 l -4.4073,-4.68739 -9.2784,0.45432 c -20.5462,1.00606 -34.1198,3.71781 -45.4641,9.08283 -12.0511,5.69928 -21.9193,14.91971 -26.9086,25.14232 -2.0739,4.24909 -2.216,5.3609 -1.6901,13.22172 0.5177,7.73837 0.7547,8.58252 2.4093,8.58252 1.9902,0 22.9357,-10.85277 22.9517,-11.89226 0.024,-1.56088 8.3427,-11.46166 12.8569,-15.30212 4.7469,-4.0384 16.4118,-10.84707 18.5836,-10.84707 2.2621,0 0.8359,1.66137 -1.8952,2.20758 -7.0267,1.40535 -18.5248,10.28691 -25.4627,19.66835 -4.7198,6.38213 -5.5677,7.04439 -15.853,12.38199 -5.9766,3.10157 -11.3974,5.63922 -12.0462,5.63922 -2.4096,0 -3.2653,-3.86143 -2.9504,-13.3136 0.3005,-9.02013 0.4563,-9.6376 3.6827,-14.59896 12.9248,-19.87442 34.6108,-29.73413 68.5387,-31.16169 l 13.4537,-0.56608 3.839,4.17068 c 2.1115,2.29387 4.3203,5.06992 4.9085,6.16899 0.9406,1.75756 0.7782,2.10907 -1.3479,2.9174 -1.3295,0.50549 -3.7471,0.91822 -5.3724,0.91719 -3.6981,-0.003 -18.4246,2.6654 -19.9635,3.61647 -0.8095,0.50032 1.9131,5.48772 9.3243,17.0806 5.7572,9.00566 10.8852,16.39041 11.3955,16.41055 0.5103,0.0201 2.5352,-1.74434 4.4997,-3.92108 1.9645,-2.17672 2.6832,-2.7051 1.5972,-1.17416 -3.4309,4.83654 -13.989,13.24973 -21.5911,17.20477 -6.9818,3.63236 -19.4229,8.38998 -21.55,8.24099 -0.5485,-0.0384 2.343,-1.2296 6.4255,-2.64706 z"
         style="fill:#9fdcec;stroke-width:0.92784" />
      <path
         inkscape:connector-curvature="0"
         id="path1425"
         d="m 1533.0946,840.72309 c -2.02,-1.14413 -4.8906,-3.81291 -6.3789,-5.9306 -2.3356,-3.32317 -2.7062,-4.69942 -2.7062,-10.05151 0,-5.35209 0.3706,-6.72834 2.7062,-10.05151 7.4073,-10.53927 22.5084,-10.7599 29.6647,-0.43339 2.3186,3.34573 2.6551,4.67471 2.6551,10.4849 0,5.81019 -0.3365,7.13918 -2.6551,10.4849 -5.0723,7.3193 -15.6571,9.81811 -23.2858,5.49721 z m 15.2518,-1.83254 c 6.3269,-3.23289 7.9056,-6.05849 7.9056,-14.14957 0,-8.18495 -1.5848,-10.94719 -8.1778,-14.25328 -6.366,-3.19232 -11.7572,-2.24162 -16.996,2.99711 -3.0246,3.02462 -4.0186,4.82475 -4.5236,8.19257 -1.5194,10.13235 5.4569,18.86555 15.3512,19.21713 1.2953,0.046 4.1935,-0.85576 6.4406,-2.00396 z m 48.2666,-12.33515 v -16.43312 l -3.8528,0.6161 c -3.3429,0.53454 -3.7013,0.43345 -2.7077,-0.76378 1.6347,-1.96959 8.5725,-2.79723 12.5219,-1.49379 4.2456,1.40118 4.3072,2.85049 0.092,2.16647 l -3.225,-0.52335 -0.2544,16.04658 c -0.1875,11.82686 -0.5594,16.148 -1.4142,16.43228 -0.8987,0.29889 -1.1598,-3.31374 -1.1598,-16.04739 z m 45.4784,0.35054 c 0.01,-8.84541 0.3758,-16.65322 0.8176,-17.35071 0.6446,-1.01739 1.4371,-1.05902 4.0081,-0.21051 9.4662,3.12415 11.878,14.23064 4.5335,20.87734 -2.6897,2.43414 -2.4699,3.68117 1.4047,7.96993 1.8455,2.04272 2.8619,3.71404 2.2587,3.71404 -2.1401,0 -4.547,-1.87526 -6.5346,-5.09139 -1.1079,-1.79255 -2.3749,-3.25917 -2.8157,-3.25917 -0.4407,0 -0.9285,1.95061 -1.0841,4.33471 -0.158,2.42265 -0.7944,4.50313 -1.4426,4.71652 -0.8983,0.29572 -1.1566,-3.24467 -1.1456,-15.70076 z m 8.428,0.0565 c 3.5731,-3.82494 3.6852,-8.78527 0.2898,-12.82044 -1.3211,-1.57009 -3.2,-2.85471 -4.1753,-2.85471 -1.6274,0 -1.7732,0.76241 -1.7732,9.2784 0,10.55838 0.8615,11.53221 5.6587,6.39675 z m 44.4447,-0.77494 c 0,-10.55203 0.3436,-16.75589 0.9279,-16.75589 0.5831,0 0.9278,6.01272 0.9278,16.18245 0,9.78745 -0.3667,16.40906 -0.9278,16.75589 -0.6055,0.37421 -0.9279,-5.24813 -0.9279,-16.18245 z m -140.4132,-72.80982 c -0.515,-7.69304 -0.3662,-8.83702 1.6999,-13.07017 4.9893,-10.22261 14.8575,-19.44304 26.9086,-25.14232 11.3227,-5.35481 24.9625,-8.08483 45.3212,-9.07105 l 9.1354,-0.44254 3.3713,3.08962 3.3714,3.0896 -4.6202,0.61659 c -15.2571,2.03615 -28.0025,5.67668 -37.3887,10.67945 -9.8097,5.22853 -15.9085,11.10466 -24.7037,23.80199 -0.7552,1.09019 -6.1335,4.88413 -11.9519,8.43098 l -10.5789,6.44883 z"
         style="fill:#1fb8e0;stroke-width:0.92784" />
      <path
         inkscape:connector-curvature="0"
         id="path1423"
         d="m 1600.5695,781.22584 c -3.7439,-2.43049 -3.4428,-3.54354 1.2149,-4.49136 12.5948,-2.56299 28.3244,-10.0656 37.7965,-18.02795 6.5458,-5.50251 14.4404,-16.13048 16.406,-22.08635 0.8413,-2.54908 3.5295,-5.32313 11.3385,-11.70026 9.5938,-7.83472 10.3305,-8.25919 11.7465,-6.76775 0.8396,0.88439 1.5555,3.27357 1.6116,5.3784 0.055,2.08295 0.2292,5.89469 0.386,8.47054 0.7707,12.66504 -13.2619,29.50189 -32.0699,38.47858 -8.9718,4.28206 -24.2037,8.73268 -34.9682,10.21738 -4.2218,0.5823 -8.3023,1.37802 -9.0678,1.76827 -0.8542,0.4355 -2.5513,-0.0432 -4.3941,-1.2395 z m -6.0184,-26.31889 c -0.72,-0.86938 1.4669,-4.84774 8.4316,-15.3386 5.172,-7.79062 9.4036,-14.67352 9.4036,-15.29533 0,-0.62181 0.3834,-1.13056 0.852,-1.13056 0.4686,0 1.4949,-0.24672 2.2807,-0.54828 1.0125,-0.38851 1.6165,0.21985 2.0729,2.08764 0.3542,1.44976 4.3252,8.10013 8.8244,14.7786 4.4992,6.67848 8.4468,12.83702 8.7725,13.68565 0.5213,1.3585 -0.3349,1.55452 -7.1619,1.63967 -4.2647,0.0532 -13.3226,0.36634 -20.1289,0.69588 -9.4466,0.45739 -12.6049,0.3214 -13.3469,-0.57467 z"
         style="fill:#b2bc3e;stroke-width:0.92784" />
      <path
         inkscape:connector-curvature="0"
         id="path1421"
         d="m 1604.5424,783.52125 c -0.2454,-0.39711 3.7561,-0.99741 8.8923,-1.33401 11.8391,-0.77586 21.0693,-2.68438 32.1688,-6.6515 11.7304,-4.19259 17.9109,-7.96805 25.7728,-15.74359 7.5304,-7.44767 13.3816,-17.81668 13.3816,-23.71381 0,-5.07824 -1.9442,-13.22316 -3.4542,-14.47053 -0.7889,-0.65174 -0.9364,-1.29304 -0.3768,-1.63885 1.2646,-0.78159 1.9701,0.60016 3.4351,6.72793 2.0231,8.4617 1.6664,12.02001 -1.9639,19.59529 -2.5093,5.23597 -5.0905,8.64501 -10.9022,14.39886 -8.7236,8.63679 -15.7022,12.65934 -29.6628,17.09808 -11.9356,3.79486 -36.1843,7.52224 -37.2907,5.73213 z m -48.3731,-22.10538 c 0.3797,-0.38273 5.1355,-3.40981 10.5684,-6.72684 8.4795,-5.17717 10.399,-6.81867 13.5589,-11.59515 10.9336,-16.52759 29.2718,-26.41621 55.841,-30.11165 6.741,-0.93759 7.3746,-0.87911 9.0928,0.83907 1.0157,1.01579 1.6189,2.0748 1.3404,2.35336 -0.2786,0.27856 -4.2152,0.96012 -8.7482,1.51459 -4.5329,0.55446 -11.171,1.75644 -14.7513,2.67105 -3.5803,0.91461 -6.6553,1.52564 -6.8332,1.35783 -0.6793,-0.64072 9.4944,-3.16859 16.8072,-4.17613 10.6867,-1.47236 11.8154,-1.73677 11.8154,-2.76778 0,-2.59566 -21.2343,0.94817 -33.1002,5.52414 -13.498,5.20538 -24.6915,13.96647 -30.4937,23.86721 -1.4395,2.45626 -3.4814,5.18869 -4.5376,6.07207 -1.0562,0.88337 -1.418,1.62002 -0.8039,1.637 0.6141,0.017 1.8666,-1.04479 2.7835,-2.35949 4.7409,-6.79788 11.0585,-13.75066 15.427,-16.97784 5.0632,-3.74036 15.5379,-9.39485 17.4037,-9.39485 0.5839,0 -2.2225,1.64589 -6.2365,3.65755 -4.014,2.01166 -9.5946,5.61428 -12.4013,8.00584 -4.6137,3.93128 -12.9558,13.83736 -12.98,15.41364 -0.015,0.98487 -20.9084,11.89226 -22.7797,11.89226 -0.9148,0 -1.3525,-0.31314 -0.9727,-0.69588 z m 40.4429,-4.6392 c -4e-4,-0.38273 9.4446,-0.576 20.9889,-0.42948 18.0595,0.22922 20.9174,0.0779 20.4718,-1.08331 -0.636,-1.65742 -17.0344,-27.23505 -19.0963,-29.78583 -1.3905,-1.72014 -1.3818,-1.75811 0.134,-0.58438 1.9603,1.51789 20.1831,29.94992 20.1831,31.49056 0,0.80099 -5.6341,1.08832 -21.3403,1.08832 -11.7372,0 -21.3407,-0.31314 -21.3412,-0.69588 z"
         style="fill:#426193;stroke-width:0.92784" />
      <path
         inkscape:connector-curvature="0"
         id="path1419"
         d="m 1612.8503,781.12638 c 34.0222,-5.59043 56.8633,-19.01489 65.8862,-38.72334 2.6839,-5.8625 2.9583,-8.16872 1.8914,-15.89904 -0.6002,-4.34927 -0.5047,-5.37034 0.4719,-5.04481 1.4425,0.48082 3.5627,8.86874 3.6188,14.31641 0.096,9.3342 -12.5087,26.17474 -25.1247,33.56764 -11.5468,6.76639 -29.8933,11.83674 -45.851,12.67167 l -9.2432,0.48361 z m 3.5331,-25.78418 c 16.7493,-0.77237 19.2341,-1.07896 18.7599,-2.3147 -0.3006,-0.78341 -4.2913,-6.96671 -8.8683,-13.74064 -4.5769,-6.77393 -8.3216,-12.84951 -8.3216,-13.5013 0,-0.87673 0.3294,-0.83157 1.2659,0.17355 1.5455,1.65866 18.1349,27.4318 18.8404,29.27033 0.4274,1.11377 -2.6732,1.29135 -20.239,1.15916 l -20.7437,-0.15611 z m -39.6542,-5.10456 c 1.0562,-0.88338 3.0981,-3.61581 4.5376,-6.07207 5.8022,-9.90074 16.9957,-18.66183 30.4937,-23.86721 11.8659,-4.57597 33.1002,-8.1198 33.1002,-5.52414 0,1.00572 -0.079,1.02389 -13.8942,3.17792 -5.3455,0.83347 -11.4271,2.34226 -13.5147,3.35286 -2.0876,1.0106 -4.5108,1.83746 -5.3849,1.83746 -2.3193,0 -12.2738,5.2156 -17.9311,9.39485 -4.3685,3.22718 -10.6861,10.17996 -15.427,16.97784 -0.9169,1.3147 -2.1694,2.37647 -2.7835,2.35949 -0.6141,-0.017 -0.2523,-0.75363 0.8039,-1.637 z"
         style="fill:#483f63;stroke-width:0.92784" />
    </g>
  </g>
</svg>
