<svg width="98" height="16" viewBox="0 0 98 16" fill="none" xmlns="http://www.w3.org/2000/svg">
<path d="M6.01325 15.9992C4.49669 15.9992 3.22517 15.6596 2.18543 14.9805C1.15232 14.3013 0.423841 13.3758 0 12.2039L2.57616 10.6858C3.17219 12.2506 4.34437 13.0362 6.09272 13.0362C6.9404 13.0362 7.55629 12.8831 7.94702 12.5768C8.33775 12.2705 8.53642 11.8843 8.53642 11.4116C8.53642 10.8723 8.29801 10.4461 7.81457 10.1465C7.33113 9.84689 6.47682 9.52063 5.23841 9.16774C4.55629 8.96133 3.97351 8.75492 3.50331 8.55517C3.02649 8.34876 2.55629 8.07577 2.07947 7.72954C1.60927 7.3833 1.24503 6.95051 1 6.4245C0.754967 5.89849 0.635762 5.27927 0.635762 4.57348C0.635762 3.18189 1.12583 2.06995 2.11258 1.24431C3.09272 0.418677 4.27815 0.00585938 5.66225 0.00585938C6.90066 0.00585938 7.98676 0.312143 8.92715 0.918052C9.86755 1.52396 10.596 2.36957 11.1258 3.45488L8.5894 4.92637C7.98013 3.60802 7 2.94885 5.66225 2.94885C5.03311 2.94885 4.54305 3.08867 4.18543 3.37498C3.82781 3.66129 3.64901 4.03416 3.64901 4.48692C3.64901 4.97298 3.84768 5.35917 4.25166 5.66545C4.64901 5.96508 5.41722 6.29134 6.55629 6.64423C7.01987 6.79071 7.37748 6.9039 7.61589 6.9838C7.85431 7.0637 8.18543 7.19021 8.60265 7.35667C9.01987 7.52313 9.33775 7.68293 9.56291 7.82941C9.78808 7.9759 10.0464 8.17565 10.3377 8.42201C10.6291 8.66836 10.8543 8.92804 11.0066 9.18771C11.1589 9.45405 11.2914 9.76699 11.3974 10.1465C11.5099 10.5194 11.5629 10.9255 11.5629 11.365C11.5629 12.7832 11.0464 13.9151 10.0199 14.7474C8.99338 15.5864 7.65563 15.9992 6.01325 15.9992Z" fill="#061B2B"/>
<path d="M22.49 0.3125H25.5033V15.6933H23.2053L16.649 6.29169V15.6933H13.6357V0.3125H15.9271L22.4834 9.68079V0.3125H22.49Z" fill="#061B2B"/>
<path d="M43.5758 7.43071V8.6159C43.5758 10.8132 42.8738 12.5909 41.4765 13.9559C40.0791 15.3208 38.2712 16 36.0592 16C33.7016 16 31.7414 15.2276 30.1917 13.6829C28.642 12.1382 27.8672 10.2538 27.8672 8.0233C27.8672 5.77944 28.6354 3.88847 30.1718 2.33042C31.7082 0.779026 33.6155 0 35.8871 0C37.3175 0 38.6155 0.326259 39.801 0.978777C40.9798 1.63129 41.9003 2.49688 42.5559 3.58219L39.9798 5.07366C39.6155 4.44112 39.0659 3.92842 38.3308 3.53558C37.5957 3.14274 36.7745 2.94299 35.8738 2.94299C34.4169 2.94299 33.2182 3.42239 32.2778 4.38119C31.3374 5.33999 30.8672 6.55181 30.8672 8.01665C30.8672 9.46816 31.344 10.6667 32.2977 11.6122C33.2513 12.5576 34.5162 13.0304 36.0924 13.0304C37.2579 13.0304 38.2248 12.7707 38.9864 12.2514C39.7546 11.732 40.2712 11.0196 40.5493 10.1074H35.9135V7.42405H43.5758V7.43071Z" fill="#061B2B"/>
<path d="M51.5298 15.9996C49.8278 15.9996 48.4238 15.5135 47.3311 14.548C46.245 13.5826 45.6953 12.2909 45.6953 10.6596V0.3125H48.6887V10.4199C48.6887 11.2255 48.9205 11.8647 49.3774 12.3308C49.8344 12.7969 50.5562 13.0366 51.5298 13.0366C52.5033 13.0366 53.2251 12.8036 53.6821 12.3308C54.139 11.8647 54.3708 11.2255 54.3708 10.4199V0.3125H57.3841V10.6596C57.3841 12.2842 56.841 13.5826 55.7483 14.548C54.6556 15.5202 53.2516 15.9996 51.5298 15.9996Z" fill="#061B2B"/>
<path d="M63.3316 12.7969H69.166V15.6999H60.3184V0.3125H63.3316V12.7969Z" fill="#061B2B"/>
<path d="M81.5826 15.6933L80.6091 12.9234H74.3243L73.4038 15.6933H70.1455L75.4965 0.3125H79.2316L84.629 15.6933H81.5826ZM75.3111 10.0936H79.6157L77.4104 3.80813L75.3111 10.0936Z" fill="#061B2B"/>
<path d="M94.7355 15.6933L91.6427 10.3533H89.358V15.6933H86.3447V0.3125H92.4639C93.8745 0.3125 95.0798 0.811876 96.0732 1.80397C97.0666 2.79606 97.5566 4.00122 97.5566 5.40613C97.5566 6.35828 97.2851 7.24384 96.7487 8.05615C96.2123 8.86847 95.497 9.48104 94.6096 9.8872L98.0004 15.6866H94.7355V15.6933ZM89.3646 3.14895V7.6966H92.4706C93.0401 7.6966 93.5235 7.47688 93.9341 7.02411C94.3447 6.578 94.5434 6.03868 94.5434 5.40613C94.5434 4.77359 94.3381 4.24092 93.9341 3.80147C93.5302 3.36202 93.0401 3.1423 92.4706 3.1423H89.3646V3.14895Z" fill="#061B2B"/>
</svg>
